<svg width="130" height="130" fill="none" xmlns="http://www.w3.org/2000/svg"><path fill-rule="evenodd" clip-rule="evenodd" d="M63.7.13c0 .08-.737.13-1.95.13S59.8.31 59.8.39s-.693.13-1.82.13c-1.127 0-1.82.05-1.82.13 0 .076-.433.13-1.04.13s-1.04.054-1.04.13c0 .072-.175.13-.39.13-.215 0-.39.058-.39.13 0 .072-.234.13-.52.13-.286 0-.52.058-.52.13 0 .074-.39.13-.91.13s-.91.056-.91.13c0 .072-.292.13-.65.13-.358 0-.65.058-.65.13 0 .072-.117.13-.26.13-.143 0-.26.058-.26.13 0 .071-.175.13-.39.13-.214 0-.39.058-.39.13 0 .072-.347.13-.78.13-.433 0-.78.058-.78.13 0 .071-.175.13-.39.13-.215 0-.39.058-.39.13 0 .071-.117.13-.26.13-.143 0-.26.058-.26.13 0 .071-.117.13-.26.13-.143 0-.26.058-.26.13 0 .072-.293.13-.65.13-.358 0-.65.058-.65.13 0 .071-.175.13-.39.13-.215 0-.39.058-.39.13 0 .071-.117.13-.26.13-.143 0-.26.058-.26.13 0 .072-.117.13-.26.13-.143 0-.26.059-.26.13 0 .072-.176.13-.39.13-.215 0-.39.059-.39.13 0 .072-.175.13-.39.13-.215 0-.39.058-.39.13 0 .071-.104.13-.231.13s-.316.117-.419.26c-.11.153-.337.26-.549.26-.198 0-.361.059-.361.13 0 .072-.163.13-.361.13-.212 0-.439.107-.549.26-.103.143-.291.26-.419.26-.127 0-.231.059-.231.13 0 .072-.175.13-.39.13-.215 0-.39.059-.39.13 0 .072-.104.13-.231.13s-.316.117-.419.26c-.103.143-.291.26-.419.26-.127 0-.231.058-.231.13 0 .072-.117.13-.26.13-.143 0-.26.059-.26.13 0 .072-.152.13-.338.13-.208 0-.478.15-.702.39-.224.24-.494.39-.702.39-.186 0-.338.059-.338.13 0 .071-.093.13-.208.13-.114 0-.372.175-.572.39-.2.214-.458.39-.572.39-.114 0-.208.058-.208.13 0 .072-.094.13-.208.13-.114 0-.372.175-.572.39-.2.215-.458.39-.572.39-.115 0-.208.059-.208.13 0 .071-.093.13-.208.13-.114 0-.372.175-.572.39-.2.214-.458.39-.572.39-.114 0-.208.058-.208.13 0 .072-.094.13-.208.13-.114 0-.372.175-.572.39-.2.215-.433.39-.517.39-.084 0-.378.234-.653.52-.275.286-.567.52-.648.52-.082 0-.434.293-.782.65-.348.357-.7.65-.782.65-.082 0-.373.234-.648.52-.275.286-.592.52-.705.52a.205.205 0 00-.205.204c0 .237-.304.576-.517.576-.215 0-.783.608-.783.84a.2.2 0 01-.198.2c-.256 0-1.882 1.626-1.882 1.883a.2.2 0 01-.2.197c-.232 0-.84.567-.84.783 0 .213-.34.517-.576.517a.205.205 0 00-.204.205c0 .113-.234.43-.52.705-.286.275-.52.567-.52.65 0 .083-.234.375-.52.65-.286.275-.52.567-.52.648 0 .082-.293.434-.65.782-.357.348-.65.701-.65.784 0 .084-.175.316-.39.516-.214.2-.39.458-.39.572 0 .114-.059.208-.13.208-.072 0-.13.093-.13.208 0 .114-.176.372-.39.572-.215.2-.39.458-.39.572 0 .114-.059.208-.13.208-.072 0-.13.093-.13.208 0 .114-.175.372-.39.572-.214.2-.39.458-.39.572 0 .114-.059.208-.13.208-.072 0-.13.093-.13.208 0 .114-.176.372-.39.572-.215.2-.39.458-.39.572 0 .115-.059.208-.13.208-.072 0-.13.152-.13.338 0 .208-.15.478-.39.702-.24.224-.39.494-.39.702 0 .186-.059.338-.13.338-.071 0-.13.117-.13.26 0 .143-.058.26-.13.26-.072 0-.13.104-.13.231s-.117.316-.26.419c-.143.103-.26.292-.26.419s-.058.231-.13.231c-.071 0-.13.175-.13.39 0 .214-.058.39-.13.39-.071 0-.13.104-.13.231 0 .128-.117.316-.26.419-.153.11-.26.337-.26.549 0 .198-.059.361-.13.361-.071 0-.13.163-.13.361 0 .212-.107.439-.26.549-.143.103-.26.291-.26.419 0 .127-.059.231-.13.231-.072 0-.13.175-.13.39 0 .215-.059.39-.13.39-.071 0-.13.221-.13.491 0 .342-.079.548-.26.679-.143.103-.26.292-.26.419s-.059.231-.13.231c-.072 0-.13.175-.13.39 0 .214-.058.39-.13.39-.071 0-.13.293-.13.65 0 .357-.058.65-.13.65-.071 0-.13.117-.13.26 0 .143-.058.26-.13.26-.071 0-.13.117-.13.26 0 .143-.058.26-.13.26-.072 0-.13.234-.13.52 0 .286-.058.52-.13.52-.071 0-.13.293-.13.65 0 .358-.058.65-.13.65-.072 0-.13.117-.13.26 0 .143-.058.26-.13.26-.071 0-.13.175-.13.39 0 .215-.058.39-.13.39-.071 0-.13.292-.13.65 0 .358-.058.65-.13.65-.072 0-.13.347-.13.78 0 .433-.058.78-.13.78-.071 0-.13.292-.13.65 0 .358-.058.65-.13.65-.071 0-.13.175-.13.39 0 .215-.058.39-.13.39-.076 0-.13.433-.13 1.04s-.054 1.04-.13 1.04c-.08 0-.13.693-.13 1.82 0 1.127-.05 1.82-.13 1.82s-.13.737-.13 1.95S.21 63.7.13 63.7c-.078 0-.13.52-.13 1.3s.052 1.3.13 1.3c.08 0 .13.737.13 1.95s.05 1.95.13 1.95.13.693.13 1.82c0 1.127.05 1.82.13 1.82.076 0 .13.433.13 1.04s.054 1.04.13 1.04c.072 0 .13.175.13.39 0 .215.058.39.13.39.072 0 .13.293.13.65 0 .358.058.65.13.65.072 0 .13.347.13.78 0 .433.058.78.13.78.072 0 .13.293.13.65 0 .358.058.65.13.65.072 0 .13.175.13.39 0 .215.058.39.13.39.071 0 .13.117.13.26 0 .143.058.26.13.26.071 0 .13.293.13.65 0 .358.058.65.13.65.071 0 .13.234.13.52 0 .286.058.52.13.52.071 0 .13.117.13.26 0 .143.058.26.13.26.071 0 .13.117.13.26 0 .143.058.26.13.26.072 0 .13.292.13.65 0 .358.058.65.13.65.071 0 .13.175.13.39 0 .215.058.39.13.39.071 0 .13.104.13.231s.117.316.26.419c.181.13.26.337.26.679 0 .27.059.491.13.491.072 0 .13.175.13.39 0 .215.058.39.13.39.071 0 .13.104.13.231 0 .128.117.316.26.419.153.11.26.337.26.549 0 .198.059.361.13.361.072 0 .13.163.13.361 0 .212.107.439.26.549.143.103.26.291.26.419 0 .127.059.231.13.231.072 0 .13.175.13.39 0 .215.059.39.13.39.072 0 .13.104.13.231s.117.316.26.419c.143.103.26.291.26.419 0 .127.058.231.13.231.072 0 .13.117.13.26 0 .143.059.26.13.26.072 0 .13.152.13.338 0 .208.15.478.39.702.24.224.39.494.39.702 0 .186.059.338.13.338.071 0 .13.094.13.208 0 .114.175.372.39.572.214.2.39.458.39.572 0 .115.058.208.13.208.072 0 .13.094.13.208 0 .114.175.372.39.572.215.2.39.458.39.572 0 .115.059.208.13.208.071 0 .13.093.13.208 0 .114.175.372.39.572.214.2.39.458.39.572 0 .115.058.208.13.208.072 0 .13.093.13.208 0 .114.175.372.39.572.215.2.39.432.39.516 0 .083.293.436.65.784.357.348.65.7.65.782 0 .081.234.373.52.648.286.275.52.567.52.65 0 .083.234.375.52.65.286.275.52.592.52.705 0 .113.092.205.204.205.237 0 .576.304.576.517 0 .216.608.783.84.783a.2.2 0 01.2.197c0 .257 1.626 1.883 1.883 1.883a.2.2 0 01.197.201c0 .231.567.839.783.839.213 0 .517.339.517.576 0 .112.092.204.205.204.113 0 .43.234.705.52.275.286.567.52.65.52.083 0 .375.234.65.52.275.286.567.52.648.52.082 0 .434.292.782.65.348.357.701.65.784.65.084 0 .316.175.516.39.2.214.458.39.572.39.114 0 .208.058.208.13 0 .071.093.13.208.13.114 0 .372.175.572.39.2.214.458.39.572.39.114 0 .208.058.208.13 0 .071.093.13.208.13.114 0 .372.175.572.39.2.214.458.39.572.39.114 0 .208.058.208.13 0 .071.104.13.231.13.128 0 .316.117.419.26.103.143.279.26.39.26.111 0 .287.117.39.26.103.143.327.26.497.26.175 0 .466.168.673.39.224.24.494.39.702.39.186 0 .338.058.338.13 0 .071.117.13.26.13.143 0 .26.058.26.13 0 .071.104.13.231.13s.316.117.419.26c.103.143.292.26.419.26s.231.058.231.13c0 .071.175.13.39.13.214 0 .39.058.39.13 0 .071.104.13.231.13.128 0 .316.117.419.26.11.153.337.26.549.26.198 0 .361.058.361.13 0 .071.163.13.361.13.212 0 .439.107.549.26.103.143.291.26.419.26.127 0 .231.058.231.13 0 .071.175.13.39.13.215 0 .39.058.39.13 0 .071.234.13.52.13.286 0 .52.058.52.13 0 .071.104.13.231.13s.316.117.419.26c.11.153.337.26.549.26.198 0 .361.058.361.13 0 .071.293.13.65.13.357 0 .65.058.65.13 0 .071.117.13.26.13.143 0 .26.058.26.13 0 .071.117.13.26.13.143 0 .26.058.26.13 0 .071.234.13.52.13.286 0 .52.058.52.13 0 .071.293.13.65.13.358 0 .65.058.65.13 0 .071.175.13.39.13.215 0 .39.058.39.13 0 .071.117.13.26.13.143 0 .26.058.26.13 0 .071.292.13.65.13.358 0 .65.058.65.13 0 .074.39.13.91.13s.91.056.91.13c0 .071.234.13.52.13.286 0 .52.058.52.13 0 .071.175.13.39.13.215 0 .39.058.39.13 0 .076.433.13 1.04.13s1.04.054 1.04.13c0 .08.693.13 1.82.13 1.127 0 1.82.05 1.82.13 0 .081.78.13 2.08.13s2.08.049 2.08.13c0 .076.433.13 1.04.13s1.04-.054 1.04-.13c0-.081.78-.13 2.08-.13s2.08-.049 2.08-.13c0-.08.693-.13 1.82-.13 1.127 0 1.82-.05 1.82-.13 0-.076.433-.13 1.04-.13s1.04-.054 1.04-.13c0-.072.175-.13.39-.13.215 0 .39-.059.39-.13 0-.072.234-.13.52-.13.286 0 .52-.059.52-.13 0-.074.39-.13.91-.13s.91-.056.91-.13c0-.072.293-.13.65-.13.358 0 .65-.059.65-.13 0-.072.117-.13.26-.13.143 0 .26-.059.26-.13 0-.072.175-.13.39-.13.215 0 .39-.059.39-.13 0-.072.293-.13.65-.13.358 0 .65-.059.65-.13 0-.072.234-.13.52-.13.286 0 .52-.059.52-.13 0-.072.117-.13.26-.13.143 0 .26-.059.26-.13 0-.072.117-.13.26-.13.143 0 .26-.059.26-.13 0-.072.292-.13.65-.13.358 0 .65-.059.65-.13 0-.072.163-.13.361-.13.212 0 .439-.107.549-.26.103-.143.291-.26.419-.26.127 0 .231-.059.231-.13 0-.072.234-.13.52-.13.286 0 .52-.059.52-.13 0-.072.163-.13.361-.13.212 0 .439-.107.549-.26.103-.143.291-.26.419-.26.127 0 .231-.059.231-.13 0-.072.175-.13.39-.13.215 0 .39-.059.39-.13 0-.072.163-.13.361-.13.212 0 .439-.107.549-.26.103-.143.291-.26.419-.26.127 0 .231-.059.231-.13 0-.072.175-.13.39-.13.215 0 .39-.059.39-.13 0-.072.104-.13.231-.13s.316-.117.419-.26c.103-.143.291-.26.419-.26.127 0 .231-.059.231-.13 0-.072.117-.13.26-.13.143 0 .26-.059.26-.13 0-.072.152-.13.338-.13.208 0 .478-.15.702-.39.207-.222.498-.39.673-.39.17 0 .394-.117.497-.26.103-.143.279-.26.39-.26.111 0 .287-.117.39-.26.103-.143.291-.26.419-.26.127 0 .231-.059.231-.13 0-.072.094-.13.208-.13.114 0 .372-.176.572-.39.2-.215.458-.39.572-.39.115 0 .208-.059.208-.13 0-.072.093-.13.208-.13.114 0 .372-.176.572-.39.2-.215.458-.39.572-.39.115 0 .208-.059.208-.13 0-.072.093-.13.208-.13.114 0 .372-.176.572-.39.2-.215.432-.39.516-.39.083 0 .436-.293.784-.65.348-.358.7-.65.782-.65.081 0 .373-.234.648-.52.275-.286.567-.52.65-.52.083 0 .375-.234.65-.52.275-.286.592-.52.705-.52.113 0 .205-.09.205-.201 0-.231.567-.839.783-.839.213 0 .517-.339.517-.576 0-.112.089-.204.197-.204.257 0 1.883-1.626 1.883-1.883a.2.2 0 01.201-.197c.231 0 .839-.567.839-.783 0-.213.339-.517.576-.517a.205.205 0 00.204-.205c0-.113.234-.43.52-.705.286-.275.52-.567.52-.65 0-.083.234-.375.52-.65.286-.275.52-.567.52-.648 0-.082.292-.434.65-.782.357-.348.65-.701.65-.784 0-.084.175-.316.39-.516.214-.2.39-.458.39-.572 0-.115.058-.208.13-.208.071 0 .13-.093.13-.208 0-.114.175-.372.39-.572.214-.2.39-.458.39-.572 0-.115.058-.208.13-.208.071 0 .13-.093.13-.208 0-.114.175-.372.39-.572.214-.2.39-.458.39-.572 0-.114.058-.208.13-.208.071 0 .13-.104.13-.231s.117-.316.26-.419c.143-.103.26-.279.26-.39 0-.111.117-.287.26-.39a.694.694 0 00.26-.497c0-.175.168-.466.39-.673.24-.224.39-.494.39-.702 0-.186.058-.338.13-.338.071 0 .13-.117.13-.26 0-.143.058-.26.13-.26.071 0 .13-.104.13-.231s.117-.316.26-.419c.143-.103.26-.291.26-.419 0-.127.058-.231.13-.231.071 0 .13-.175.13-.39 0-.215.058-.39.13-.39.071 0 .13-.104.13-.231s.117-.316.26-.419c.153-.11.26-.337.26-.549 0-.198.058-.361.13-.361.071 0 .13-.163.13-.361 0-.212.107-.439.26-.549.143-.103.26-.291.26-.419 0-.127.058-.231.13-.231.071 0 .13-.175.13-.39 0-.215.058-.39.13-.39.071 0 .13-.221.13-.491 0-.342.079-.549.26-.679.143-.103.26-.291.26-.419 0-.127.058-.231.13-.231.071 0 .13-.175.13-.39 0-.215.058-.39.13-.39.071 0 .13-.293.13-.65 0-.358.058-.65.13-.65.071 0 .13-.117.13-.26 0-.143.058-.26.13-.26.071 0 .13-.117.13-.26 0-.143.058-.26.13-.26.071 0 .13-.234.13-.52 0-.286.058-.52.13-.52.071 0 .13-.292.13-.65 0-.358.058-.65.13-.65.071 0 .13-.175.13-.39 0-.215.058-.39.13-.39.071 0 .13-.117.13-.26 0-.143.058-.26.13-.26.071 0 .13-.293.13-.65 0-.357.058-.65.13-.65.074 0 .13-.39.13-.91s.056-.91.13-.91c.071 0 .13-.234.13-.52 0-.286.058-.52.13-.52.071 0 .13-.175.13-.39 0-.215.058-.39.13-.39.076 0 .13-.433.13-1.04s.054-1.04.13-1.04c.08 0 .13-.693.13-1.82 0-1.127.05-1.82.13-1.82.081 0 .13-.78.13-2.08s.049-2.08.13-2.08c.076 0 .13-.433.13-1.04s-.054-1.04-.13-1.04c-.081 0-.13-.78-.13-2.08s-.049-2.08-.13-2.08c-.08 0-.13-.693-.13-1.82 0-1.127-.05-1.82-.13-1.82-.076 0-.13-.433-.13-1.04s-.054-1.04-.13-1.04c-.072 0-.13-.175-.13-.39 0-.215-.059-.39-.13-.39-.072 0-.13-.234-.13-.52 0-.286-.059-.52-.13-.52-.074 0-.13-.39-.13-.91s-.056-.91-.13-.91c-.072 0-.13-.292-.13-.65 0-.358-.059-.65-.13-.65-.072 0-.13-.117-.13-.26 0-.143-.059-.26-.13-.26-.072 0-.13-.175-.13-.39 0-.214-.059-.39-.13-.39-.072 0-.13-.293-.13-.65 0-.357-.059-.65-.13-.65-.072 0-.13-.234-.13-.52 0-.286-.059-.52-.13-.52-.072 0-.13-.117-.13-.26 0-.143-.059-.26-.13-.26-.072 0-.13-.117-.13-.26 0-.143-.059-.26-.13-.26-.072 0-.13-.293-.13-.65 0-.358-.059-.65-.13-.65-.072 0-.13-.175-.13-.39 0-.215-.059-.39-.13-.39-.072 0-.13-.104-.13-.231s-.117-.316-.26-.419c-.181-.13-.26-.337-.26-.679 0-.27-.059-.491-.13-.491-.072 0-.13-.175-.13-.39 0-.215-.059-.39-.13-.39-.072 0-.13-.104-.13-.231s-.117-.316-.26-.419c-.153-.11-.26-.337-.26-.549 0-.198-.059-.361-.13-.361-.072 0-.13-.163-.13-.361 0-.212-.107-.439-.26-.549-.143-.103-.26-.291-.26-.419 0-.127-.059-.231-.13-.231-.072 0-.13-.175-.13-.39 0-.215-.059-.39-.13-.39-.072 0-.13-.104-.13-.231s-.117-.316-.26-.419c-.143-.103-.26-.291-.26-.419 0-.127-.059-.231-.13-.231-.072 0-.13-.117-.13-.26 0-.143-.059-.26-.13-.26-.072 0-.13-.152-.13-.338 0-.208-.15-.478-.39-.702-.24-.224-.39-.494-.39-.702 0-.186-.059-.338-.13-.338-.072 0-.13-.093-.13-.208 0-.114-.176-.372-.39-.572-.215-.2-.39-.458-.39-.572 0-.114-.059-.208-.13-.208-.072 0-.13-.094-.13-.208 0-.114-.176-.372-.39-.572-.215-.2-.39-.458-.39-.572 0-.115-.059-.208-.13-.208-.072 0-.13-.093-.13-.208 0-.114-.176-.372-.39-.572-.215-.2-.39-.458-.39-.572 0-.114-.059-.208-.13-.208-.072 0-.13-.094-.13-.208 0-.114-.176-.372-.39-.572-.215-.2-.39-.432-.39-.516 0-.083-.293-.436-.65-.784-.358-.348-.65-.7-.65-.782 0-.081-.234-.373-.52-.648-.286-.275-.52-.567-.52-.65 0-.083-.234-.375-.52-.65-.286-.275-.52-.592-.52-.705a.205.205 0 00-.204-.205c-.237 0-.576-.304-.576-.517 0-.215-.608-.783-.839-.783a.2.2 0 01-.201-.198c0-.256-1.626-1.882-1.883-1.882a.2.2 0 01-.197-.2c0-.232-.567-.84-.783-.84-.213 0-.517-.34-.517-.576a.205.205 0 00-.205-.204c-.113 0-.43-.234-.705-.52-.275-.286-.567-.52-.65-.52-.083 0-.375-.234-.65-.52-.275-.286-.567-.52-.648-.52-.082 0-.434-.293-.782-.65-.348-.357-.701-.65-.784-.65-.084 0-.316-.175-.516-.39-.2-.214-.458-.39-.572-.39-.115 0-.208-.059-.208-.13 0-.072-.093-.13-.208-.13-.114 0-.372-.176-.572-.39-.2-.215-.458-.39-.572-.39-.115 0-.208-.059-.208-.13 0-.072-.093-.13-.208-.13-.114 0-.372-.175-.572-.39-.2-.214-.458-.39-.572-.39-.114 0-.208-.059-.208-.13 0-.072-.093-.13-.208-.13-.114 0-.372-.176-.572-.39-.2-.215-.458-.39-.572-.39-.114 0-.208-.059-.208-.13 0-.072-.152-.13-.338-.13-.208 0-.478-.15-.702-.39-.224-.24-.494-.39-.702-.39-.186 0-.338-.059-.338-.13 0-.071-.117-.13-.26-.13-.143 0-.26-.058-.26-.13 0-.072-.104-.13-.231-.13s-.316-.117-.419-.26c-.103-.143-.291-.26-.419-.26-.127 0-.231-.058-.231-.13 0-.071-.175-.13-.39-.13-.215 0-.39-.058-.39-.13 0-.071-.104-.13-.231-.13s-.316-.117-.419-.26c-.11-.153-.337-.26-.549-.26-.198 0-.361-.059-.361-.13 0-.071-.163-.13-.361-.13-.212 0-.439-.107-.549-.26-.103-.143-.291-.26-.419-.26-.127 0-.231-.059-.231-.13 0-.072-.175-.13-.39-.13-.215 0-.39-.059-.39-.13 0-.071-.175-.13-.39-.13-.215 0-.39-.058-.39-.13 0-.071-.117-.13-.26-.13-.143 0-.26-.058-.26-.13 0-.072-.117-.13-.26-.13-.143 0-.26-.059-.26-.13 0-.072-.175-.13-.39-.13-.215 0-.39-.058-.39-.13 0-.071-.293-.13-.65-.13-.358 0-.65-.058-.65-.13 0-.071-.117-.13-.26-.13-.143 0-.26-.058-.26-.13 0-.071-.117-.13-.26-.13-.143 0-.26-.058-.26-.13 0-.072-.175-.13-.39-.13-.215 0-.39-.058-.39-.13 0-.072-.347-.13-.78-.13-.433 0-.78-.058-.78-.13 0-.072-.175-.13-.39-.13-.215 0-.39-.058-.39-.13 0-.071-.117-.13-.26-.13-.143 0-.26-.058-.26-.13 0-.071-.293-.13-.65-.13-.357 0-.65-.058-.65-.13 0-.074-.39-.13-.91-.13s-.91-.056-.91-.13c0-.071-.234-.13-.52-.13-.286 0-.52-.058-.52-.13 0-.071-.175-.13-.39-.13-.215 0-.39-.058-.39-.13 0-.076-.433-.13-1.04-.13S73.84.726 73.84.65c0-.08-.65-.13-1.69-.13S70.46.47 70.46.39c0-.081-.78-.13-2.08-.13S66.3.211 66.3.13C66.3.052 65.78 0 65 0s-1.3.052-1.3.13zm4.68 5.2c0 .08.693.13 1.82.13 1.127 0 1.82.05 1.82.13 0 .079.563.13 1.43.13s1.43.051 1.43.13c0 .072.234.13.52.13.286 0 .52.058.52.13 0 .071.175.13.39.13.215 0 .39.058.39.13 0 .072.347.13.78.13.433 0 .78.058.78.13 0 .072.347.13.78.13.433 0 .78.058.78.13 0 .072.176.13.39.13.215 0 .39.059.39.13 0 .071.117.13.26.13.143 0 .26.058.26.13 0 .071.234.13.52.13.286 0 .52.058.52.13 0 .072.293.13.65.13.358 0 .65.059.65.13 0 .072.117.13.26.13.143 0 .26.058.26.13 0 .072.117.13.26.13.143 0 .26.059.26.13 0 .072.234.13.52.13.286 0 .52.059.52.13 0 .071.175.13.39.13.214 0 .39.059.39.13 0 .071.117.13.26.13.143 0 .26.059.26.13 0 .072.117.13.26.13.143 0 .26.059.26.13 0 .072.175.13.39.13.215 0 .39.059.39.13 0 .072.175.13.39.13.215 0 .39.058.39.13 0 .072.104.13.231.13s.316.117.419.26c.11.153.337.26.549.26.198 0 .361.059.361.13 0 .072.163.13.361.13.212 0 .439.107.549.26.103.143.291.26.419.26.127 0 .231.059.231.13 0 .072.117.13.26.13.143 0 .26.059.26.13 0 .072.152.13.338.13.208 0 .478.15.702.39.2.215.458.39.572.39.115 0 .208.059.208.13 0 .072.152.13.338.13.208 0 .478.15.702.39.2.214.458.39.572.39.114 0 .208.059.208.13 0 .072.117.13.26.13.143 0 .26.059.26.13 0 .072.094.13.208.13.114 0 .372.175.572.39.2.215.458.39.572.39.114 0 .208.059.208.13 0 .071.094.13.208.13.114 0 .372.175.572.39.2.214.434.39.52.39.086 0 .32.175.52.39.2.214.458.39.572.39.115 0 .208.059.208.13 0 .072.092.13.204.13.263 0 .576.313.576.576 0 .117.11.204.26.204.143 0 .26.058.26.13 0 .072.092.13.203.13.112 0 .489.293.837.65.348.357.725.65.837.65.116 0 .203.11.203.26 0 .147.087.26.2.26.11 0 .722.527 1.36 1.17.638.643 1.225 1.17 1.304 1.17.187 0 .516.33.516.516 0 .079.526.666 1.17 1.304.643.638 1.17 1.25 1.17 1.36 0 .113.113.2.26.2.152 0 .26.087.26.208 0 .114.175.372.39.572.214.2.39.458.39.572 0 .121.108.208.26.208.173 0 .26.087.26.26 0 .143.058.26.13.26.071 0 .13.092.13.204 0 .263.313.576.576.576.117 0 .204.11.204.26 0 .143.058.26.13.26.071 0 .13.093.13.208 0 .114.175.372.39.572.214.2.39.458.39.572 0 .114.058.208.13.208.071 0 .13.093.13.208 0 .114.175.372.39.572.214.2.39.458.39.572 0 .115.058.208.13.208.071 0 .13.117.13.26 0 .173.087.26.26.26.173 0 .26.087.26.26 0 .143.058.26.13.26.071 0 .13.117.13.26 0 .143.058.26.13.26.071 0 .13.094.13.208 0 .114.175.372.39.572.24.224.39.494.39.702 0 .186.058.338.13.338.071 0 .13.104.13.231s.117.316.26.419c.143.103.26.291.26.419 0 .127.058.231.13.231.071 0 .13.117.13.26 0 .143.058.26.13.26.071 0 .13.152.13.338 0 .208.15.478.39.702.24.224.39.494.39.702 0 .186.058.338.13.338.071 0 .13.163.13.361 0 .212.107.439.26.549.143.103.26.291.26.419 0 .127.058.231.13.231.071 0 .13.175.13.39 0 .215.058.39.13.39.071 0 .13.221.13.491 0 .342.079.549.26.679.143.103.26.291.26.419 0 .127.058.231.13.231.071 0 .13.234.13.52 0 .286.058.52.13.52.071 0 .13.175.13.39 0 .215.058.39.13.39.071 0 .13.117.13.26 0 .143.058.26.13.26.071 0 .13.117.13.26 0 .143.058.26.13.26.071 0 .13.293.13.65 0 .358.058.65.13.65.071 0 .13.234.13.52 0 .286.058.52.13.52.071 0 .13.117.13.26 0 .143.058.26.13.26.071 0 .13.175.13.39 0 .215.058.39.13.39.072 0 .13.347.13.78 0 .433.058.78.13.78.072 0 .13.347.13.78 0 .433.058.78.13.78.071 0 .13.175.13.39 0 .215.058.39.13.39.071 0 .13.234.13.52 0 .286.058.52.13.52.079 0 .13.563.13 1.43s.051 1.43.13 1.43c.08 0 .13.65.13 1.69s.05 1.69.13 1.69c.084 0 .13 1.3.13 3.64s-.046 3.64-.13 3.64c-.08 0-.13.65-.13 1.69s-.05 1.69-.13 1.69c-.079 0-.13.563-.13 1.43s-.051 1.43-.13 1.43c-.072 0-.13.234-.13.52 0 .286-.059.52-.13.52-.072 0-.13.175-.13.39 0 .215-.059.39-.13.39-.072 0-.13.347-.13.78 0 .433-.058.78-.13.78-.072 0-.13.347-.13.78 0 .433-.058.78-.13.78-.072 0-.13.176-.13.39 0 .215-.059.39-.13.39-.072 0-.13.117-.13.26 0 .143-.059.26-.13.26-.072 0-.13.234-.13.52 0 .286-.059.52-.13.52-.072 0-.13.293-.13.65 0 .358-.059.65-.13.65-.072 0-.13.117-.13.26 0 .143-.059.26-.13.26-.072 0-.13.117-.13.26 0 .143-.059.26-.13.26-.072 0-.13.175-.13.39 0 .215-.059.39-.13.39-.072 0-.13.234-.13.52 0 .286-.059.52-.13.52-.072 0-.13.104-.13.231s-.117.316-.26.419c-.181.13-.26.337-.26.679 0 .27-.059.491-.13.491-.072 0-.13.175-.13.39 0 .215-.059.39-.13.39-.072 0-.13.104-.13.231s-.117.316-.26.419c-.153.11-.26.337-.26.549 0 .198-.059.361-.13.361-.072 0-.13.152-.13.338 0 .208-.15.478-.39.702-.24.224-.39.494-.39.702 0 .186-.059.338-.13.338-.072 0-.13.117-.13.26 0 .143-.059.26-.13.26-.072 0-.13.104-.13.231s-.117.316-.26.419c-.143.103-.26.291-.26.419 0 .127-.059.231-.13.231-.072 0-.13.152-.13.338 0 .208-.15.478-.39.702-.215.2-.39.458-.39.572 0 .114-.059.208-.13.208-.072 0-.13.117-.13.26 0 .143-.059.26-.13.26-.072 0-.13.117-.13.26 0 .173-.087.26-.26.26-.173 0-.26.087-.26.26 0 .143-.059.26-.13.26-.072 0-.13.093-.13.208 0 .114-.176.372-.39.572-.215.2-.39.458-.39.572 0 .115-.059.208-.13.208-.072 0-.13.094-.13.208 0 .114-.176.372-.39.572-.215.2-.39.458-.39.572 0 .115-.059.208-.13.208-.072 0-.13.117-.13.26 0 .15-.087.26-.204.26-.263 0-.576.313-.576.576 0 .112-.059.204-.13.204-.072 0-.13.117-.13.26 0 .173-.087.26-.26.26-.149 0-.26.087-.26.203 0 .112-.293.489-.65.837-.358.348-.65.698-.65.776 0 .079-.527.666-1.17 1.304-.644.638-1.17 1.225-1.17 1.304 0 .187-.329.516-.516.516-.079 0-.666.526-1.304 1.17-.638.643-1.25 1.17-1.36 1.17-.113 0-.2.113-.2.26 0 .149-.087.26-.203.26-.112 0-.489.292-.837.65-.348.357-.725.65-.837.65-.111 0-.203.058-.203.13 0 .071-.092.13-.205.13-.113 0-.43.234-.705.52-.275.286-.568.52-.653.52-.084 0-.317.175-.517.39-.2.214-.434.39-.52.39-.086 0-.32.175-.52.39-.2.214-.458.39-.572.39-.114 0-.208.058-.208.13 0 .071-.117.13-.26.13-.143 0-.26.058-.26.13 0 .071-.117.13-.26.13-.173 0-.26.087-.26.26 0 .173-.087.26-.26.26-.143 0-.26.058-.26.13 0 .071-.117.13-.26.13-.143 0-.26.058-.26.13 0 .071-.094.13-.208.13-.114 0-.372.175-.572.39-.224.24-.494.39-.702.39-.186 0-.338.058-.338.13 0 .071-.104.13-.231.13s-.316.117-.419.26c-.103.143-.291.26-.419.26-.127 0-.231.058-.231.13 0 .071-.117.13-.26.13-.143 0-.26.058-.26.13 0 .071-.152.13-.338.13-.208 0-.478.15-.702.39-.224.24-.494.39-.702.39-.186 0-.338.058-.338.13 0 .071-.163.13-.361.13-.212 0-.439.107-.549.26-.103.143-.291.26-.419.26-.127 0-.231.058-.231.13 0 .071-.175.13-.39.13-.215 0-.39.058-.39.13 0 .071-.175.13-.39.13-.215 0-.39.058-.39.13 0 .071-.117.13-.26.13-.143 0-.26.058-.26.13 0 .071-.117.13-.26.13-.143 0-.26.058-.26.13 0 .071-.234.13-.52.13-.286 0-.52.058-.52.13 0 .071-.175.13-.39.13-.215 0-.39.058-.39.13 0 .071-.117.13-.26.13-.143 0-.26.058-.26.13 0 .071-.117.13-.26.13-.143 0-.26.058-.26.13 0 .071-.292.13-.65.13-.358 0-.65.058-.65.13 0 .071-.234.13-.52.13-.286 0-.52.058-.52.13 0 .071-.117.13-.26.13-.143 0-.26.058-.26.13 0 .071-.175.13-.39.13-.214 0-.39.058-.39.13 0 .072-.347.13-.78.13-.433 0-.78.058-.78.13 0 .072-.347.13-.78.13-.433 0-.78.058-.78.13 0 .071-.175.13-.39.13-.215 0-.39.058-.39.13 0 .071-.234.13-.52.13-.286 0-.52.058-.52.13 0 .079-.563.13-1.43.13s-1.43.051-1.43.13c0 .08-.693.13-1.82.13-1.127 0-1.82.05-1.82.13 0 .083-1.213.13-3.38.13s-3.38-.047-3.38-.13c0-.08-.693-.13-1.82-.13-1.127 0-1.82-.05-1.82-.13 0-.078-.52-.13-1.3-.13s-1.3-.052-1.3-.13c0-.072-.293-.13-.65-.13-.357 0-.65-.059-.65-.13 0-.072-.175-.13-.39-.13-.215 0-.39-.059-.39-.13 0-.072-.347-.13-.78-.13-.433 0-.78-.058-.78-.13 0-.072-.347-.13-.78-.13-.433 0-.78-.058-.78-.13 0-.072-.175-.13-.39-.13-.215 0-.39-.059-.39-.13 0-.072-.117-.13-.26-.13-.143 0-.26-.059-.26-.13 0-.072-.234-.13-.52-.13-.286 0-.52-.059-.52-.13 0-.072-.293-.13-.65-.13-.357 0-.65-.059-.65-.13 0-.072-.117-.13-.26-.13-.143 0-.26-.059-.26-.13 0-.072-.117-.13-.26-.13-.143 0-.26-.059-.26-.13 0-.072-.175-.13-.39-.13-.215 0-.39-.059-.39-.13 0-.072-.234-.13-.52-.13-.286 0-.52-.059-.52-.13 0-.072-.117-.13-.26-.13-.143 0-.26-.059-.26-.13 0-.072-.117-.13-.26-.13-.143 0-.26-.059-.26-.13 0-.072-.175-.13-.39-.13-.215 0-.39-.059-.39-.13 0-.072-.175-.13-.39-.13-.215 0-.39-.059-.39-.13 0-.072-.104-.13-.231-.13s-.316-.117-.419-.26c-.11-.153-.337-.26-.549-.26-.198 0-.361-.059-.361-.13 0-.072-.163-.13-.361-.13-.212 0-.439-.107-.549-.26-.103-.143-.291-.26-.419-.26-.127 0-.231-.059-.231-.13 0-.072-.117-.13-.26-.13-.143 0-.26-.059-.26-.13 0-.072-.152-.13-.338-.13-.208 0-.478-.15-.702-.39-.2-.215-.458-.39-.572-.39-.114 0-.208-.059-.208-.13 0-.072-.152-.13-.338-.13-.208 0-.478-.15-.702-.39-.2-.215-.458-.39-.572-.39-.114 0-.208-.059-.208-.13 0-.072-.117-.13-.26-.13-.143 0-.26-.059-.26-.13 0-.072-.117-.13-.26-.13-.173 0-.26-.087-.26-.26 0-.173-.087-.26-.26-.26-.143 0-.26-.059-.26-.13 0-.072-.117-.13-.26-.13-.143 0-.26-.059-.26-.13 0-.072-.093-.13-.208-.13-.114 0-.372-.176-.572-.39-.2-.215-.434-.39-.52-.39-.086 0-.32-.176-.52-.39-.2-.215-.458-.39-.572-.39-.114 0-.208-.059-.208-.13 0-.072-.092-.13-.204-.13-.263 0-.576-.313-.576-.576 0-.117-.11-.204-.26-.204-.143 0-.26-.059-.26-.13 0-.072-.091-.13-.204-.13-.111 0-.488-.293-.836-.65-.348-.358-.725-.65-.837-.65-.116 0-.203-.111-.203-.26 0-.147-.087-.26-.2-.26-.11 0-.722-.527-1.36-1.17-.638-.644-1.225-1.17-1.304-1.17-.187 0-.516-.329-.516-.516 0-.079-.526-.666-1.17-1.304-.643-.638-1.17-1.25-1.17-1.36 0-.113-.113-.2-.26-.2-.15 0-.26-.087-.26-.203 0-.112-.293-.489-.65-.837-.358-.348-.65-.725-.65-.837 0-.111-.058-.203-.13-.203-.072 0-.13-.117-.13-.26 0-.15-.087-.26-.204-.26-.263 0-.576-.313-.576-.576 0-.112-.058-.204-.13-.204-.072 0-.13-.093-.13-.208 0-.114-.175-.372-.39-.572-.215-.2-.39-.458-.39-.572 0-.115-.059-.208-.13-.208-.072 0-.13-.093-.13-.208 0-.114-.175-.372-.39-.572-.215-.2-.39-.458-.39-.572 0-.115-.059-.208-.13-.208-.071 0-.13-.117-.13-.26 0-.15-.087-.26-.204-.26-.307 0-.576-.33-.576-.706 0-.184-.058-.334-.13-.334-.072 0-.13-.094-.13-.208 0-.114-.175-.372-.39-.572-.24-.224-.39-.494-.39-.702 0-.186-.059-.338-.13-.338-.071 0-.13-.104-.13-.231s-.117-.316-.26-.419c-.143-.103-.26-.291-.26-.419 0-.127-.059-.231-.13-.231-.072 0-.13-.117-.13-.26 0-.143-.059-.26-.13-.26-.072 0-.13-.152-.13-.338 0-.208-.15-.478-.39-.702-.24-.224-.39-.494-.39-.702 0-.186-.059-.338-.13-.338-.071 0-.13-.163-.13-.361 0-.212-.107-.439-.26-.549-.143-.103-.26-.291-.26-.419 0-.127-.059-.231-.13-.231-.072 0-.13-.175-.13-.39 0-.215-.059-.39-.13-.39-.072 0-.13-.221-.13-.491 0-.342-.079-.549-.26-.679-.143-.103-.26-.291-.26-.419 0-.127-.059-.231-.13-.231-.072 0-.13-.234-.13-.52 0-.286-.059-.52-.13-.52-.072 0-.13-.175-.13-.39 0-.215-.059-.39-.13-.39-.071 0-.13-.117-.13-.26 0-.143-.059-.26-.13-.26-.072 0-.13-.117-.13-.26 0-.143-.059-.26-.13-.26-.071 0-.13-.292-.13-.65 0-.358-.058-.65-.13-.65-.072 0-.13-.234-.13-.52 0-.286-.059-.52-.13-.52-.072 0-.13-.117-.13-.26 0-.143-.059-.26-.13-.26-.072 0-.13-.175-.13-.39 0-.214-.058-.39-.13-.39-.072 0-.13-.347-.13-.78 0-.433-.058-.78-.13-.78-.072 0-.13-.347-.13-.78 0-.433-.058-.78-.13-.78-.072 0-.13-.175-.13-.39 0-.215-.059-.39-.13-.39-.072 0-.13-.234-.13-.52 0-.286-.059-.52-.13-.52-.079 0-.13-.563-.13-1.43s-.051-1.43-.13-1.43c-.08 0-.13-.693-.13-1.82 0-1.127-.05-1.82-.13-1.82-.083 0-.13-1.257-.13-3.51s.047-3.51.13-3.51c.08 0 .13-.65.13-1.69s.05-1.69.13-1.69c.079 0 .13-.563.13-1.43s.051-1.43.13-1.43c.072 0 .13-.234.13-.52 0-.286.058-.52.13-.52.071 0 .13-.175.13-.39 0-.215.058-.39.13-.39.072 0 .13-.347.13-.78 0-.433.058-.78.13-.78.072 0 .13-.347.13-.78 0-.433.058-.78.13-.78.072 0 .13-.175.13-.39 0-.215.059-.39.13-.39.071 0 .13-.117.13-.26 0-.143.058-.26.13-.26.071 0 .13-.234.13-.52 0-.286.058-.52.13-.52.072 0 .13-.293.13-.65 0-.357.059-.65.13-.65.072 0 .13-.117.13-.26 0-.143.058-.26.13-.26.072 0 .13-.117.13-.26 0-.143.059-.26.13-.26.072 0 .13-.234.13-.52 0-.286.059-.52.13-.52.071 0 .13-.21.13-.468 0-.352.096-.558.39-.832.294-.274.39-.48.39-.832 0-.258.059-.468.13-.468.072 0 .13-.175.13-.39 0-.215.058-.39.13-.39.072 0 .13-.104.13-.231s.117-.316.26-.419c.153-.11.26-.337.26-.549 0-.198.059-.361.13-.361.072 0 .13-.152.13-.338 0-.208.15-.478.39-.702.24-.224.39-.494.39-.702 0-.186.059-.338.13-.338.072 0 .13-.152.13-.338 0-.208.15-.478.39-.702.215-.2.39-.458.39-.572 0-.114.059-.208.13-.208.072 0 .13-.152.13-.338 0-.208.15-.478.39-.702.214-.2.39-.458.39-.572 0-.114.059-.208.13-.208.072 0 .13-.15.13-.334 0-.377.269-.706.576-.706.117 0 .204-.11.204-.26 0-.143.059-.26.13-.26.072 0 .13-.104.13-.231 0-.128.117-.316.26-.419.143-.103.26-.279.26-.39 0-.111.117-.287.26-.39.143-.103.26-.268.26-.367 0-.098.175-.343.39-.543.214-.2.39-.458.39-.572 0-.114.059-.208.13-.208.072 0 .13-.092.13-.204 0-.263.313-.576.576-.576.117 0 .204-.11.204-.26 0-.143.058-.26.13-.26.072 0 .13-.091.13-.204 0-.111.293-.488.65-.836.357-.348.65-.697.65-.776 0-.078.643-.782 1.43-1.564.787-.782 1.43-1.486 1.43-1.565 0-.185.33-.515.515-.515.079 0 .783-.643 1.565-1.43.782-.787 1.486-1.43 1.564-1.43.079 0 .428-.293.776-.65.348-.358.725-.65.836-.65.113 0 .204-.058.204-.13 0-.072.117-.13.26-.13.15 0 .26-.087.26-.204 0-.263.313-.576.576-.576.112 0 .204-.058.204-.13 0-.072.093-.13.208-.13.114 0 .372-.175.572-.39.2-.215.434-.39.52-.39.086 0 .32-.176.52-.39.2-.215.458-.39.572-.39.114 0 .208-.059.208-.13 0-.072.094-.13.208-.13.114 0 .372-.175.572-.39.2-.214.458-.39.572-.39.114 0 .208-.059.208-.13 0-.072.117-.13.26-.13.143 0 .26-.058.26-.13 0-.072.094-.13.208-.13.114 0 .372-.175.572-.39.224-.24.494-.39.702-.39.186 0 .338-.059.338-.13 0-.071.094-.13.208-.13.114 0 .372-.175.572-.39.224-.24.494-.39.702-.39.186 0 .338-.059.338-.13 0-.072.117-.13.26-.13.143 0 .26-.058.26-.13 0-.072.104-.13.231-.13s.316-.117.419-.26c.11-.153.337-.26.549-.26.198 0 .361-.059.361-.13 0-.071.163-.13.361-.13.212 0 .439-.107.549-.26.103-.143.291-.26.419-.26.127 0 .231-.059.231-.13 0-.072.175-.13.39-.13.215 0 .39-.059.39-.13 0-.072.175-.13.39-.13.215 0 .39-.058.39-.13 0-.072.117-.13.26-.13.143 0 .26-.058.26-.13 0-.072.117-.13.26-.13.143 0 .26-.059.26-.13 0-.072.175-.13.39-.13.215 0 .39-.059.39-.13 0-.072.234-.13.52-.13.286 0 .52-.059.52-.13 0-.071.117-.13.26-.13.143 0 .26-.059.26-.13 0-.072.117-.13.26-.13.143 0 .26-.059.26-.13 0-.071.293-.13.65-.13.358 0 .65-.058.65-.13 0-.072.234-.13.52-.13.286 0 .52-.059.52-.13 0-.072.117-.13.26-.13.143 0 .26-.059.26-.13 0-.072.175-.13.39-.13.215 0 .39-.058.39-.13 0-.072.347-.13.78-.13.433 0 .78-.058.78-.13 0-.072.347-.13.78-.13.433 0 .78-.058.78-.13 0-.072.175-.13.39-.13.215 0 .39-.059.39-.13 0-.072.234-.13.52-.13.286 0 .52-.059.52-.13 0-.079.563-.13 1.43-.13s1.43-.051 1.43-.13c0-.08.65-.13 1.69-.13s1.69-.05 1.69-.13c0-.083 1.257-.13 3.51-.13s3.51.047 3.51.13zM44.46 34.06c0 .143-.059.26-.13.26-.072 0-.13.117-.13.26 0 .143.058.26.13.26.086 0 .13 10.14.13 30.16s-.044 30.16-.13 30.16c-.072 0-.13.117-.13.26 0 .143.058.26.13.26.072 0 .13.175.13.39 0 .347.043.39.39.39.215 0 .39.059.39.13 0 .085 2.08.13 5.98.13 3.9 0 5.98-.045 5.98-.13 0-.072.09-.13.2-.13.377 0 .84-.606.84-1.1 0-.253-.059-.46-.13-.46-.085 0-.13-2.58-.13-7.478v-7.479l.582-.581.581-.582h5.919c3.859 0 5.918-.045 5.918-.13 0-.08.693-.13 1.82-.13 1.127 0 1.82-.05 1.82-.13 0-.072.347-.13.78-.13.433 0 .78-.058.78-.13 0-.072.175-.13.39-.13.215 0 .39-.058.39-.13 0-.072.234-.13.52-.13.286 0 .52-.058.52-.13 0-.072.293-.13.65-.13.357 0 .65-.059.65-.13 0-.072.234-.13.52-.13.286 0 .52-.058.52-.13 0-.072.117-.13.26-.13.143 0 .26-.058.26-.13 0-.072.117-.13.26-.13.143 0 .26-.059.26-.13 0-.071.234-.13.52-.13.286 0 .52-.058.52-.13 0-.072.117-.13.26-.13.143 0 .26-.059.26-.13 0-.072.104-.13.231-.13s.316-.117.419-.26c.11-.153.337-.26.549-.26.198 0 .361-.059.361-.13 0-.072.094-.13.208-.13.114 0 .372-.175.572-.39.2-.215.492-.39.647-.39.16 0 .5-.226.783-.52.275-.286.563-.52.641-.52.186 0 2.609-2.423 2.609-2.609 0-.078.234-.366.52-.641.294-.283.52-.622.52-.783 0-.155.175-.447.39-.647.215-.2.39-.458.39-.572 0-.114.058-.208.13-.208.072 0 .13-.221.13-.491 0-.342.079-.549.26-.679.143-.103.26-.291.26-.419 0-.127.058-.231.13-.231.072 0 .13-.175.13-.39 0-.215.059-.39.13-.39.072 0 .13-.293.13-.65 0-.358.058-.65.13-.65.072 0 .13-.175.13-.39 0-.215.058-.39.13-.39.072 0 .13-.175.13-.39 0-.215.059-.39.13-.39.076 0 .13-.433.13-1.04s.054-1.04.13-1.04c.084 0 .13-1.387.13-3.9s-.046-3.9-.13-3.9c-.076 0-.13-.433-.13-1.04s-.054-1.04-.13-1.04c-.072 0-.13-.175-.13-.39 0-.214-.058-.39-.13-.39-.072 0-.13-.175-.13-.39 0-.215-.059-.39-.13-.39-.072 0-.13-.293-.13-.65 0-.357-.058-.65-.13-.65-.072 0-.13-.221-.13-.491 0-.342-.079-.548-.26-.679-.143-.103-.26-.291-.26-.419 0-.127-.058-.231-.13-.231-.072 0-.13-.234-.13-.52 0-.286-.059-.52-.13-.52-.072 0-.13-.093-.13-.208 0-.114-.175-.372-.39-.572-.24-.224-.39-.494-.39-.702 0-.186-.058-.338-.13-.338-.072 0-.13-.093-.13-.208 0-.114-.175-.372-.39-.572-.215-.2-.39-.43-.39-.509 0-.188-2.423-2.611-2.611-2.611-.08 0-.309-.175-.509-.39-.2-.215-.458-.39-.572-.39-.115 0-.208-.059-.208-.13 0-.072-.094-.13-.208-.13-.114 0-.372-.175-.572-.39-.2-.215-.458-.39-.572-.39-.114 0-.208-.059-.208-.13 0-.072-.175-.13-.39-.13-.215 0-.39-.059-.39-.13 0-.072-.104-.13-.231-.13s-.316-.117-.419-.26c-.11-.153-.337-.26-.549-.26-.198 0-.361-.059-.361-.13 0-.072-.234-.13-.52-.13-.286 0-.52-.059-.52-.13 0-.072-.175-.13-.39-.13-.215 0-.39-.058-.39-.13 0-.072-.117-.13-.26-.13-.143 0-.26-.059-.26-.13 0-.072-.234-.13-.52-.13-.286 0-.52-.059-.52-.13 0-.072-.347-.13-.78-.13-.433 0-.78-.058-.78-.13 0-.072-.234-.13-.52-.13-.286 0-.52-.058-.52-.13 0-.072-.176-.13-.39-.13-.215 0-.39-.059-.39-.13 0-.077-.477-.13-1.17-.13s-1.17-.053-1.17-.13c0-.086-4.853-.13-14.3-.13-14.213 0-14.3.002-14.3.26zm24.7 11.31c0 .074.39.13.91.13s.91.056.91.13c0 .072.234.13.52.13.286 0 .52.059.52.13 0 .072.293.13.65.13.358 0 .65.058.65.13 0 .072.234.13.52.13.286 0 .52.059.52.13 0 .072.104.13.231.13.128 0 .316.117.419.26.103.143.291.26.419.26.127 0 .231.058.231.13 0 .072.094.13.208.13.114 0 .372.175.572.39.2.215.431.39.513.39.219 0 .787.606.787.84 0 .11.092.2.204.2.263 0 .576.313.576.576 0 .112.059.204.13.204.072 0 .13.163.13.361 0 .212.107.439.26.549.143.103.26.291.26.419 0 .127.059.231.13.231.074 0 .13.39.13.91s.056.91.13.91c.082 0 .13.91.13 2.47s-.048 2.47-.13 2.47c-.076 0-.13.433-.13 1.04s-.054 1.04-.13 1.04c-.072 0-.13.104-.13.231s-.117.316-.26.419c-.153.11-.26.337-.26.549 0 .198-.058.361-.13.361-.072 0-.13.152-.13.338 0 .208-.15.478-.39.702-.215.2-.39.43-.39.51 0 .22-1.395 1.57-1.622 1.57-.109 0-.198.058-.198.13 0 .072-.104.13-.231.13s-.316.117-.419.26c-.103.143-.291.26-.419.26-.127 0-.231.058-.231.13 0 .072-.234.13-.52.13-.286 0-.52.058-.52.13 0 .072-.175.13-.39.13-.215 0-.39.059-.39.13 0 .071-.175.13-.39.13-.215 0-.39.058-.39.13 0 .072-.292.13-.65.13-.358 0-.65.059-.65.13 0 .085-2.147.13-6.18.13h-6.182l-.319-.32-.319-.318V56.23c0-6.72.044-10.211.13-10.211.072 0 .13-.117.13-.26 0-.202.087-.26.39-.26.215 0 .39-.059.39-.13 0-.084 1.82-.13 5.2-.13s5.2.045 5.2.13z" fill="#202020"/></svg>