<svg width="130" height="48" fill="none" xmlns="http://www.w3.org/2000/svg"><path fill-rule="evenodd" clip-rule="evenodd" d="M14.767.132c0 .073-.297.133-.66.133-.362 0-.659.06-.659.132 0 .073-.237.133-.527.133-.29 0-.527.06-.527.132 0 .073-.238.133-.528.133-.29 0-.527.06-.527.132 0 .073-.119.133-.264.133-.145 0-.264.06-.264.132 0 .073-.118.133-.263.133-.145 0-.264.06-.264.132 0 .073-.178.133-.396.133-.217 0-.395.06-.395.132 0 .073-.106.133-.235.133s-.32.12-.424.265c-.105.146-.283.265-.396.265-.113 0-.29.12-.395.265-.105.146-.296.265-.425.265s-.235.06-.235.132c0 .073-.094.133-.21.133-.116 0-.378.179-.58.397-.204.219-.44.398-.525.398-.086 0-.384.238-.662.53-.279.291-.573.53-.653.53-.204 0-1.325 1.148-1.325 1.358 0 .095-.119.26-.264.364-.145.105-.263.284-.263.398 0 .113-.119.292-.264.397-.145.105-.264.297-.264.427s-.06.236-.132.236c-.072 0-.131.119-.131.265 0 .145-.06.265-.132.265-.073 0-.132.119-.132.265 0 .145-.06.264-.132.264-.073 0-.132.18-.132.398 0 .219-.06.397-.132.397-.072 0-.132.18-.132.398 0 .218-.059.397-.131.397-.073 0-.132.239-.132.53 0 .292-.06.53-.132.53-.073 0-.132.239-.132.53 0 .292-.06.53-.132.53-.073 0-.132.354-.132.795 0 .442-.058.795-.131.795-.079 0-.132.486-.132 1.193 0 .706-.054 1.192-.132 1.192-.086 0-.132 1.634-.132 4.637 0 3.003.046 4.638.132 4.638.077 0 .132.441.132 1.06 0 .618.055 1.06.132 1.06.072 0 .131.238.131.53 0 .29.06.53.132.53.073 0 .132.238.132.53 0 .29.06.53.132.53.072 0 .132.119.132.264 0 .146.06.265.132.265.072 0 .131.18.131.398 0 .218.06.397.132.397.073 0 .132.12.132.265 0 .146.06.265.132.265.073 0 .132.12.132.265 0 .146.06.265.132.265.072 0 .132.106.132.236s.118.322.263.427c.145.105.264.297.264.426 0 .13.06.236.132.236.072 0 .132.106.132.236s.118.322.263.427c.145.105.264.273.264.373 0 .1.178.35.396.554.217.204.395.441.395.527 0 .086.237.385.527.666.29.28.528.574.528.654 0 .188 2.193 2.393 2.381 2.393.08 0 .373.238.651.53.279.291.577.53.662.53.086 0 .322.179.525.397.203.219.464.398.58.398.116 0 .211.06.211.132 0 .073.106.133.234.133.13 0 .32.119.425.265.105.145.296.265.425.265s.234.06.234.132c0 .073.106.133.235.133.13 0 .32.119.425.265.104.145.295.265.424.265.13 0 .235.06.235.132 0 .073.178.133.395.133.218 0 .396.06.396.132 0 .073.119.133.264.133.145 0 .263.06.263.132 0 .073.119.133.264.133.145 0 .264.06.264.132 0 .073.178.133.395.133.218 0 .396.06.396.132 0 .073.119.133.264.133.145 0 .263.06.263.132 0 .073.178.133.396.133.217 0 .395.06.395.132 0 .073.238.133.528.133.29 0 .527.06.527.132 0 .073.178.133.396.133.217 0 .395.06.395.132 0 .073.178.133.396.133.217 0 .395.06.395.132 0 .073.297.133.66.133.362 0 .659.06.659.132 0 .073.296.133.659.133.362 0 .66.06.66.132 0 .074.35.133.79.133.44 0 .791.058.791.132 0 .078.484.133 1.187.133.703 0 1.186.053 1.186.132 0 .081.66.132 1.715.132 1.054 0 1.713.051 1.713.133 0 .085 1.143.132 3.165.132 2.021 0 3.164-.047 3.164-.132 0-.083.791-.133 2.11-.133 1.318 0 2.11-.05 2.11-.132 0-.08.57-.132 1.45-.132.879 0 1.45-.053 1.45-.133 0-.077.44-.133 1.054-.133.616 0 1.055-.055 1.055-.132 0-.076.396-.133.923-.133.528 0 .923-.056.923-.132 0-.074.352-.133.791-.133.44 0 .791-.058.791-.132 0-.074.352-.133.791-.133.44 0 .791-.058.791-.132 0-.073.297-.133.66-.133.362 0 .659-.06.659-.132 0-.073.297-.133.66-.133.362 0 .658-.06.658-.132 0-.073.297-.132.66-.132.362 0 .659-.06.659-.133 0-.073.178-.132.395-.132.218 0 .396-.06.396-.133 0-.073.237-.132.527-.132.29 0 .528-.06.528-.133 0-.073.178-.132.395-.132.218 0 .396-.06.396-.133 0-.073.118-.132.263-.132.145 0 .264-.06.264-.133 0-.073.119-.132.264-.132.145 0 .264-.06.264-.133 0-.073.118-.132.263-.132.145 0 .264-.06.264-.133 0-.073.118-.132.264-.132.145 0 .263-.06.263-.133 0-.073.106-.132.235-.132s.32-.12.425-.265c.104-.146.282-.265.395-.265.113 0 .291-.12.396-.265.104-.146.27-.265.367-.265.097 0 .466-.298.82-.663.352-.364.706-.662.784-.662.185 0 1.852-1.673 1.852-1.859 0-.184.606-.791.79-.791.182 0 1.056.874 1.056 1.057 0 .187 2.198 2.388 2.384 2.388.081 0 .313.179.516.397.204.219.452.398.552.398.1 0 .267.119.371.265.105.145.283.265.396.265.113 0 .291.119.395.265.105.145.296.265.425.265.13 0 .235.06.235.132 0 .073.118.133.263.133.146 0 .264.06.264.132 0 .073.119.133.264.133.145 0 .263.06.263.132 0 .073.12.133.264.133.145 0 .264.06.264.132 0 .073.237.133.527.133.29 0 .528.06.528.132 0 .073.178.133.395.133.218 0 .396.06.396.132 0 .073.178.133.395.133.218 0 .396.06.396.132 0 .073.297.133.66.133.362 0 .658.06.658.132 0 .073.297.133.66.133.362 0 .659.06.659.132 0 .074.351.133.79.133.44 0 .792.058.792.132 0 .073.296.133.66.133.362 0 .658.06.658.132 0 .076.396.133.923.133.528 0 .923.056.923.132 0 .074.352.133.791.133.44 0 .791.058.791.132 0 .077.44.133 1.055.133s1.055.055 1.055.132c0 .08.527.133 1.318.133s1.319.053 1.319.132c0 .082.747.132 1.978.132 1.23 0 1.977.05 1.977.133 0 .085 1.23.132 3.428.132s3.428-.047 3.428-.132c0-.081.659-.133 1.714-.133s1.714-.05 1.714-.132c0-.08.528-.132 1.319-.132.791 0 1.318-.053 1.318-.133 0-.073.297-.133.659-.133.363 0 .66-.06.66-.132 0-.073.296-.133.659-.133.362 0 .659-.06.659-.132 0-.073.297-.133.659-.133.363 0 .659-.06.659-.132 0-.073.178-.133.396-.133.218 0 .396-.06.396-.132 0-.073.237-.133.527-.133.29 0 .527-.06.527-.132 0-.073.178-.133.396-.133.217 0 .395-.06.395-.132 0-.073.178-.132.396-.132.217 0 .395-.06.395-.133 0-.073.178-.132.396-.132.218 0 .396-.06.396-.133 0-.073.118-.132.263-.132.145 0 .264-.06.264-.133 0-.073.119-.132.264-.132.145 0 .263-.06.263-.133 0-.073.178-.132.396-.132.217 0 .395-.06.395-.133 0-.073.119-.132.264-.132.145 0 .264-.06.264-.133 0-.073.118-.132.263-.132.145 0 .264-.06.264-.133 0-.073.106-.132.235-.132s.32-.12.424-.265c.105-.146.296-.265.425-.265s.235-.06.235-.133c0-.073.118-.132.263-.132.145 0 .264-.06.264-.133 0-.073.106-.132.235-.132s.32-.12.424-.265c.105-.146.272-.265.372-.265.1 0 .348-.18.551-.398.203-.218.439-.397.525-.397.085 0 .383-.239.662-.53.278-.292.571-.53.651-.53.19 0 2.117-1.94 2.117-2.131 0-.081.178-.315.396-.519.218-.204.396-.443.396-.53 0-.087.178-.326.395-.53.218-.204.396-.453.396-.554 0-.1.118-.268.263-.373.145-.105.264-.284.264-.398 0-.113.119-.292.264-.397.145-.105.263-.297.263-.427s.06-.236.132-.236c.073 0 .132-.12.132-.265 0-.145.059-.265.132-.265.072 0 .132-.119.132-.265 0-.145.059-.265.132-.265.072 0 .131-.119.131-.265 0-.146.06-.265.132-.265.073 0 .132-.119.132-.265 0-.145.06-.265.132-.265.073 0 .132-.179.132-.397 0-.219.059-.398.132-.398.072 0 .132-.119.132-.265 0-.145.059-.265.131-.265.073 0 .132-.238.132-.53 0-.291.06-.53.132-.53.073 0 .132-.238.132-.53 0-.291.059-.53.132-.53.081 0 .132-.706.132-1.854 0-1.149.05-1.855.131-1.855s.132-.619.132-1.59c0-.972.052-1.59.132-1.59.084 0 .132-1.016.132-2.783 0-1.766-.048-2.782-.132-2.782-.075 0-.132-.397-.132-.927s-.056-.928-.132-.928c-.072 0-.131-.298-.131-.662 0-.365-.06-.663-.132-.663-.073 0-.132-.238-.132-.53 0-.291-.059-.53-.132-.53-.072 0-.132-.238-.132-.53 0-.291-.059-.53-.132-.53-.072 0-.131-.119-.131-.264 0-.146-.06-.266-.132-.266-.073 0-.132-.178-.132-.397 0-.219-.059-.397-.132-.397-.072 0-.132-.12-.132-.265 0-.146-.059-.265-.132-.265-.072 0-.132-.12-.132-.265 0-.146-.059-.265-.131-.265-.073 0-.132-.096-.132-.212 0-.117-.178-.38-.396-.583-.217-.205-.395-.438-.395-.52 0-.19-1.928-2.13-2.118-2.13-.079 0-.372-.239-.651-.53-.279-.292-.587-.53-.686-.53-.098 0-.264-.12-.369-.265-.104-.146-.295-.265-.424-.265s-.235-.06-.235-.133c0-.073-.106-.132-.235-.132s-.32-.12-.424-.265c-.105-.146-.296-.265-.425-.265s-.235-.06-.235-.133c0-.072-.118-.132-.263-.132-.145 0-.264-.06-.264-.133 0-.072-.119-.132-.264-.132-.145 0-.263-.06-.263-.133 0-.072-.119-.132-.264-.132-.145 0-.264-.06-.264-.133 0-.072-.178-.132-.395-.132-.218 0-.396-.06-.396-.133 0-.072-.178-.132-.395-.132-.218 0-.396-.06-.396-.133 0-.072-.237-.132-.527-.132-.29 0-.528-.06-.528-.133 0-.073-.351-.132-.791-.132-.439 0-.791-.059-.791-.133 0-.083-.967-.132-2.637-.132s-2.637.049-2.637.132c0 .073-.237.133-.527.133-.29 0-.527.06-.527.132 0 .073-.178.133-.396.133-.217 0-.395.06-.395.132 0 .073-.178.133-.396.133-.217 0-.395.06-.395.132 0 .073-.119.133-.264.133-.145 0-.264.06-.264.132 0 .073-.119.133-.264.133-.145 0-.263.06-.263.132 0 .073-.106.133-.235.133s-.32.12-.424.265c-.105.146-.268.265-.362.265-.24 0-1.88 1.674-1.88 1.919 0 .11-.059.2-.132.2-.072 0-.132.12-.132.266 0 .146-.059.265-.131.265-.073 0-.132.119-.132.265 0 .145-.06.265-.132.265-.073 0-.132.179-.132.397 0 .219-.059.398-.132.398-.072 0-.132.179-.132.397 0 .219-.059.398-.131.398-.083 0-.132.795-.132 2.12 0 1.324.049 2.12.132 2.12.072 0 .131.178.131.397 0 .219.06.397.132.397.073 0 .132.166.132.369 0 .216.109.447.264.559.145.105.263.297.263.427s.06.235.132.235c.073 0 .132.091.132.202 0 .245 1.376 1.653 1.616 1.653.095 0 .257.12.362.265.104.146.295.265.425.265.128 0 .234.06.234.133 0 .073.119.132.264.132.145 0 .263.06.263.133 0 .072.178.132.396.132.218 0 .396.06.396.133 0 .075.395.132.922.132.528 0 .923.057.923.133 0 .075.396.132.923.132.528 0 .923-.057.923-.132 0-.073.119-.133.264-.133.145 0 .264-.06.264-.132 0-.073.091-.133.202-.133.262 0 1.116-.858 1.116-1.122 0-.111.059-.203.132-.203.075 0 .132-.397.132-.927s-.057-.928-.132-.928c-.073 0-.132-.106-.132-.235 0-.13-.119-.322-.264-.427-.145-.105-.263-.297-.263-.427 0-.147-.099-.236-.264-.236-.145 0-.264-.06-.264-.132 0-.073-.118-.133-.263-.133-.145 0-.264-.06-.264-.132 0-.073-.297-.133-.659-.133-.363 0-.66-.06-.66-.132 0-.073-.296-.133-.659-.133-.362 0-.659-.06-.659-.132 0-.073-.093-.133-.207-.133-.267 0-.584-.319-.584-.586 0-.115-.059-.209-.132-.209-.072 0-.132-.178-.132-.397 0-.219-.059-.398-.132-.398-.072 0-.131-.178-.131-.397 0-.219.059-.397.131-.397.073 0 .132-.18.132-.398 0-.219.06-.397.132-.397.073 0 .132-.092.132-.205 0-.25.581-.855.822-.855.096 0 .26-.12.365-.265.104-.146.295-.265.424-.265s.235-.06.235-.133c0-.073.237-.132.527-.132.29 0 .528-.06.528-.133 0-.082.747-.132 1.977-.132 1.231 0 1.978.05 1.978.132 0 .073.297.133.659.133.363 0 .659.06.659.132 0 .073.238.133.528.133.29 0 .527.06.527.132 0 .073.119.133.264.133.145 0 .263.06.263.132 0 .073.119.133.264.133.145 0 .264.06.264.132 0 .073.119.133.264.133.145 0 .263.06.263.132 0 .073.119.133.264.133.145 0 .264.06.264.132 0 .073.094.133.21.133.116 0 .378.178.581.397.203.219.435.398.516.398.223 0 2.121 1.954 2.121 2.184 0 .11.059.2.131.2.073 0 .132.12.132.265 0 .146.06.265.132.265.073 0 .132.12.132.265 0 .146.059.265.132.265.072 0 .132.18.132.398 0 .218.059.397.132.397.072 0 .131.18.131.398 0 .218.06.397.132.397.073 0 .132.298.132.663 0 .364.059.662.132.662.075 0 .132.398.132.928s.056.927.132.927c.077 0 .131.442.131 1.06 0 .883-.035 1.06-.21 1.06-.116 0-.377.179-.581.398-.203.218-.451.397-.551.397-.1 0-.267.12-.372.265-.104.146-.271.265-.371.265-.1 0-.348.179-.551.397-.204.219-.452.398-.552.398-.1 0-.267.12-.371.265-.105.146-.283.265-.396.265-.113 0-.291.12-.395.265-.105.146-.296.265-.425.265s-.235.06-.235.132c0 .073-.118.133-.263.133-.145 0-.264.06-.264.132 0 .073-.119.133-.264.133-.145 0-.263.06-.263.132 0 .073-.119.133-.264.133-.145 0-.264.06-.264.132 0 .073-.178.133-.395.133-.218 0-.396.06-.396.132 0 .073-.119.133-.264.133-.145 0-.263.06-.263.132 0 .073-.178.133-.396.133-.217 0-.395.06-.395.132 0 .073-.297.133-.66.133-.362 0-.659.06-.659.132 0 .073-.296.133-.659.133-.363 0-.659.06-.659.132 0 .081-.616.133-1.582.133-.967 0-1.583.051-1.583.132 0 .073-.296.133-.659.133-.362 0-.659-.06-.659-.133 0-.08-.527-.132-1.318-.132-.792 0-1.319-.053-1.319-.133 0-.074-.352-.132-.791-.132-.439 0-.791-.06-.791-.133 0-.073-.178-.132-.396-.132-.217 0-.395-.06-.395-.133 0-.073-.237-.132-.528-.132-.29 0-.527-.06-.527-.133 0-.073-.178-.132-.395-.132-.218 0-.396-.06-.396-.133 0-.073-.178-.132-.396-.132-.217 0-.395-.06-.395-.133 0-.073-.119-.132-.264-.132-.145 0-.263-.06-.263-.133 0-.073-.178-.132-.396-.132-.218 0-.395-.06-.395-.133 0-.073-.12-.132-.264-.132-.145 0-.264-.06-.264-.133 0-.073-.105-.132-.234-.132-.13 0-.32-.12-.425-.265-.105-.146-.296-.265-.425-.265s-.234-.06-.234-.133c0-.072-.119-.132-.264-.132-.145 0-.264-.06-.264-.133 0-.072-.105-.132-.234-.132-.13 0-.32-.12-.425-.265-.105-.146-.282-.265-.395-.265-.114 0-.291-.12-.396-.265-.105-.146-.283-.265-.396-.265-.113 0-.29-.12-.395-.265-.105-.146-.272-.265-.372-.265-.1 0-.348-.179-.551-.398-.203-.218-.438-.397-.522-.397-.083 0-.501-.358-.928-.795-.427-.437-.843-.795-.923-.795-.08 0-.496-.358-.923-.795-.427-.437-.856-.795-.953-.795-.096 0-.261-.12-.366-.265-.104-.146-.282-.265-.395-.265-.113 0-.291-.119-.396-.265-.104-.145-.282-.265-.395-.265-.113 0-.291-.119-.396-.265-.104-.146-.295-.265-.425-.265-.128 0-.234-.06-.234-.132 0-.073-.119-.133-.264-.133-.145 0-.263-.06-.263-.132 0-.073-.12-.133-.264-.133-.145 0-.264-.06-.264-.132 0-.073-.178-.133-.395-.133-.218 0-.396-.06-.396-.132 0-.073-.119-.133-.264-.133-.145 0-.263-.06-.263-.132 0-.073-.238-.133-.528-.133-.29 0-.527-.06-.527-.132 0-.073-.237-.133-.527-.133-.29 0-.528-.06-.528-.132 0-.073-.178-.133-.395-.133-.218 0-.396-.06-.396-.132 0-.084-1.055-.133-2.9-.133-1.846 0-2.901.049-2.901.133 0 .073-.297.132-.66.132-.362 0-.659.06-.659.133 0 .073-.237.132-.527.132-.29 0-.527.06-.527.133 0 .073-.178.132-.396.132-.217 0-.395.06-.395.133 0 .073-.178.132-.396.132-.218 0-.396.06-.396.133 0 .073-.118.132-.263.132-.145 0-.264.06-.264.133 0 .073-.118.132-.264.132-.145 0-.263.06-.263.133 0 .073-.106.132-.235.132s-.32.12-.425.265c-.104.146-.282.265-.395.265-.113 0-.291.12-.395.265-.105.146-.283.265-.396.265-.113 0-.291.12-.396.265-.104.146-.266.265-.36.265-.203 0-2.936 2.718-2.936 2.92 0 .213-.62.79-.85.79a.207.207 0 01-.204-.21c0-.114-.238-.437-.528-.717-.29-.28-.527-.575-.527-.656 0-.19-1.136-1.332-1.326-1.332-.08 0-.373-.238-.652-.53-.279-.291-.587-.53-.686-.53-.098 0-.264-.119-.369-.265-.104-.145-.282-.265-.395-.265-.113 0-.291-.119-.396-.265-.104-.146-.295-.265-.425-.265-.129 0-.234-.06-.234-.132 0-.073-.119-.133-.264-.133-.145 0-.263-.06-.263-.132 0-.073-.12-.133-.264-.133-.145 0-.264-.06-.264-.132 0-.073-.118-.133-.264-.133-.145 0-.263-.06-.263-.132 0-.073-.178-.133-.396-.133-.217 0-.395-.06-.395-.132 0-.073-.119-.133-.264-.133-.145 0-.264-.06-.264-.132 0-.073-.237-.133-.527-.133-.29 0-.527-.06-.527-.132 0-.073-.297-.133-.66-.133-.362 0-.659-.06-.659-.132 0-.084-1.055-.133-2.9-.133-1.846 0-2.901.049-2.901.133 0 .073-.178.132-.396.132-.217 0-.395.06-.395.133 0 .073-.237.132-.528.132-.29 0-.527.06-.527.133 0 .073-.237.132-.527.132-.29 0-.528.06-.528.133 0 .073-.118.132-.263.132-.145 0-.264.06-.264.133 0 .073-.178.132-.396.132-.217 0-.395.06-.395.133 0 .073-.119.132-.264.132-.145 0-.264.06-.264.133 0 .073-.105.132-.234.132-.13 0-.32.12-.425.265-.104.146-.282.265-.395.265-.113 0-.291.12-.396.265-.104.146-.272.265-.372.265-.1 0-.348.18-.55.398-.204.218-.465.397-.581.397-.116 0-.21.06-.21.133 0 .072-.094.132-.207.132-.114 0-.495.298-.849.663-.353.364-.709.662-.79.662-.083 0-.439.298-.792.663-.353.364-.711.662-.795.662-.085 0-.32.179-.523.398-.203.218-.44.397-.528.397-.087 0-.324.179-.527.398-.203.218-.451.397-.551.397-.1 0-.267.12-.372.265-.105.146-.283.265-.396.265-.113 0-.29.12-.395.265-.105.146-.282.265-.395.265-.114 0-.292.12-.396.265-.105.146-.283.265-.396.265-.113 0-.29.12-.395.265-.105.146-.296.265-.425.265s-.234.06-.234.132c0 .073-.119.133-.264.133-.145 0-.264.06-.264.132 0 .073-.105.133-.234.133-.13 0-.32.119-.425.265-.104.145-.296.265-.425.265s-.234.06-.234.132c0 .073-.119.133-.264.133-.145 0-.264.06-.264.132 0 .073-.118.133-.263.133-.145 0-.264.06-.264.132 0 .073-.119.133-.264.133-.145 0-.263.06-.263.132 0 .073-.178.133-.396.133-.218 0-.395.06-.395.132 0 .073-.12.133-.264.133-.145 0-.264.06-.264.132 0 .073-.119.133-.264.133-.145 0-.263.06-.263.132 0 .073-.178.133-.396.133-.217 0-.395.06-.395.132 0 .073-.178.133-.396.133-.217 0-.395.06-.395.132 0 .073-.178.133-.396.133-.217 0-.395.06-.395.132 0 .073-.238.133-.528.133-.29 0-.527.06-.527.132 0 .073-.297.133-.66.133-.362 0-.659.06-.659.132 0 .08-.527.133-1.318.133s-1.319.053-1.319.132c0 .073-.296.133-.659.133-.362 0-.659-.06-.659-.133 0-.078-.483-.132-1.187-.132-.703 0-1.186-.054-1.186-.133 0-.073-.297-.132-.66-.132-.362 0-.659-.06-.659-.133 0-.073-.178-.132-.395-.132-.218 0-.396-.06-.396-.133 0-.073-.178-.132-.395-.132-.218 0-.396-.06-.396-.133 0-.073-.118-.132-.264-.132-.145 0-.263-.06-.263-.133 0-.073-.106-.132-.235-.132s-.32-.12-.424-.265c-.105-.146-.267-.265-.36-.265-.207 0-2.937-2.72-2.937-2.924 0-.08-.237-.373-.527-.654-.29-.28-.527-.579-.527-.665 0-.086-.178-.323-.396-.527-.385-.362-.529-.795-.264-.795.08 0 .132-.618.132-1.59 0-.971.052-1.59.132-1.59.073 0 .132-.298.132-.662 0-.365.06-.663.132-.663.072 0 .132-.238.132-.53 0-.291.059-.53.131-.53.073 0 .132-.179.132-.397 0-.219.06-.398.132-.398.073 0 .132-.178.132-.397 0-.219.06-.398.132-.398.072 0 .132-.119.132-.265 0-.145.059-.265.132-.265.072 0 .131-.09.131-.2 0-.244 2.433-2.714 2.672-2.714.094 0 .256-.12.36-.265.105-.146.283-.265.396-.265.113 0 .291-.12.396-.265.104-.146.295-.265.425-.265.129 0 .234-.06.234-.133 0-.073.178-.132.396-.132.217 0 .395-.06.395-.133 0-.073.119-.132.264-.132.145 0 .264-.06.264-.133 0-.073.178-.132.395-.132.218 0 .396-.06.396-.133 0-.073.351-.132.79-.132.44 0 .792-.06.792-.133 0-.082.747-.132 1.977-.132 1.231 0 1.978.05 1.978.132 0 .073.178.133.396.133.217 0 .395.06.395.132 0 .073.119.133.264.133.145 0 .264.06.264.132 0 .073.09.133.2.133.263 0 1.382 1.124 1.382 1.387 0 .112.06.203.132.203.075 0 .131.397.131.927s-.056.927-.131.927c-.073 0-.132.092-.132.204 0 .111-.206.41-.457.662-.35.35-.567.46-.923.46-.256 0-.466.059-.466.132 0 .075-.396.132-.923.132s-.923.057-.923.133c0 .073-.09.132-.201.132-.34 0-1.381 1.146-1.381 1.52 0 .185-.06.335-.132.335-.072 0-.132.239-.132.53 0 .292.06.53.132.53.073 0 .132.166.132.368 0 .217.109.447.264.56.145.105.263.297.263.426 0 .138.098.236.235.236.129 0 .32.12.425.265.111.156.34.265.556.265.202 0 .367.06.367.133 0 .073.351.132.79.132.44 0 .792-.059.792-.132 0-.078.44-.133 1.054-.133.616 0 1.055-.055 1.055-.132 0-.073.178-.133.396-.133.217 0 .395-.06.395-.132 0-.073.106-.133.235-.133s.32-.12.425-.265c.104-.146.266-.265.36-.265.223 0 2.145-1.93 2.145-2.155 0-.094.118-.257.263-.362.145-.105.264-.297.264-.427s.06-.236.132-.236c.072 0 .132-.179.132-.397 0-.219.059-.398.132-.398.072 0 .131-.298.131-.662 0-.364.06-.663.132-.663.078 0 .132-.485.132-1.192s-.054-1.192-.132-1.192c-.073 0-.132-.354-.132-.795 0-.442-.058-.795-.131-.795-.073 0-.132-.18-.132-.398 0-.218-.06-.397-.132-.397-.073 0-.132-.12-.132-.265 0-.146-.06-.265-.132-.265-.072 0-.132-.12-.132-.265 0-.146-.06-.265-.132-.265-.072 0-.131-.09-.131-.2 0-.262-2.177-2.45-2.438-2.45-.11 0-.2-.06-.2-.133 0-.072-.118-.132-.263-.132-.145 0-.264-.06-.264-.133 0-.072-.118-.132-.263-.132-.146 0-.264-.06-.264-.133 0-.072-.119-.132-.264-.132-.145 0-.264-.06-.264-.133 0-.072-.177-.132-.395-.132-.218 0-.396-.06-.396-.133 0-.072-.178-.132-.395-.132-.218 0-.396-.06-.396-.133 0-.072-.237-.132-.527-.132-.29 0-.527-.06-.527-.133C20.04.05 19.074 0 17.404 0s-2.637.049-2.637.132zm37.971 16.96c0 .072.238.132.528.132.29 0 .527.06.527.133 0 .072.237.132.528.132.29 0 .527.06.527.133 0 .072.119.132.264.132.145 0 .263.06.263.133 0 .072.119.132.264.132.145 0 .264.06.264.133 0 .072.118.132.263.132.145 0 .264.06.264.133 0 .072.119.132.264.132.145 0 .263.06.263.133 0 .072.09.132.2.132.242 0 3.228 2.974 3.228 3.215 0 .094.12.257.264.362.145.105.264.297.264.427s.06.236.132.236c.072 0 .131.179.131.397 0 .219.06.398.132.398.073 0 .132.119.132.265 0 .145.06.265.132.265.072 0 .132.178.132.397 0 .219.06.398.132.398.084 0 .132 1.06.132 2.915 0 1.854-.048 2.914-.132 2.914-.073 0-.132.239-.132.53 0 .292-.06.53-.132.53-.073 0-.132.12-.132.265 0 .146-.06.265-.132.265-.072 0-.132.12-.132.265 0 .146-.059.265-.131.265-.073 0-.132.12-.132.265 0 .146-.06.265-.132.265-.073 0-.132.094-.132.21 0 .114-.237.438-.527.718-.29.28-.528.574-.528.654 0 .192-1.401 1.598-1.592 1.598-.081 0-.314.179-.517.398-.203.218-.452.397-.551.397-.1 0-.268.12-.372.265-.105.146-.296.265-.425.265s-.234.06-.234.132c0 .073-.119.133-.264.133-.145 0-.264.06-.264.132 0 .073-.118.133-.263.133-.145 0-.264.06-.264.132 0 .073-.178.133-.396.133-.217 0-.395.06-.395.132 0 .073-.238.133-.528.133-.29 0-.527.06-.527.132 0 .073-.237.133-.527.133-.29 0-.528.06-.528.132 0 .073-.296.133-.659.133-.362 0-.66.06-.66.132 0 .073-.296.133-.658.133-.363 0-.66.06-.66.132 0 .074-.351.133-.79.133-.44 0-.792.059-.792.132 0 .074-.351.133-.79.133-.44 0-.792.059-.792.132 0 .076-.395.133-.923.133-.527 0-.923.057-.923.132 0 .076-.395.133-.923.133-.527 0-.923.057-.923.132 0 .079-.483.133-1.186.133s-1.187.054-1.187.132c0 .08-.571.133-1.45.133-.88 0-1.45.052-1.45.132 0 .086-1.583.133-4.483.133-2.9 0-4.483-.047-4.483-.133 0-.08-.527-.132-1.318-.132s-1.319-.053-1.319-.133c0-.073-.351-.132-.791-.132-.44 0-.791-.06-.791-.133 0-.073-.297-.132-.66-.132-.362 0-.659-.06-.659-.133 0-.073-.296-.132-.659-.132-.362 0-.659-.06-.659-.133 0-.073-.237-.132-.527-.132-.29 0-.528-.06-.528-.133 0-.073-.178-.132-.395-.132-.218 0-.396-.06-.396-.133 0-.073-.178-.132-.395-.132-.218 0-.396-.06-.396-.133 0-.073-.178-.132-.395-.132-.218 0-.396-.06-.396-.133 0-.073-.119-.132-.264-.132-.145 0-.263-.06-.263-.133 0-.072-.178-.132-.396-.132-.217 0-.395-.06-.395-.133 0-.072-.12-.132-.264-.132-.145 0-.264-.06-.264-.133 0-.072-.119-.132-.264-.132-.144 0-.263-.06-.263-.133 0-.072-.119-.132-.264-.132-.145 0-.264-.06-.264-.133 0-.072-.118-.132-.263-.132-.145 0-.264-.06-.264-.133 0-.072-.106-.132-.235-.132s-.32-.12-.424-.265c-.105-.146-.283-.265-.396-.265-.113 0-.29-.12-.395-.265-.105-.146-.267-.265-.36-.265-.222 0-4.255-4.053-4.255-4.276 0-.093-.119-.256-.264-.361-.145-.105-.263-.297-.263-.427s-.06-.236-.132-.236c-.073 0-.132-.119-.132-.265 0-.145-.06-.265-.132-.265-.072 0-.132-.119-.132-.265 0-.145-.059-.265-.131-.265-.073 0-.132-.119-.132-.265 0-.145-.06-.265-.132-.265-.073 0-.132-.119-.132-.265 0-.145-.06-.265-.132-.265-.072 0-.132-.238-.132-.53 0-.291-.059-.53-.132-.53a.133.133 0 01-.131-.132c0-.234.463-.141.659.133.104.145.282.265.395.265.113 0 .291.119.396.264.104.146.296.265.425.265s.234.06.234.133c0 .073.119.132.264.132.145 0 .264.06.264.133 0 .073.118.132.263.132.145 0 .264.06.264.133 0 .073.119.132.264.132.145 0 .263.06.263.133 0 .073.119.132.264.132.145 0 .264.06.264.133 0 .073.178.132.395.132.218 0 .396.06.396.133 0 .073.178.132.395.132.218 0 .396.06.396.133 0 .073.178.132.395.132.218 0 .396.06.396.133 0 .073.237.132.527.132.29 0 .528.06.528.133 0 .076.395.132.923.132.527 0 .923.057.923.133 0 .082.703.132 1.845.132 1.143 0 1.846-.05 1.846-.132 0-.079.484-.133 1.187-.133.703 0 1.186-.054 1.186-.132 0-.073.297-.133.66-.133.362 0 .659-.06.659-.132 0-.073.297-.133.66-.133.362 0 .658-.06.658-.132 0-.073.178-.133.396-.133.217 0 .395-.06.395-.132 0-.073.178-.133.396-.133.217 0 .395-.06.395-.132 0-.073.178-.133.396-.133.218 0 .396-.06.396-.132 0-.073.178-.133.395-.133.218 0 .396-.06.396-.132 0-.073.118-.133.263-.133.145 0 .264-.06.264-.132 0-.073.119-.133.264-.133.145 0 .263-.06.263-.132 0-.073.178-.133.396-.133.217 0 .395-.06.395-.132 0-.073.12-.133.264-.133.145 0 .264-.06.264-.132 0-.073.119-.133.264-.133.145 0 .263-.06.263-.132 0-.073.119-.133.264-.133.145 0 .264-.06.264-.132 0-.073.118-.133.263-.133.145 0 .264-.06.264-.132 0-.073.119-.133.264-.133.145 0 .263-.06.263-.132 0-.073.106-.133.235-.133s.32-.119.425-.264c.104-.146.295-.265.424-.265.13 0 .235-.06.235-.133 0-.073.105-.132.234-.132.13 0 .32-.12.425-.265.105-.146.296-.265.425-.265s.234-.06.234-.133c0-.073.106-.132.235-.132s.32-.12.425-.265c.104-.146.282-.265.395-.265.113 0 .291-.12.396-.265.104-.146.282-.265.395-.265.113 0 .291-.12.396-.265.104-.146.282-.265.395-.265.113 0 .291-.12.396-.265.104-.146.272-.265.372-.265.1 0 .347-.18.55-.398.204-.218.44-.397.525-.397.086 0 .384-.239.662-.53.279-.292.577-.53.662-.53.086 0 .322-.18.525-.398.203-.218.438-.397.523-.397.084 0 .442-.298.795-.663.354-.364.712-.662.796-.662.084 0 .32-.179.523-.398.203-.218.451-.397.55-.397.1 0 .268-.12.373-.265.104-.146.295-.265.424-.265.13 0 .235-.06.235-.133 0-.072.119-.132.264-.132.145 0 .263-.06.263-.133 0-.072.119-.132.264-.132.145 0 .264-.06.264-.132 0-.073.118-.133.263-.133.145 0 .264-.06.264-.133 0-.072.237-.132.528-.132.29 0 .527-.06.527-.132 0-.073.237-.133.527-.133.29 0 .528-.06.528-.132 0-.082.703-.133 1.846-.133 1.142 0 1.845.05 1.845.133zm28.215 0c0 .072.238.132.528.132.29 0 .527.06.527.133 0 .072.178.132.396.132.217 0 .395.06.395.133 0 .072.178.132.396.132.217 0 .395.06.395.133 0 .072.119.132.264.132.145 0 .264.06.264.133 0 .072.118.132.263.132.145 0 .264.06.264.133 0 .072.106.132.235.132s.32.12.424.265c.105.146.283.265.396.265.113 0 .29.12.395.265.105.146.27.265.368.265.097 0 .466.298.819.662.353.365.71.663.791.663.082 0 .438.298.791.662.353.365.71.663.793.663.083 0 .379.238.657.53.28.291.588.53.686.53.099 0 .265.119.37.265.104.146.282.265.395.265.113 0 .29.119.395.265.105.145.283.265.396.265.113 0 .29.119.395.265.105.145.283.265.396.265.113 0 .29.119.395.265.105.145.296.265.425.265s.235.06.235.132c0 .073.118.133.263.133.145 0 .264.06.264.132 0 .073.106.133.235.133s.32.119.424.265c.105.145.296.265.425.265s.234.06.234.132c0 .073.12.133.264.133.145 0 .264.06.264.132 0 .073.118.133.263.133.146 0 .264.06.264.132 0 .073.119.133.264.133.145 0 .264.06.264.132 0 .073.178.133.395.133.218 0 .396.06.396.132 0 .073.178.133.395.133.218 0 .396.06.396.132 0 .073.118.133.263.133.145 0 .264.06.264.132 0 .073.178.133.396.133.217 0 .395.06.395.132 0 .073.178.133.396.133.217 0 .395.06.395.132 0 .073.238.132.528.132.29 0 .527.06.527.133 0 .073.237.132.527.132.291 0 .528.06.528.133 0 .074.351.132.791.132.439 0 .791.06.791.133 0 .077.439.132 1.055.132.615 0 1.055.056 1.055.133 0 .083.834.132 2.241.132 1.406 0 2.241-.049 2.241-.132 0-.077.44-.133 1.055-.133s1.055-.055 1.055-.132c0-.073.296-.133.659-.133.363 0 .659-.06.659-.132 0-.073.238-.133.528-.133.29 0 .527-.06.527-.132 0-.073.178-.133.396-.133.217 0 .395-.06.395-.132 0-.073.178-.133.396-.133.217 0 .395-.06.395-.132 0-.073.178-.133.396-.133.217 0 .395-.06.395-.132 0-.073.119-.133.264-.133.145 0 .264-.06.264-.132 0-.073.178-.133.395-.133.218 0 .396-.06.396-.132 0-.073.118-.133.263-.133.145 0 .264-.06.264-.132 0-.073.119-.132.264-.132.145 0 .263-.06.263-.133 0-.073.119-.133.264-.133.145 0 .264-.06.264-.132 0-.073.119-.132.264-.132.145 0 .263-.06.263-.133 0-.073.119-.132.264-.132.145 0 .264-.06.264-.133 0-.073.118-.132.263-.132.145 0 .264-.06.264-.133 0-.073.119-.132.264-.132.145 0 .263-.06.263-.133 0-.073.06-.132.132-.132.073 0 .132.178.132.397 0 .219-.059.398-.132.398-.072 0-.132.238-.132.53 0 .291-.059.53-.131.53-.073 0-.132.178-.132.397 0 .219-.06.398-.132.398-.073 0-.132.178-.132.397 0 .219-.059.397-.132.397-.072 0-.132.12-.132.265 0 .146-.059.265-.132.265-.072 0-.131.12-.131.265 0 .146-.06.265-.132.265-.073 0-.132.12-.132.265 0 .146-.059.265-.132.265-.072 0-.132.12-.132.265 0 .146-.059.265-.132.265-.072 0-.131.106-.131.236s-.119.322-.264.427c-.145.105-.264.273-.264.373 0 .1-.178.35-.395.554-.218.204-.396.438-.396.519 0 .191-2.985 3.191-3.176 3.191-.08 0-.312.179-.516.398-.203.218-.451.397-.551.397-.1 0-.267.12-.371.265-.105.146-.296.265-.425.265s-.235.06-.235.132c0 .073-.118.133-.263.133-.145 0-.264.06-.264.132 0 .073-.119.133-.264.133-.145 0-.263.06-.263.132 0 .073-.119.133-.264.133-.145 0-.264.06-.264.132 0 .073-.178.133-.395.133-.218 0-.396.06-.396.132 0 .073-.119.133-.264.133-.145 0-.263.06-.263.132 0 .073-.119.133-.264.133-.145 0-.264.06-.264.132 0 .073-.178.133-.395.133-.218 0-.396.06-.396.132 0 .073-.237.133-.527.133-.29 0-.528.06-.528.132 0 .073-.178.133-.395.133-.218 0-.396.06-.396.132 0 .073-.237.133-.527.133-.29 0-.527.06-.527.132 0 .073-.238.133-.528.133-.29 0-.527.06-.527.132 0 .074-.352.133-.791.133-.44 0-.791.059-.791.132 0 .076-.396.133-.923.133-.528 0-.923.057-.923.132 0 .08-.528.133-1.319.133-.791 0-1.318.053-1.318.132 0 .086-1.494.133-4.22.133-2.724 0-4.218-.047-4.218-.133 0-.08-.615-.132-1.582-.132-.967 0-1.583-.052-1.583-.133 0-.078-.483-.132-1.186-.132s-1.187-.054-1.187-.133c0-.077-.44-.132-1.055-.132s-1.054-.056-1.054-.133c0-.073-.352-.132-.791-.132-.44 0-.791-.059-.791-.133 0-.073-.352-.132-.791-.132-.44 0-.792-.059-.792-.133 0-.073-.351-.132-.79-.132-.44 0-.792-.059-.792-.133 0-.073-.296-.132-.659-.132-.362 0-.66-.06-.66-.133 0-.073-.296-.132-.658-.132-.363 0-.66-.06-.66-.133 0-.073-.237-.132-.527-.132-.29 0-.527-.06-.527-.133 0-.072-.238-.132-.528-.132-.29 0-.527-.06-.527-.133 0-.072-.178-.132-.396-.132-.217 0-.395-.06-.395-.133 0-.072-.119-.132-.264-.132-.145 0-.264-.06-.264-.133 0-.072-.118-.132-.263-.132-.145 0-.264-.06-.264-.133 0-.072-.095-.132-.21-.132-.117 0-.378-.179-.581-.398-.203-.218-.436-.397-.516-.397-.192 0-2.385-2.204-2.385-2.396 0-.081-.178-.315-.395-.519-.218-.204-.396-.467-.396-.583 0-.117-.06-.212-.132-.212-.072 0-.132-.12-.132-.265 0-.145-.059-.265-.131-.265-.073 0-.132-.119-.132-.265 0-.145-.06-.265-.132-.265-.072 0-.132-.119-.132-.265 0-.146-.06-.265-.132-.265-.072 0-.132-.238-.132-.53 0-.291-.059-.53-.131-.53-.084 0-.132-1.015-.132-2.782 0-1.767.048-2.782.132-2.782.072 0 .132-.239.132-.53 0-.292.059-.53.131-.53.073 0 .132-.12.132-.265 0-.146.06-.265.132-.265.073 0 .132-.12.132-.265 0-.146.06-.265.132-.265.072 0 .132-.106.132-.236s.118-.322.263-.427c.145-.105.264-.284.264-.397 0-.114.119-.293.264-.398.145-.105.263-.268.263-.363 0-.209 1.385-1.624 1.59-1.624.08 0 .373-.239.652-.53.278-.292.6-.53.715-.53.114 0 .208-.06.208-.133 0-.072.118-.132.263-.132.145 0 .264-.06.264-.133 0-.072.119-.132.264-.132.145 0 .263-.06.263-.133 0-.072.119-.132.264-.132.145 0 .264-.06.264-.132 0-.073.118-.133.263-.133.145 0 .264-.06.264-.133 0-.072.237-.132.528-.132.29 0 .527-.06.527-.132 0-.073.237-.133.527-.133.29 0 .528-.06.528-.132 0-.082.703-.133 1.846-.133 1.142 0 1.845.05 1.845.133z" fill="#202020"/></svg>