<svg width="130" height="130" fill="none" xmlns="http://www.w3.org/2000/svg"><path fill-rule="evenodd" clip-rule="evenodd" d="M103.841.13c0 .072-.118.13-.264.13-.145 0-.264.058-.264.13 0 .072-.178.13-.396.13-.218 0-.397.058-.397.13 0 .072-.119.13-.264.13-.145 0-.264.058-.264.13 0 .072-.106.13-.235.13-.13 0-.321.117-.426.26-.132.181-.342.26-.689.26-.275 0-.5.058-.5.13 0 .072-.095.13-.211.13-.116 0-.378.175-.581.39-.204.215-.466.39-.582.39-.116 0-.211.058-.211.13 0 .071-.119.13-.264.13-.15 0-.265.087-.265.2 0 .261-.588.84-.852.84a.205.205 0 00-.204.205c0 .113-.238.43-.529.705-.29.275-.528.592-.528.705 0 .113-.06.205-.133.205-.072 0-.132.117-.132.26 0 .143-.059.26-.132.26-.072 0-.132.104-.132.231 0 .128-.119.316-.264.419a.706.706 0 00-.264.549c0 .198-.06.361-.132.361-.073 0-.132.176-.132.39 0 .215-.06.39-.133.39-.072 0-.132.175-.132.39 0 .214-.06.39-.132.39-.073 0-.132.176-.132.39 0 .214-.06.39-.132.39-.073 0-.132.234-.132.52 0 .286-.06.52-.132.52-.074 0-.132.347-.132.78 0 .433-.06.78-.133.78-.072 0-.132.175-.132.39 0 .214-.06.39-.132.39-.072 0-.132.117-.132.26 0 .143-.06.26-.132.26-.073 0-.132.234-.132.52 0 .286-.06.52-.132.52-.074 0-.132.347-.132.78 0 .433-.059.78-.132.78-.073 0-.132.175-.132.39 0 .214-.06.39-.133.39-.072 0-.132.117-.132.26 0 .143-.06.26-.132.26-.073 0-.132.293-.132.65 0 .358-.06.65-.132.65-.073 0-.132.209-.132.464 0 .492-.241.836-.585.836-.114 0-.208.059-.208.13 0 .071-.119.13-.264.13-.145 0-.264.058-.264.13 0 .072-.238.13-.529.13-.29 0-.528-.058-.528-.13 0-.076-.44-.13-1.057-.13s-1.057.054-1.057.13c0 .085-3.391.13-9.909.13-6.517 0-9.908.045-9.908.13 0 .078-.529.13-1.321.13-.793 0-1.322.052-1.322.13 0 .072-.352.13-.792.13-.44 0-.793.058-.793.13 0 .072-.119.13-.264.13-.145 0-.264.058-.264.13 0 .072-.179.13-.397.13-.218 0-.396.058-.396.13 0 .072-.352.13-.793.13-.44 0-.792.058-.792.13 0 .072-.179.13-.397.13-.218 0-.396.058-.396.13 0 .072-.119.13-.264.13-.146 0-.265.059-.265.13 0 .071-.118.13-.264.13-.145 0-.264.058-.264.13 0 .072-.238.13-.528.13-.291 0-.529.059-.529.13 0 .072-.165.13-.367.13-.216 0-.446.107-.558.26-.104.143-.296.26-.425.26-.13 0-.235.058-.235.13 0 .072-.178.13-.396.13-.218 0-.397.058-.397.13 0 .072-.154.13-.343.13-.211 0-.486.15-.714.39-.227.24-.502.39-.713.39-.19 0-.344.058-.344.13 0 .072-.095.13-.21.13-.117 0-.379.176-.582.39-.204.215-.5.39-.658.39-.163 0-.508.226-.796.52-.279.286-.601.52-.716.52-.115 0-.208.059-.208.13 0 .072-.095.13-.212.13-.116 0-.377.175-.581.39-.204.214-.465.39-.582.39-.116 0-.21.058-.21.13 0 .072-.12.13-.265.13-.152 0-.264.087-.264.204 0 .234-.309.576-.52.576-.187 0-3.972 3.725-3.972 3.908 0 .208-.347.512-.585.512-.12 0-.208.11-.208.26 0 .143-.06.26-.132.26-.073 0-.132.092-.132.205 0 .113-.238.43-.529.705-.29.275-.528.569-.528.653 0 .084-.178.317-.396.517-.218.2-.397.458-.397.572 0 .114-.06.208-.132.208-.072 0-.132.117-.132.26 0 .143-.06.26-.132.26-.073 0-.132.104-.132.231s-.119.316-.264.419c-.146.103-.264.291-.264.419 0 .127-.06.231-.133.231-.072 0-.132.104-.132.231s-.119.316-.264.419c-.145.103-.264.292-.264.419s-.06.231-.132.231c-.073 0-.132.117-.132.26 0 .143-.06.26-.133.26-.072 0-.132.093-.132.208 0 .114-.178.372-.396.572-.244.224-.396.494-.396.702 0 .186-.06.338-.133.338-.072 0-.132.093-.132.208 0 .114-.178.372-.396.572-.218.2-.396.458-.396.572 0 .114-.06.208-.132.208-.073 0-.133.117-.133.26 0 .143-.059.26-.132.26-.072 0-.132.104-.132.231 0 .128-.119.316-.264.419-.145.103-.264.291-.264.419 0 .127-.06.231-.132.231-.073 0-.132.093-.132.208 0 .114-.179.372-.397.572-.218.2-.396.458-.396.572 0 .114-.06.208-.132.208-.073 0-.132.152-.132.338 0 .208-.153.478-.397.702-.218.2-.396.458-.396.572 0 .114-.06.208-.132.208-.073 0-.132.117-.132.26 0 .143-.06.26-.132.26-.073 0-.133.104-.133.231s-.118.316-.264.419c-.145.103-.264.291-.264.419 0 .127-.06.231-.132.231-.073 0-.132.117-.132.26 0 .143-.06.26-.132.26-.073 0-.132.093-.132.208 0 .114-.179.372-.397.572-.218.2-.396.458-.396.572 0 .179-.22.208-1.585.208-.97 0-1.586-.05-1.586-.13 0-.083-1.013-.13-2.774-.13-1.762 0-2.775.047-2.775.13 0 .074-.396.13-.924.13-.529 0-.925.056-.925.13 0 .072-.238.13-.529.13-.29 0-.528.059-.528.13 0 .072-.119.13-.264.13-.146 0-.264.059-.264.13 0 .072-.12.13-.265.13-.145 0-.264.058-.264.13 0 .072-.178.13-.396.13-.218 0-.397.058-.397.13 0 .072-.154.13-.343.13-.211 0-.486.15-.714.39-.203.215-.465.39-.581.39-.116 0-.211.059-.211.13 0 .072-.095.13-.212.13-.116 0-.377.175-.58.39-.205.215-.466.39-.582.39-.117 0-.212.059-.212.13 0 .072-.09.13-.2.13-.261 0-1.913 1.626-1.913 1.883a.203.203 0 01-.208.197c-.255 0-.585.309-.585.547 0 .097-.119.26-.264.363-.146.103-.265.268-.265.367 0 .098-.178.343-.396.543-.218.2-.396.493-.396.65 0 .157-.179.45-.397.65-.243.224-.396.494-.396.702 0 .186-.06.338-.132.338-.073 0-.132.175-.132.39 0 .215-.06.39-.132.39-.073 0-.132.117-.132.26 0 .143-.06.26-.133.26-.072 0-.132.117-.132.26 0 .143-.06.26-.132.26-.072 0-.132.293-.132.65 0 .357-.06.65-.132.65-.084 0-.132 1.127-.132 3.12s.048 3.12.132 3.12c.073 0 .132.28.132.621 0 .472.064.666.264.809.155.11.265.337.265.549 0 .198.06.361.132.361.072 0 .132.175.132.39 0 .215.06.39.132.39.073 0 .132.152.132.338 0 .208.153.478.396.702.218.2.397.458.397.572 0 .114.06.208.132.208.073 0 .132.093.132.208 0 .114.178.372.396.572.218.2.397.458.397.572 0 .115.06.208.132.208.072 0 .132.117.132.26 0 .173.088.26.264.26.148 0 .264.087.264.197 0 .227 1.637 1.883 1.86 1.883.082 0 .315.175.518.39.204.215.466.39.582.39.116 0 .211.058.211.13 0 .072.095.13.211.13.116 0 .378.175.582.39.203.215.465.39.581.39.116 0 .211.059.211.13 0 .072.166.13.368.13.215 0 .445.107.557.26.105.143.296.26.426.26.129 0 .235.059.235.13 0 .072.178.13.396.13.218 0 .396.058.396.13 0 .072.238.13.529.13.29 0 .528.058.528.13 0 .072.12.13.265.13.145 0 .264.059.264.13 0 .072.119.13.264.13.145 0 .264.058.264.13 0 .074.397.13.925.13.529 0 .925.056.925.13 0 .072.238.13.528.13.291 0 .529.059.529.13 0 .071.119.13.264.13.235 0 .264.087.264.78 0 .433-.058.78-.132.78-.073 0-.132.175-.132.39 0 .215-.06.39-.132.39-.073 0-.132.347-.132.78 0 .433-.059.78-.132.78-.076 0-.132.39-.132.91s-.057.91-.133.91c-.072 0-.132.234-.132.52 0 .286-.06.52-.132.52-.072 0-.132.176-.132.39 0 .215-.06.39-.132.39-.073 0-.132.347-.132.78 0 .433-.059.78-.132.78-.074 0-.132.347-.132.78 0 .433-.059.78-.132.78-.073 0-.133.09-.133.2 0 .252-.853 1.1-1.107 1.1a.322.322 0 00-.269.163c-.061.13-.092.13-.154 0-.06-.128-2.1-.163-9.549-.163-9.32 0-9.475.004-9.662.26-.105.143-.297.26-.426.26-.214 0-.235.162-.235 1.82 0 1.127.05 1.82.132 1.82.073 0 .132.09.132.201 0 .11.146.344.325.52.287.282.438.319 1.32.319.577 0 .997-.055.997-.13 0-.085 3.171-.13 9.248-.13 6.078 0 9.248.045 9.248.13 0 .076.44.13 1.057.13s1.057-.054 1.057-.13c0-.071.106-.13.235-.13.13 0 .321-.117.426-.26.105-.143.296-.26.425-.26.13 0 .235-.058.235-.13 0-.071.094-.13.208-.13.312 0 .585-.33.585-.706 0-.184.06-.334.132-.334.074 0 .132-.347.132-.78 0-.433.059-.78.132-.78.073 0 .133-.234.133-.52 0-.286.059-.52.132-.52.072 0 .132-.175.132-.39 0-.215.06-.39.132-.39.073 0 .132-.347.132-.78 0-.433.059-.78.132-.78.076 0 .132-.39.132-.91s.057-.91.132-.91c.073 0 .132-.175.132-.39 0-.215.06-.39.133-.39.072 0 .132-.175.132-.39 0-.214.06-.39.132-.39.073 0 .132-.292.132-.65 0-.358.06-.65.132-.65.075 0 .132-.39.132-.91s.057-.91.132-.91c.073 0 .132-.175.132-.39 0-.215.06-.39.133-.39.072 0 .132-.175.132-.39 0-.215.059-.39.132-.39.072 0 .132-.293.132-.65 0-.358.06-.65.132-.65.073 0 .132-.15.132-.334 0-.746-.806-.706 14.06-.706 9.035 0 13.684.044 13.684.13 0 .071.119.13.264.13.176 0 .264.087.264.26 0 .143.06.26.132.26.084 0 .133.997.133 2.73s-.049 2.73-.133 2.73c-.072 0-.132.292-.132.65 0 .358.06.65.132.65.073 0 .133.234.133.52 0 .286-.06.52-.133.52-.083 0-.132.977-.132 2.67 0 2.663 0 2.673-.324 2.991-.287.282-.439.319-1.321.319-.577 0-.997.055-.997.13 0 .074-.396.13-.925.13-.528 0-.925.056-.925.13 0 .072-.178.13-.396.13-.218 0-.396.059-.396.13 0 .072-.178.13-.396.13-.218 0-.397.059-.397.13 0 .072-.352.13-.792.13-.44 0-.793.058-.793.13 0 .072-.225.13-.5.13-.347 0-.557.079-.69.26-.104.143-.295.26-.425.26-.129 0-.235.059-.235.13 0 .072-.297.13-.66.13-.364 0-.66.059-.66.13 0 .072-.166.13-.368.13-.216 0-.446.107-.558.26-.105.143-.296.26-.425.26-.13 0-.235.059-.235.13 0 .072-.179.13-.397.13-.218 0-.396.059-.396.13 0 .072-.154.13-.343.13-.212 0-.486.15-.714.39-.227.24-.502.39-.713.39-.19 0-.344.059-.344.13 0 .072-.106.13-.235.13-.13 0-.32.117-.425.26-.105.143-.297.26-.426.26-.13 0-.235.059-.235.13 0 .072-.119.13-.264.13-.145 0-.264.059-.264.13 0 .072-.095.13-.212.13-.116 0-.377.176-.581.39-.204.215-.465.39-.581.39-.117 0-.212.059-.212.13 0 .072-.095.13-.211.13-.116 0-.378.176-.581.39-.204.215-.44.39-.526.39-.086 0-.384.234-.663.52-.28.286-.575.52-.656.52-.082 0-.619.468-1.194 1.04-.575.572-1.11 1.04-1.188 1.04-.186 0-1.058.86-1.058 1.043 0 .078-.357.486-.793.907-.436.421-.792.857-.792.968 0 .115-.114.202-.265.202-.176 0-.264.087-.264.26 0 .143-.06.26-.132.26-.073 0-.132.093-.132.208 0 .114-.178.372-.396.572-.218.2-.397.445-.397.543 0 .099-.119.264-.264.367-.145.103-.264.268-.264.367 0 .098-.178.343-.396.543-.219.2-.397.493-.397.65 0 .157-.178.45-.396.65-.244.224-.397.494-.397.702 0 .186-.059.338-.132.338-.072 0-.132.117-.132.26 0 .143-.06.26-.132.26-.073 0-.132.104-.132.231 0 .128-.119.316-.264.419a.707.707 0 00-.264.549c0 .198-.06.361-.133.361-.072 0-.132.176-.132.39 0 .215-.06.39-.132.39-.073 0-.132.117-.132.26 0 .143-.06.26-.132.26-.073 0-.132.117-.132.26 0 .143-.06.26-.132.26-.073 0-.132.176-.132.39 0 .215-.06.39-.133.39-.072 0-.132.293-.132.65 0 .358-.06.65-.132.65-.072 0-.132.117-.132.26 0 .143-.06.26-.132.26-.073 0-.132.117-.132.26 0 .143-.06.26-.132.26-.075 0-.132.38-.132.881 0 .732.044.913.264 1.069.145.103.264.265.264.36 0 .292.63.81.985.81.185 0 .336.058.336.13 0 .071.12.13.265.13.145 0 .264.059.264.13 0 .086 11.273.13 33.557.13 22.283 0 33.557-.044 33.557-.13 0-.071.165-.13.367-.13.215 0 .446-.107.557-.26.105-.143.271-.26.37-.26.241 0 .555-.325.555-.576 0-.112.06-.204.132-.204.08 0 .132-.52.132-1.3s-.052-1.3-.132-1.3c-.072 0-.132-.234-.132-.52 0-.286-.06-.52-.132-.52-.073 0-.132-.117-.132-.26 0-.143-.06-.26-.132-.26-.073 0-.132-.117-.132-.26 0-.143-.06-.26-.132-.26-.073 0-.132-.234-.132-.52 0-.286-.06-.52-.133-.52-.072 0-.132-.175-.132-.39 0-.214-.06-.39-.132-.39-.073 0-.132-.104-.132-.231 0-.128-.119-.316-.264-.419a.706.706 0 01-.264-.549c0-.198-.06-.361-.133-.361-.072 0-.132-.163-.132-.361a.707.707 0 00-.264-.549c-.145-.103-.264-.291-.264-.419 0-.127-.06-.231-.132-.231-.073 0-.132-.117-.132-.26 0-.143-.06-.26-.132-.26-.073 0-.132-.093-.132-.208 0-.114-.179-.372-.397-.572-.218-.2-.396-.493-.396-.65 0-.157-.179-.45-.397-.65-.218-.2-.396-.445-.396-.543 0-.099-.119-.264-.264-.367-.145-.103-.264-.267-.264-.364 0-.097-.238-.401-.529-.676-.29-.275-.528-.567-.528-.65 0-.083-.238-.375-.529-.65-.29-.275-.528-.592-.528-.705a.207.207 0 00-.208-.205c-.24 0-.585-.304-.585-.517 0-.188-.604-.783-.796-.783-.216 0-.525-.339-.525-.576a.206.206 0 00-.207-.204c-.114 0-.496-.293-.85-.65-.354-.358-.711-.65-.794-.65-.083 0-.38-.234-.66-.52-.278-.286-.577-.52-.662-.52-.086 0-.323-.175-.526-.39-.204-.214-.465-.39-.582-.39-.116 0-.21-.058-.21-.13 0-.071-.096-.13-.212-.13-.116 0-.378-.175-.582-.39-.203-.214-.465-.39-.581-.39-.116 0-.211-.058-.211-.13 0-.071-.12-.13-.264-.13-.146 0-.265-.058-.265-.13 0-.071-.106-.13-.235-.13-.13 0-.32-.117-.425-.26-.105-.143-.297-.26-.426-.26s-.235-.058-.235-.13c0-.071-.154-.13-.343-.13-.211 0-.486-.15-.714-.39-.227-.24-.502-.39-.713-.39-.19 0-.344-.058-.344-.13 0-.071-.178-.13-.396-.13-.218 0-.396-.058-.396-.13 0-.071-.106-.13-.235-.13-.13 0-.321-.117-.426-.26-.112-.153-.342-.26-.558-.26-.201 0-.367-.058-.367-.13 0-.071-.237-.13-.528-.13-.29 0-.529-.058-.529-.13 0-.071-.165-.13-.367-.13-.215 0-.446-.107-.557-.26-.145-.198-.343-.26-.822-.26-.347 0-.632-.058-.632-.13 0-.071-.297-.13-.66-.13-.364 0-.66-.058-.66-.13 0-.071-.18-.13-.397-.13-.218 0-.397-.058-.397-.13 0-.071-.237-.13-.528-.13-.29 0-.528-.058-.528-.13 0-.074-.397-.13-.925-.13-.529 0-.925-.056-.925-.13 0-.073-.376-.13-.865-.13-.742 0-.91-.045-1.189-.319l-.324-.32V86.439l.324-.319.325-.319h17.51c11.587 0 17.512-.044 17.512-.13 0-.072.09-.13.202-.13.263 0 1.119-.842 1.119-1.1 0-.11.06-.2.132-.2.073 0 .132-.175.132-.39 0-.215.06-.39.132-.39.073 0 .132-.104.132-.231s.119-.316.265-.419c.184-.13.264-.337.264-.679 0-.27.059-.491.132-.491.073 0 .132-.175.132-.39 0-.215.059-.39.132-.39.073 0 .132-.104.132-.231 0-.128.119-.316.264-.419a.704.704 0 00.265-.549c0-.198.059-.361.132-.361.072 0 .132-.175.132-.39 0-.215.059-.39.132-.39.073 0 .132-.117.132-.26 0-.143.06-.26.132-.26.073 0 .132-.117.132-.26 0-.143.06-.26.132-.26.073 0 .133-.175.133-.39 0-.215.059-.39.132-.39.072 0 .132-.175.132-.39 0-.215.059-.39.132-.39.073 0 .132-.104.132-.231s.119-.316.264-.419a.706.706 0 00.264-.549c0-.198.06-.361.133-.361.072 0 .132-.234.132-.52 0-.286.059-.52.132-.52.072 0 .132-.104.132-.231s.119-.316.264-.419a.706.706 0 00.264-.549c0-.198.06-.361.132-.361.073 0 .133-.221.133-.491 0-.342.08-.549.264-.679.145-.103.264-.291.264-.419 0-.127.06-.231.132-.231.073 0 .132-.175.132-.39 0-.215.06-.39.132-.39.073 0 .133-.175.133-.39 0-.215.059-.39.132-.39.072 0 .132-.104.132-.231s.119-.316.264-.419a.706.706 0 00.264-.549c0-.198.06-.361.132-.361.073 0 .132-.234.132-.52 0-.286.06-.52.133-.52.072 0 .132-.104.132-.231 0-.128.119-.316.264-.419a.706.706 0 00.264-.549c0-.198.06-.361.132-.361.073 0 .132-.175.132-.39 0-.215.06-.39.132-.39.073 0 .133-.117.133-.26 0-.143.059-.26.132-.26.072 0 .132-.117.132-.26 0-.143.059-.26.132-.26.073 0 .132-.175.132-.39 0-.215.059-.39.132-.39.073 0 .132-.175.132-.39 0-.214.06-.39.132-.39.073 0 .132-.117.132-.26 0-.143.06-.26.133-.26.072 0 .132-.117.132-.26 0-.143.059-.26.132-.26.072 0 .132-.117.132-.26 0-.143.059-.26.132-.26.073 0 .132-.234.132-.52 0-.286.06-.52.132-.52.073 0 .132-.104.132-.231s.119-.316.265-.419a.706.706 0 00.264-.549c0-.198.059-.361.132-.361.073 0 .132-.175.132-.39 0-.215.06-.39.132-.39.073 0 .132-.117.132-.26 0-.143.06-.26.132-.26.073 0 .133-.117.133-.26 0-.143.059-.26.132-.26.072 0 .132-.175.132-.39 0-.215.059-.39.132-.39.073 0 .132-.175.132-.39 0-.215.059-.39.132-.39.073 0 .132-.117.132-.26 0-.143.06-.26.132-.26.073 0 .132-.117.132-.26 0-.143.06-.26.133-.26.072 0 .132-.175.132-.39 0-.214.059-.39.132-.39.072 0 .132-.175.132-.39 0-.215.059-.39.132-.39.073 0 .132-.104.132-.231s.119-.316.264-.419a.707.707 0 00.265-.549c0-.198.059-.361.132-.361.072 0 .132-.175.132-.39 0-.215.059-.39.132-.39.073 0 .132-.117.132-.26 0-.143.059-.26.132-.26.073 0 .132-.117.132-.26 0-.143.06-.26.132-.26.073 0 .132-.175.132-.39 0-.215.06-.39.133-.39.072 0 .132-.175.132-.39 0-.215.059-.39.132-.39.072 0 .132-.117.132-.26 0-.143.059-.26.132-.26.073 0 .132-.117.132-.26 0-.143.06-.26.132-.26.073 0 .132-.175.132-.39 0-.215.06-.39.133-.39.072 0 .132-.175.132-.39 0-.214.059-.39.132-.39.072 0 .132-.104.132-.231 0-.128.119-.316.264-.419a.706.706 0 00.264-.549c0-.198.06-.361.132-.361.073 0 .133-.221.133-.491 0-.342.08-.549.264-.679.145-.103.264-.291.264-.419 0-.127.059-.231.132-.231.073 0 .132-.175.132-.39 0-.215.06-.39.132-.39.073 0 .132-.175.132-.39 0-.215.06-.39.133-.39.072 0 .132-.117.132-.26 0-.143.059-.26.132-.26.072 0 .132-.117.132-.26 0-.143.059-.26.132-.26.073 0 .132-.175.132-.39 0-.215.06-.39.132-.39.073 0 .132-.175.132-.39 0-.215.06-.39.132-.39.073 0 .133-.117.133-.26 0-.143.059-.26.132-.26.072 0 .132-.117.132-.26 0-.143.059-.26.132-.26.073 0 .132-.175.132-.39 0-.215.059-.39.132-.39.073 0 .132-.175.132-.39 0-.214.06-.39.132-.39.073 0 .132-.104.132-.231 0-.128.119-.316.265-.419a.706.706 0 00.264-.549c0-.198.059-.361.132-.361.073 0 .132-.175.132-.39 0-.215.06-.39.132-.39.073 0 .132-.117.132-.26 0-.143.06-.26.133-.26.072 0 .132-.117.132-.26 0-.143.059-.26.132-.26.072 0 .132-.175.132-.39 0-.215.059-.39.132-.39.073 0 .132-.234.132-.52 0-.286.06-.52.132-.52.073 0 .132-.104.132-.231s.119-.316.265-.419a.706.706 0 00.264-.549c0-.198.059-.361.132-.361.073 0 .132-.176.132-.39 0-.215.059-.39.132-.39.073 0 .132-.117.132-.26 0-.143.06-.26.132-.26.073 0 .132-.117.132-.26 0-.143.06-.26.133-.26.072 0 .132-.175.132-.39 0-.215.059-.39.132-.39.072 0 .132-.175.132-.39 0-.215.059-.39.132-.39.073 0 .132-.104.132-.231 0-.128.119-.316.264-.419a.707.707 0 00.265-.549c0-.198.059-.361.132-.361.072 0 .132-.221.132-.491 0-.342.08-.549.264-.679.145-.103.264-.291.264-.419 0-.127.06-.231.132-.231.073 0 .133-.175.133-.39 0-.215.059-.39.132-.39.072 0 .132-.175.132-.39 0-.214.059-.39.132-.39.073 0 .132-.117.132-.26 0-.143.059-.26.132-.26.073 0 .132-.117.132-.26 0-.143.06-.26.132-.26.073 0 .132-.175.132-.39 0-.215.06-.39.133-.39.072 0 .132-.176.132-.39 0-.215.059-.39.132-.39.072 0 .132-.117.132-.26 0-.143.059-.26.132-.26.073 0 .132-.117.132-.26 0-.143.06-.26.132-.26.073 0 .132-.117.132-.26 0-.143.06-.26.132-.26.073 0 .133-.234.133-.52 0-.286.059-.52.132-.52.072 0 .132-.175.132-.39 0-.214.059-.39.132-.39.073 0 .132-.176.132-.39 0-.215-.059-.39-.132-.39-.073 0-.132-.234-.132-.52 0-.286-.06-.52-.132-.52-.073 0-.132-.234-.132-.52 0-.286-.06-.52-.133-.52-.072 0-.132-.117-.132-.26 0-.143-.059-.26-.132-.26-.072 0-.132-.117-.132-.26 0-.143-.059-.26-.132-.26-.073 0-.132-.117-.132-.26 0-.143-.06-.26-.132-.26-.073 0-.132-.176-.132-.39 0-.215-.06-.39-.132-.39-.073 0-.133-.104-.133-.231 0-.128-.118-.316-.264-.419-.145-.103-.264-.291-.264-.419 0-.127-.059-.231-.132-.231-.073 0-.132-.089-.132-.197 0-.224-2.43-2.663-2.654-2.663-.081 0-.313-.175-.517-.39-.228-.24-.502-.39-.714-.39-.188 0-.343-.058-.343-.13 0-.071-.178-.13-.396-.13-.218 0-.397-.058-.397-.13 0-.071-.105-.13-.235-.13-.129 0-.32-.117-.425-.26-.105-.143-.296-.26-.426-.26-.129 0-.235-.058-.235-.13 0-.072-.178-.13-.396-.13-.218 0-.396-.058-.396-.13 0-.072-.179-.13-.397-.13-.218 0-.396-.058-.396-.13 0-.085-2.686-.13-7.795-.13-5.108 0-7.795.045-7.795.13zm15.326 5.2c0 .072.297.13.66.13.364 0 .661.059.661.13 0 .072.119.13.264.13.145 0 .264.059.264.13 0 .072.095.13.212.13.116 0 .377.175.581.39.204.215.438.39.521.39.196 0 .8.594.8.787 0 .082.178.313.396.513.218.2.397.458.397.572 0 .115.059.208.132.208.073 0 .132.234.132.52 0 .286.059.52.132.52.077 0 .132.433.132 1.04s-.055 1.04-.132 1.04c-.073 0-.132.292-.132.65 0 .357-.059.65-.132.65-.073 0-.132.117-.132.26 0 .143-.06.26-.132.26-.073 0-.132.117-.132.26 0 .143-.06.26-.133.26-.072 0-.132.175-.132.39 0 .215-.059.39-.132.39-.072 0-.132.175-.132.39 0 .214-.059.39-.132.39-.073 0-.132.104-.132.231s-.119.316-.264.419a.707.707 0 00-.265.549c0 .198-.059.361-.132.361-.072 0-.132.234-.132.52 0 .286-.059.52-.132.52-.073 0-.132.104-.132.231 0 .128-.119.316-.264.419a.707.707 0 00-.265.549c0 .198-.059.361-.132.361-.072 0-.132.175-.132.39 0 .215-.059.39-.132.39-.073 0-.132.117-.132.26 0 .143-.059.26-.132.26-.073 0-.132.117-.132.26 0 .143-.06.26-.132.26-.073 0-.132.175-.132.39 0 .215-.06.39-.133.39-.072 0-.132.175-.132.39 0 .214-.059.39-.132.39-.072 0-.132.117-.132.26 0 .143-.059.26-.132.26-.073 0-.132.117-.132.26 0 .143-.06.26-.132.26-.073 0-.132.175-.132.39 0 .215-.06.39-.132.39-.073 0-.133.175-.133.39 0 .215-.059.39-.132.39-.072 0-.132.104-.132.231s-.119.316-.264.419a.706.706 0 00-.264.549c0 .198-.06.361-.132.361-.073 0-.132.234-.132.52 0 .286-.06.52-.133.52-.072 0-.132.104-.132.231 0 .128-.119.316-.264.419a.706.706 0 00-.264.549c0 .198-.06.361-.132.361-.073 0-.132.221-.132.491 0 .342-.081.549-.265.679-.145.103-.264.292-.264.419s-.059.231-.132.231c-.073 0-.132.176-.132.39 0 .215-.06.39-.132.39-.073 0-.132.175-.132.39 0 .215-.06.39-.132.39-.073 0-.133.117-.133.26 0 .143-.059.26-.132.26-.072 0-.132.117-.132.26 0 .143-.059.26-.132.26-.073 0-.132.117-.132.26 0 .143-.059.26-.132.26-.073 0-.132.234-.132.52 0 .286-.06.52-.132.52-.073 0-.132.104-.132.231s-.119.316-.265.419c-.184.13-.264.337-.264.679 0 .27-.059.491-.132.491-.073 0-.132.175-.132.39 0 .215-.06.39-.132.39-.073 0-.132.104-.132.231 0 .128-.119.316-.265.419a.706.706 0 00-.264.549c0 .198-.059.361-.132.361-.073 0-.132.175-.132.39 0 .215-.059.39-.132.39-.073 0-.132.117-.132.26 0 .143-.06.26-.132.26-.073 0-.132.117-.132.26 0 .143-.06.26-.133.26-.072 0-.132.175-.132.39 0 .215-.059.39-.132.39-.072 0-.132.175-.132.39 0 .215-.059.39-.132.39-.073 0-.132.117-.132.26 0 .143-.06.26-.132.26-.073 0-.132.117-.132.26 0 .143-.06.26-.132.26-.073 0-.133.175-.133.39 0 .215-.059.39-.132.39-.072 0-.132.175-.132.39 0 .215-.059.39-.132.39-.073 0-.132.104-.132.231s-.119.316-.264.419a.707.707 0 00-.265.549c0 .198-.059.361-.132.361-.072 0-.132.234-.132.52 0 .286-.059.52-.132.52-.073 0-.132.104-.132.231 0 .128-.119.316-.264.419a.706.706 0 00-.264.549c0 .198-.06.361-.133.361-.072 0-.132.221-.132.491 0 .342-.08.549-.264.679-.145.103-.264.291-.264.419 0 .127-.06.231-.132.231-.073 0-.132.175-.132.39 0 .215-.06.39-.132.39-.073 0-.133.175-.133.39 0 .215-.059.39-.132.39-.072 0-.132.117-.132.26 0 .143-.059.26-.132.26-.073 0-.132.117-.132.26 0 .143-.059.26-.132.26-.073 0-.132.175-.132.39 0 .215-.06.39-.132.39-.073 0-.132.175-.132.39 0 .215-.06.39-.133.39-.072 0-.132.104-.132.231s-.119.316-.264.419a.706.706 0 00-.264.549c0 .198-.06.361-.132.361-.073 0-.132.234-.132.52 0 .286-.06.52-.133.52-.072 0-.132.104-.132.231 0 .128-.119.316-.264.419a.706.706 0 00-.264.549c0 .198-.06.361-.132.361-.073 0-.132.234-.132.52 0 .286-.06.52-.132.52-.073 0-.133.104-.133.231s-.118.316-.264.419a.706.706 0 00-.264.549c0 .198-.059.361-.132.361-.073 0-.132.175-.132.39 0 .215-.06.39-.132.39-.073 0-.132.117-.132.26 0 .143-.06.26-.133.26-.072 0-.132.117-.132.26 0 .143-.059.26-.132.26-.072 0-.132.175-.132.39 0 .215-.059.39-.132.39-.073 0-.132.175-.132.39 0 .215-.06.39-.132.39-.073 0-.132.104-.132.231s-.119.316-.265.419c-.184.13-.264.337-.264.679 0 .27-.059.491-.132.491-.073 0-.132.175-.132.39 0 .215-.059.39-.132.39-.073 0-.132.104-.132.231s-.119.316-.264.419a.704.704 0 00-.265.549c0 .198-.059.361-.132.361-.073 0-.132.234-.132.52 0 .286-.06.52-.132.52-.073 0-.132.104-.132.231s-.12.316-.264.419a.706.706 0 00-.265.549c0 .198-.06.361-.132.361-.072 0-.132.176-.132.39 0 .215-.06.39-.132.39-.073 0-.132.117-.132.26 0 .143-.06.26-.132.26-.073 0-.132.117-.132.26 0 .143-.06.26-.132.26-.073 0-.133.175-.133.39 0 .215-.059.39-.132.39-.072 0-.132.175-.132.39 0 .215-.06.39-.132.39-.073 0-.132.117-.132.26 0 .143-.06.26-.132.26-.073 0-.132.117-.132.26 0 .143-.06.26-.132.26-.073 0-.132.175-.132.39 0 .215-.06.39-.133.39-.072 0-.132.175-.132.39 0 .215-.06.39-.132.39-.073 0-.132.09-.132.2 0 .258-.855 1.1-1.118 1.1-.112 0-.203.059-.203.13 0 .072-.178.13-.396.13-.218 0-.397-.058-.397-.13 0-.086-12.242-.13-36.463-.13s-36.464-.044-36.464-.13c0-.072-.119-.13-.264-.13-.145 0-.264-.059-.264-.13 0-.072-.119-.13-.264-.13-.146 0-.264-.058-.264-.13 0-.072-.238-.13-.529-.13-.29 0-.528-.058-.528-.13 0-.072-.155-.13-.344-.13-.21 0-.486-.15-.713-.39-.204-.215-.466-.39-.582-.39-.116 0-.211-.058-.211-.13 0-.072-.094-.13-.209-.13-.114 0-.436-.234-.716-.52-.28-.286-.576-.52-.66-.52-.195 0-.529-.328-.529-.52 0-.08-.297-.432-.66-.78-.364-.348-.66-.712-.66-.808 0-.096-.12-.259-.265-.362-.146-.103-.264-.291-.264-.419 0-.127-.06-.231-.133-.231-.072 0-.132-.117-.132-.26 0-.143-.06-.26-.132-.26-.072 0-.132-.175-.132-.39 0-.215-.06-.39-.132-.39-.073 0-.132-.117-.132-.26 0-.143-.06-.26-.132-.26-.073 0-.132-.117-.132-.26 0-.143-.06-.26-.132-.26-.084 0-.133-.91-.133-2.47s.05-2.47.133-2.47c.072 0 .132-.175.132-.39 0-.215.06-.39.132-.39.072 0 .132-.117.132-.26 0-.143.06-.26.132-.26.073 0 .132-.175.132-.39 0-.215.06-.39.132-.39.073 0 .132-.152.132-.338 0-.208.153-.478.397-.702.218-.2.396-.458.396-.572 0-.114.06-.208.132-.208.073 0 .132-.089.132-.197 0-.257 1.917-2.143 2.178-2.143.11 0 .2-.059.2-.13 0-.072.12-.13.265-.13.176 0 .264-.087.264-.26 0-.173.088-.26.264-.26.145 0 .264-.059.264-.13 0-.072.12-.13.265-.13.145 0 .264-.058.264-.13 0-.072.119-.13.264-.13.145 0 .264-.059.264-.13 0-.071.106-.13.235-.13.13 0 .321-.117.426-.26.145-.198.342-.26.822-.26.347 0 .631-.058.631-.13 0-.072.297-.13.66-.13.364 0 .661-.059.661-.13 0-.072.297-.13.66-.13.364 0 .661-.059.661-.13 0-.08.617-.13 1.586-.13.968 0 1.585.05 1.585.13 0 .072.238.13.528.13.291 0 .529.058.529.13 0 .076.44.13 1.057.13.616 0 1.057.054 1.057.13 0 .079.572.13 1.453.13.88 0 1.453.051 1.453.13 0 .072.297.13.66.13.364 0 .661.058.661.13 0 .072.298.13.66.13.364 0 .662.059.662.13 0 .076.44.13 1.056.13.617 0 1.057.054 1.057.13 0 .078.529.13 1.322.13.792 0 1.32.052 1.32.13 0 .072.353.13.793.13.44 0 .793.058.793.13 0 .072.238.13.528.13.291 0 .529.059.529.13 0 .076.44.13 1.057.13.616 0 1.057.054 1.057.13 0 .079.572.13 1.453.13.88 0 1.453.051 1.453.13 0 .072.297.13.66.13.364 0 .661.058.661.13 0 .072.298.13.66.13.364 0 .662.059.662.13 0 .076.44.13 1.056.13.617 0 1.057.054 1.057.13 0 .079.573.13 1.454.13.88 0 1.453.051 1.453.13 0 .072.297.13.66.13.364 0 .66.059.66.13 0 .072.239.13.53.13.29 0 .528.059.528.13 0 .076.44.13 1.057.13.616 0 1.057.054 1.057.13 0 .079.572.13 1.453.13.88 0 1.453.051 1.453.13 0 .072.352.13.793.13.44 0 .793.058.793.13 0 .072.237.13.528.13.29 0 .528.059.528.13 0 .076.44.13 1.057.13s1.057.054 1.057.13c0 .079.573.13 1.454.13.88 0 1.453.051 1.453.13 0 .072.297.13.66.13.364 0 .66.058.66.13 0 .072.298.13.662.13.363 0 .66.058.66.13 0 .076.44.13 1.057.13s1.057.054 1.057.13c0 .078.528.13 1.321.13.793 0 1.321.052 1.321.13 0 .072.352.13.793.13.44 0 .793.058.793.13 0 .072.237.13.528.13.29 0 .528.059.528.13 0 .074.397.13.925.13.529 0 .925.056.925.13 0 .072.297.13.66.13.364 0 .661-.059.661-.13 0-.072.153-.13.34-.13.356 0 .717-.264.717-.523 0-.084.178-.317.396-.517.218-.2.397-.458.397-.572 0-.115.06-.208.132-.208.072 0 .132-.234.132-.52 0-.286.06-.52.132-.52.074 0 .132-.347.132-.78 0-.433.059-.78.132-.78.073 0 .132-.175.132-.39 0-.215.06-.39.133-.39.072 0 .132-.175.132-.39 0-.215.06-.39.132-.39.072 0 .132-.234.132-.52 0-.286.06-.52.132-.52.073 0 .132-.347.132-.78 0-.433.059-.78.132-.78.073 0 .132-.175.132-.39 0-.215.06-.39.132-.39.073 0 .133-.175.133-.39 0-.215.059-.39.132-.39.072 0 .132-.234.132-.52 0-.286.06-.52.132-.52.073 0 .132-.347.132-.78 0-.433.059-.78.132-.78.073 0 .132-.175.132-.39 0-.215.06-.39.132-.39.073 0 .133-.175.133-.39 0-.214.059-.39.132-.39.072 0 .132-.234.132-.52 0-.286.06-.52.132-.52.075 0 .132-.39.132-.91s.057-.91.132-.91c.073 0 .132-.117.132-.26 0-.143.06-.26.132-.26.073 0 .132-.175.132-.39 0-.215.06-.39.132-.39.073 0 .133-.234.133-.52 0-.286.06-.52.132-.52.073 0 .132-.347.132-.78 0-.433.058-.78.132-.78.073 0 .132-.175.132-.39 0-.215.06-.39.132-.39.073 0 .132-.175.132-.39 0-.214.06-.39.132-.39.073 0 .133-.234.133-.52 0-.286.059-.52.132-.52.073 0 .132-.347.132-.78 0-.433.058-.78.132-.78.072 0 .132-.175.132-.39 0-.215.06-.39.132-.39.073 0 .132-.175.132-.39 0-.215.06-.39.132-.39.073 0 .133-.234.133-.52 0-.286.059-.52.132-.52.073 0 .132-.347.132-.78 0-.433.058-.78.132-.78.073 0 .132-.175.132-.39 0-.215.06-.39.132-.39.073 0 .132-.175.132-.39 0-.214.06-.39.132-.39.073 0 .132-.234.132-.52 0-.286.06-.52.132-.52.074 0 .133-.347.133-.78 0-.433.058-.78.132-.78.072 0 .132-.175.132-.39 0-.215.06-.39.132-.39.073 0 .132-.175.132-.39 0-.215.06-.39.132-.39.073 0 .132-.234.132-.52 0-.286.06-.52.132-.52.076 0 .133-.39.133-.91s.056-.91.132-.91c.072 0 .132-.117.132-.26 0-.143.06-.26.132-.26.073 0 .132-.175.132-.39 0-.215.06-.39.132-.39.073 0 .132-.234.132-.52 0-.286.06-.52.132-.52.074 0 .132-.347.132-.78 0-.433.06-.78.132-.78.073 0 .133-.176.133-.39 0-.215.06-.39.132-.39.072 0 .132-.175.132-.39 0-.215.06-.39.132-.39.073 0 .132-.234.132-.52 0-.286.06-.52.132-.52.074 0 .132-.347.132-.78 0-.433.059-.78.132-.78.073 0 .133-.176.133-.39 0-.215.059-.39.132-.39.072 0 .132-.175.132-.39 0-.215.06-.39.132-.39.073 0 .132-.234.132-.52 0-.286.06-.52.132-.52.074 0 .132-.347.132-.78 0-.433.059-.78.132-.78.073 0 .132-.175.132-.39 0-.215.06-.39.133-.39.072 0 .132-.175.132-.39 0-.214.06-.39.132-.39.073 0 .132-.234.132-.52 0-.286.06-.52.132-.52.074 0 .132-.347.132-.78 0-.433.059-.78.132-.78.073 0 .132-.175.132-.39 0-.215.06-.39.133-.39.072 0 .132-.175.132-.39 0-.214.06-.39.132-.39.072 0 .132-.234.132-.52 0-.286.06-.52.132-.52.073 0 .132-.15.132-.335 0-.221.18-.505.529-.835.29-.275.528-.592.528-.705 0-.113.094-.205.208-.205.115 0 .437-.234.717-.52.407-.417.601-.52.98-.52.26 0 .473-.058.473-.13 0-.071.238-.13.528-.13.291 0 .529-.058.529-.13 0-.085 2.554-.13 7.398-.13 4.845 0 7.399.045 7.399.13zM89.12 25.926c.104.102.189.277.189.39 0 .112.06.204.132.204.073 0 .132.234.132.52 0 .286-.06.52-.132.52-.073 0-.132.347-.132.78 0 .433-.059.78-.132.78-.073 0-.132.175-.132.39 0 .214-.06.39-.132.39-.073 0-.132.117-.132.26 0 .143-.06.26-.133.26-.072 0-.132.292-.132.65 0 .357-.06.65-.132.65-.073 0-.132.347-.132.78 0 .433-.059.78-.132.78-.073 0-.132.175-.132.39 0 .215-.06.39-.132.39-.073 0-.132.117-.132.26 0 .143-.06.26-.133.26-.072 0-.132.293-.132.65 0 .358-.06.65-.132.65-.073 0-.132.347-.132.78 0 .433-.058.78-.132.78-.073 0-.132.175-.132.39 0 .215-.06.39-.132.39-.073 0-.132.117-.132.26 0 .143-.06.26-.132.26-.073 0-.133.292-.133.65 0 .358-.059.65-.132.65-.073 0-.132.347-.132.78 0 .433-.058.78-.132.78-.073 0-.132.175-.132.39 0 .215-.06.39-.132.39-.073 0-.132.117-.132.26 0 .143-.06.26-.132.26-.073 0-.132.293-.132.65 0 .358-.06.65-.133.65-.072 0-.132.292-.132.65 0 .358-.06.65-.132.65-.073 0-.132.175-.132.39 0 .215-.06.39-.132.39-.073 0-.132.175-.132.39 0 .215-.06.39-.132.39-.073 0-.132.292-.132.65 0 .358-.06.65-.133.65-.072 0-.132.293-.132.65 0 .358-.06.65-.132.65-.072 0-.132.176-.132.39 0 .215-.06.39-.132.39-.073 0-.132.175-.132.39 0 .215-.06.39-.132.39-.073 0-.132.293-.132.65 0 .358-.06.65-.132.65-.073 0-.132.292-.132.65 0 .358-.06.65-.133.65-.072 0-.132.175-.132.39 0 .215-.06.39-.132.39-.072 0-.132.175-.132.39 0 .215-.06.39-.132.39-.073 0-.132.292-.132.65 0 .358-.06.65-.132.65-.073 0-.132.292-.132.65 0 .358-.06.65-.133.65-.072 0-.132.176-.132.39 0 .215-.06.39-.132.39-.072 0-.132.117-.132.26 0 .143-.06.26-.132.26-.073 0-.132.175-.132.39 0 .215-.06.39-.132.39-.073 0-.132.092-.132.204 0 .366-.358.576-.982.576-.332 0-.604-.059-.604-.13 0-.072-.297-.13-.66-.13-.364 0-.66-.058-.66-.13 0-.072-.239-.13-.53-.13-.29 0-.528-.059-.528-.13 0-.076-.44-.13-1.057-.13-.616 0-1.057-.054-1.057-.13 0-.078-.528-.13-1.32-.13-.793 0-1.322-.052-1.322-.13 0-.072-.352-.13-.793-.13-.44 0-.792-.058-.792-.13 0-.071-.238-.13-.529-.13-.29 0-.528-.059-.528-.13 0-.076-.44-.13-1.057-.13s-1.057-.054-1.057-.13c0-.079-.572-.13-1.453-.13-.881 0-1.453-.051-1.453-.13 0-.072-.298-.13-.661-.13-.363 0-.66-.059-.66-.13 0-.072-.238-.13-.529-.13-.29 0-.529-.059-.529-.13 0-.077-.484-.13-1.189-.13-.704 0-1.189-.053-1.189-.13 0-.078-.528-.13-1.32-.13-.793 0-1.322-.052-1.322-.13 0-.072-.297-.13-.66-.13-.364 0-.661-.059-.661-.13 0-.072-.297-.13-.66-.13-.364 0-.661-.059-.661-.13 0-.076-.44-.13-1.057-.13s-1.057-.054-1.057-.13c0-.078-.528-.13-1.321-.13-.793 0-1.321-.052-1.321-.13 0-.072-.353-.13-.793-.13-.44 0-.793-.058-.793-.13 0-.072-.237-.13-.528-.13-.29 0-.529-.058-.529-.13 0-.076-.44-.13-1.056-.13-.617 0-1.057-.054-1.057-.13 0-.079-.573-.13-1.454-.13-.88 0-1.453-.051-1.453-.13 0-.072-.297-.13-.66-.13-.364 0-.66-.059-.66-.13 0-.072-.298-.13-.661-.13-.364 0-.661-.058-.661-.13 0-.077-.484-.13-1.19-.13-.704 0-1.188-.053-1.188-.13 0-.072-.153-.13-.34-.13-.187 0-.425-.084-.528-.186-.217-.213-.253-.594-.057-.594.073 0 .132-.175.132-.39 0-.215.06-.39.132-.39.073 0 .132-.093.132-.208 0-.114.179-.372.397-.572.218-.2.396-.458.396-.572 0-.114.06-.208.132-.208.073 0 .132-.117.132-.26 0-.143.06-.26.132-.26.073 0 .133-.104.133-.231s.119-.316.264-.419c.145-.103.264-.291.264-.419 0-.127.06-.231.132-.231.073 0 .132-.093.132-.208 0-.114.179-.372.397-.572.218-.2.396-.458.396-.572 0-.114.06-.208.132-.208.073 0 .132-.117.132-.26 0-.143.06-.26.132-.26.073 0 .132-.104.132-.231s.12-.316.265-.419c.145-.103.264-.291.264-.419 0-.127.06-.231.132-.231.073 0 .132-.093.132-.208 0-.114.178-.372.396-.572.218-.2.397-.458.397-.572 0-.114.06-.208.132-.208.072 0 .132-.117.132-.26 0-.143.06-.26.132-.26.073 0 .132-.104.132-.231s.12-.316.264-.419c.146-.103.265-.291.265-.419 0-.127.06-.231.132-.231.072 0 .132-.093.132-.208 0-.114.178-.372.396-.572.218-.2.397-.458.397-.572 0-.114.059-.208.132-.208.072 0 .132-.117.132-.26 0-.143.06-.26.132-.26.073 0 .132-.093.132-.208 0-.114.178-.372.396-.572.218-.2.397-.493.397-.65 0-.157.178-.45.396-.65.218-.2.396-.433.396-.517 0-.084.238-.378.529-.653.29-.275.528-.563.528-.64 0-.202 4.058-4.17 4.264-4.17.093 0 .256-.117.36-.26.105-.143.273-.26.373-.26.1 0 .349-.175.552-.39.204-.215.441-.39.529-.39.087 0 .324-.175.528-.39.204-.215.465-.39.581-.39.117 0 .212-.058.212-.13 0-.072.154-.13.343-.13.211 0 .486-.15.714-.39.227-.24.502-.39.713-.39.19 0 .344-.059.344-.13 0-.072.105-.13.235-.13.129 0 .32-.117.425-.26.105-.143.296-.26.426-.26.129 0 .235-.058.235-.13 0-.072.178-.13.396-.13.218 0 .396-.059.396-.13 0-.072.179-.13.397-.13.218 0 .396-.058.396-.13 0-.072.106-.13.235-.13.13 0 .32-.117.426-.26.144-.198.342-.26.821-.26.348 0 .632-.058.632-.13 0-.072.238-.13.528-.13.29 0 .529-.059.529-.13 0-.072.119-.13.264-.13.145 0 .264-.058.264-.13 0-.072.178-.13.396-.13.219 0 .397-.059.397-.13 0-.076.44-.13 1.057-.13.616 0 1.057-.054 1.057-.13 0-.077.484-.13 1.189-.13.704 0 1.189-.053 1.189-.13 0-.085 3.39-.13 9.908-.13 6.518 0 9.909-.044 9.909-.13 0-.2.919-.154 1.132.056zM63.15 105.43c0 .079.573.13 1.454.13.88 0 1.453.051 1.453.13 0 .072.238.13.528.13.291 0 .529.059.529.13 0 .072.119.13.264.13.145 0 .264.059.264.13 0 .072.297.13.66.13.364 0 .661.059.661.13 0 .072.298.13.661.13.363 0 .66.059.66.13 0 .072.12.13.265.13.145 0 .264.059.264.13 0 .072.119.13.264.13.146 0 .264.059.264.13 0 .072.179.13.397.13.218 0 .396.059.396.13 0 .072.225.13.5.13.347 0 .556.079.69.26.104.143.295.26.425.26.129 0 .235.059.235.13 0 .072.178.13.396.13.218 0 .396.059.396.13 0 .072.12.13.265.13.145 0 .264.059.264.13 0 .072.106.13.235.13.13 0 .32.117.425.26.105.143.297.26.426.26.13 0 .235.059.235.13 0 .072.153.13.34.13.225 0 .514.177.849.52.28.286.588.52.687.52.099 0 .265.117.37.26.105.143.283.26.396.26.114 0 .292.117.397.26.104.143.27.26.37.26.098 0 .407.234.687.52.279.286.572.52.651.52.188 0 2.651 2.423 2.651 2.608 0 .185.337.512.529.512.195 0 .528.328.528.521 0 .082.238.374.529.649.29.275.528.592.528.705 0 .113.06.205.132.205.073 0 .132.093.132.208 0 .114.179.372.397.572.218.2.396.493.396.65 0 .157.179.45.397.65.218.2.396.458.396.572 0 .115.06.208.132.208.073 0 .132.117.132.26 0 .143.06.26.132.26.073 0 .132.163.132.361 0 .212.11.439.264.549.146.103.265.291.265.419 0 .127.06.231.132.231.072 0 .132.117.132.26 0 .143.06.26.132.26.073 0 .132.117.132.26 0 .143-.06.26-.132.26-.073 0-.132.15-.132.334 0 .184-.085.418-.189.52-.213.21-1.132.255-1.132.056 0-.086-9.38-.13-27.876-.13-18.496 0-27.876.044-27.876.13 0 .072-.238.13-.529.13-.29 0-.528-.058-.528-.13 0-.071-.093-.13-.208-.13-.596 0-.846-1.317-.32-1.69a.706.706 0 00.264-.549c0-.198.06-.361.132-.361.072 0 .132-.117.132-.26 0-.143.06-.26.132-.26.073 0 .132-.104.132-.231 0-.128.119-.316.264-.419.146-.103.264-.291.264-.419 0-.127.06-.231.133-.231.072 0 .132-.117.132-.26 0-.143.06-.26.132-.26.072 0 .132-.093.132-.208 0-.114.178-.372.396-.572.218-.2.397-.434.397-.52 0-.086.178-.32.396-.52.218-.2.396-.458.396-.572 0-.115.06-.208.133-.208.072 0 .132-.09.132-.2 0-.11.535-.722 1.189-1.36.654-.638 1.189-1.225 1.189-1.304 0-.188.335-.516.527-.516.083 0 .44-.292.794-.65.354-.357.711-.65.794-.65.083 0 .38-.234.659-.52.28-.286.578-.52.663-.52.086 0 .322-.175.526-.39.204-.214.465-.39.581-.39.117 0 .212-.058.212-.13 0-.071.095-.13.211-.13.116 0 .378-.175.581-.39.228-.24.503-.39.714-.39.189 0 .343-.058.343-.13 0-.071.095-.13.212-.13.116 0 .377-.175.581-.39.228-.24.502-.39.714-.39.188 0 .343-.058.343-.13 0-.071.165-.13.367-.13.216 0 .446-.107.558-.26.105-.143.296-.26.425-.26.13 0 .235-.058.235-.13 0-.071.179-.13.397-.13.218 0 .396-.058.396-.13 0-.071.225-.13.5-.13.347 0 .556-.079.689-.26.105-.143.296-.26.425-.26.13 0 .236-.058.236-.13 0-.072.352-.13.792-.13.44 0 .793-.058.793-.13 0-.071.238-.13.528-.13.291 0 .529-.058.529-.13 0-.071.178-.13.396-.13.218 0 .397-.058.397-.13 0-.071.178-.13.396-.13.218 0 .396-.058.396-.13 0-.079.617-.13 1.586-.13.968 0 1.585-.051 1.585-.13 0-.083 1.145-.13 3.17-.13 2.026 0 3.171.047 3.171.13z" fill="#202020"/></svg>