<svg width="130" height="130" fill="none" xmlns="http://www.w3.org/2000/svg"><path fill-rule="evenodd" clip-rule="evenodd" d="M68.434 17.127c0 .07-.145.128-.322.128-.358 0-1.204.756-1.204 1.077 0 .107-.057.195-.127.195s-.127.114-.127.254-.058.255-.128.255c-.08 0-.127.806-.127 2.163 0 1.357-.047 2.163-.127 2.163-.074 0-.127.424-.127 1.018 0 .594-.053 1.018-.127 1.018-.07 0-.128.229-.128.509s-.057.509-.127.509-.127.172-.127.382c0 .21-.057.381-.127.381s-.127.115-.127.255-.058.254-.128.254-.127.115-.127.255-.057.254-.127.254-.127.115-.127.255-.057.254-.127.254-.128.115-.128.255-.057.254-.127.254-.127.102-.127.227c0 .124-.115.308-.254.41-.14.1-.255.272-.255.381 0 .11-.114.281-.254.382-.14.1-.255.285-.255.41 0 .124-.057.226-.127.226s-.127.102-.127.226c0 .125-.114.31-.254.41-.14.101-.255.286-.255.41 0 .125-.057.227-.127.227s-.127.114-.127.254-.057.255-.127.255-.128.114-.128.254-.057.254-.127.254-.127.115-.127.255-.057.254-.127.254-.127.115-.127.255-.058.254-.128.254-.127.115-.127.255-.057.254-.127.254-.127.115-.127.255-.058.254-.127.254c-.07 0-.128.115-.128.255s-.057.254-.127.254-.127.172-.127.382c0 .21-.057.382-.127.382s-.127.229-.127.509-.058.509-.128.509-.127.286-.127.636c0 .35-.057.636-.127.636-.075 0-.127.467-.127 1.145 0 .679-.052 1.145-.127 1.145-.07 0-.128.115-.128.255 0 .252-.084.254-8.335.254h-8.336l-1.519-1.526c-.835-.84-1.582-1.527-1.66-1.527-.077 0-.36-.23-.63-.51-.268-.28-.578-.508-.689-.508-.11 0-.2-.058-.2-.128s-.102-.127-.227-.127c-.124 0-.309-.114-.41-.254-.1-.14-.285-.255-.41-.255-.124 0-.225-.057-.225-.127s-.115-.127-.255-.127-.254-.058-.254-.128-.172-.127-.382-.127c-.21 0-.382-.057-.382-.127s-.171-.127-.381-.127-.382-.058-.382-.127c0-.07-.172-.128-.381-.128-.21 0-.382-.057-.382-.127s-.286-.127-.636-.127c-.35 0-.636-.057-.636-.127s-.286-.128-.636-.128c-.35 0-.636-.057-.636-.127s-.34-.127-.763-.127c-.424 0-.763-.057-.763-.127 0-.082-1.145-.128-3.18-.128-2.036 0-3.18.046-3.18.128 0 .072-.382.127-.89.127-.51 0-.891.054-.891.127 0 .07-.287.127-.636.127-.35 0-.636.058-.636.128s-.172.127-.382.127c-.21 0-.382.057-.382.127s-.229.127-.508.127c-.28 0-.51.058-.51.128s-.17.127-.38.127-.382.057-.382.127-.115.127-.255.127-.254.058-.254.127c0 .07-.172.128-.382.128-.21 0-.381.057-.381.127s-.115.127-.255.127-.254.057-.254.127-.115.128-.255.128-.254.057-.254.127-.114.127-.254.127-.255.057-.255.127-.102.128-.226.128c-.125 0-.309.114-.41.254-.1.14-.272.255-.381.255-.11 0-.281.114-.382.254-.1.14-.285.255-.41.255-.124 0-.226.057-.226.127s-.091.127-.203.127c-.112 0-.364.172-.56.382-.196.21-.423.382-.505.382-.081 0-.427.286-.767.636-.341.35-.682.636-.758.636-.18 0-1.786 1.608-1.786 1.789 0 .077-.23.36-.51.629-.279.268-.508.556-.508.638 0 .083-.172.31-.382.507-.21.196-.381.435-.381.532 0 .096-.115.258-.255.358-.14.101-.254.273-.254.382 0 .11-.114.281-.254.382-.14.1-.255.285-.255.41 0 .124-.057.226-.127.226s-.127.115-.127.255-.057.254-.127.254-.128.115-.128.255-.057.254-.127.254-.127.114-.127.255c0 .14-.057.254-.127.254s-.127.114-.127.255c0 .14-.058.254-.128.254s-.127.172-.127.382c0 .21-.057.381-.127.381s-.127.115-.127.255-.057.254-.127.254-.128.172-.128.382c0 .21-.057.382-.127.382s-.127.172-.127.382c0 .21-.057.381-.127.381s-.127.23-.127.51-.058.508-.128.508-.127.23-.127.51-.057.508-.127.508-.127.34-.127.764-.057.763-.127.763c-.078 0-.128.594-.128 1.527 0 .933-.05 1.527-.127 1.527-.078 0-.127.636-.127 1.654 0 1.018-.049 1.654-.127 1.654s-.127.636-.127 1.654c0 1.018-.05 1.654-.128 1.654s-.127.637-.127 1.655c0 1.017-.049 1.654-.127 1.654-.079 0-.127.678-.127 1.781 0 1.103-.049 1.782-.127 1.782-.08 0-.128.678-.128 1.78 0 1.104-.048 1.782-.127 1.782s-.127.721-.127 1.909c0 1.188-.048 1.909-.127 1.909s-.127.678-.127 1.78c0 1.104-.049 1.782-.128 1.782-.078 0-.127.679-.127 1.782s-.048 1.781-.127 1.781c-.078 0-.127.636-.127 1.654 0 1.018-.05 1.654-.127 1.654-.078 0-.128.594-.128 1.527 0 .933-.05 1.527-.127 1.527C.046 92.836 0 93.94 0 95.89c0 1.951.046 3.054.127 3.054.07 0 .127.286.127.636 0 .35.058.636.128.636s.127.229.127.509.057.509.127.509.127.172.127.382c0 .21.057.382.127.382s.128.171.128.381.057.382.127.382.127.115.127.255.057.254.127.254.127.172.127.382c0 .21.058.381.128.381s.127.102.127.227c0 .124.114.309.254.41.14.101.255.285.255.41 0 .124.057.226.127.226s.127.102.127.226c0 .125.115.309.254.41.14.101.255.273.255.382 0 .109.114.281.254.382.14.1.255.26.255.354 0 .094.286.45.636.791.35.341.636.682.636.758 0 .182 1.096 1.278 1.278 1.278.078 0 .36.229.63.509.269.279.556.509.638.509.083 0 .31.171.506.381.197.21.449.382.56.382.112 0 .204.057.204.127s.114.127.254.127.255.058.255.128.101.127.226.127c.124 0 .309.114.41.254.107.15.329.255.536.255.195 0 .354.057.354.127s.114.127.254.127.255.058.255.128.171.127.381.127.382.057.382.127.229.127.509.127.509.058.509.128.339.127.763.127.763.056.763.127c0 .079.678.127 1.78.127 1.103 0 1.782-.048 1.782-.127 0-.075.466-.127 1.144-.127.679 0 1.145-.052 1.145-.127 0-.07.287-.128.636-.128.35 0 .636-.057.636-.127s.23-.127.51-.127c.279 0 .508-.057.508-.127s.172-.128.381-.128c.21 0 .382-.057.382-.127s.172-.127.382-.127c.21 0 .381-.057.381-.127s.115-.128.255-.128.254-.057.254-.127.115-.127.255-.127.254-.057.254-.127.114-.128.254-.128.255-.057.255-.127.091-.127.203-.127c.112 0 .364-.172.56-.382.196-.21.42-.381.498-.381.198 0 2.555-2.379 2.555-2.579 0-.091.114-.247.254-.348.14-.101.255-.273.255-.382 0-.109.114-.281.254-.381a.697.697 0 00.254-.538c0-.194.058-.353.128-.353s.127-.115.127-.255.057-.254.127-.254.127-.102.127-.227c0-.124.115-.308.255-.409a.696.696 0 00.254-.537c0-.195.057-.354.127-.354s.127-.115.127-.255.058-.254.128-.254.127-.115.127-.255c0-.139.057-.254.127-.254s.127-.172.127-.382c0-.21.057-.381.127-.381s.128-.115.128-.255.057-.254.127-.254.127-.115.127-.255.057-.254.127-.254.127-.172.127-.382c0-.21.058-.382.128-.382s.127-.114.127-.254.057-.255.127-.255.127-.114.127-.254.057-.255.127-.255.128-.171.128-.381.057-.382.127-.382.127-.115.127-.255.057-.254.127-.254.127-.115.127-.255.058-.254.128-.254.127-.172.127-.382c0-.21.057-.382.127-.382s.127-.114.127-.254.057-.255.127-.255.128-.114.128-.254.057-.255.127-.255.127-.171.127-.381.057-.382.127-.382.127-.115.127-.255.058-.254.128-.254.127-.115.127-.254c0-.14.057-.255.127-.255s.127-.172.127-.382c0-.21.057-.381.127-.381s.128-.115.128-.255.057-.254.127-.254.127-.172.127-.382c0-.333.046-.382.353-.382.208 0 .43.105.538.255.1.14.272.254.381.254.11 0 .28.115.382.255.1.14.285.254.41.254.124 0 .226.057.226.127s.114.128.254.128.255.057.255.127.114.127.254.127.254.057.254.127.115.128.255.128.254.057.254.127.115.127.255.127.254.057.254.127.114.128.254.128.255.057.255.127.229.127.508.127c.28 0 .51.057.51.127s.228.127.508.127.509.058.509.128c0 .08.933.127 2.544.127s2.544-.047 2.544-.127c0-.07.286-.128.636-.128.35 0 .636-.057.636-.127s.229-.127.509-.127.509-.057.509-.127.114-.127.254-.127.254-.058.254-.128.172-.127.382-.127c.21 0 .382-.057.382-.127s.114-.127.254-.127.254-.058.254-.128.115-.127.255-.127.254-.057.254-.127.115-.127.255-.127.254-.058.254-.128.114-.127.255-.127c.14 0 .254-.057.254-.127s.102-.127.226-.127c.125 0 .309-.115.41-.255.1-.14.262-.254.359-.254.096 0 .335-.172.531-.382.196-.21.42-.382.498-.382.184 0 2.81-2.626 2.81-2.81 0-.078.171-.302.381-.498s.382-.436.382-.532c0-.096.114-.258.254-.359.14-.1.255-.285.255-.41 0-.124.057-.226.127-.226s.127-.115.127-.254c0-.14.057-.255.127-.255s.127-.114.127-.254.058-.255.128-.255.127-.09.127-.2c0-.535.195-.563 3.943-.563s3.943.028 3.943.563c0 .11.058.2.127.2.07 0 .128.115.128.255s.057.254.127.254.127.102.127.226c0 .125.115.31.255.41.14.101.254.263.254.36 0 .095.172.335.382.531.21.196.381.42.381.498 0 .185 2.116 2.301 2.3 2.301.078 0 .302.172.498.382.197.21.436.382.532.382.097 0 .258.114.359.254.1.14.273.255.382.255.108 0 .28.114.381.254.101.14.285.255.41.255.124 0 .226.057.226.127s.115.127.255.127.254.057.254.127.114.128.254.128.255.057.255.127.171.127.381.127.382.057.382.127.114.128.254.128.255.057.255.127.171.127.381.127.382.057.382.127.229.128.509.128.509.057.509.127.286.127.636.127c.35 0 .636.057.636.127 0 .082 1.06.128 2.925.128 1.866 0 2.926-.046 2.926-.128 0-.07.34-.127.763-.127.424 0 .763-.056.763-.127 0-.07.23-.127.51-.127.279 0 .508-.058.508-.128s.172-.127.382-.127c.21 0 .381-.057.381-.127s.172-.127.382-.127c.21 0 .381-.058.381-.128s.172-.127.382-.127c.21 0 .382-.057.382-.127s.114-.127.254-.127.254-.058.254-.128.11-.127.244-.127.268-.07.297-.158c.07-.21.477.189.477.467 0 .11.057.2.127.2s.127.115.127.255.058.254.128.254.127.172.127.382c0 .21.057.382.127.382s.127.114.127.254.057.254.127.254.128.115.128.255.057.254.127.254.127.115.127.255.057.254.127.254.127.172.127.382c0 .21.058.382.128.382s.127.114.127.254.057.255.127.255.127.114.127.254.057.255.127.255.128.114.128.254.057.255.127.255.127.114.127.254.057.255.127.255.127.172.127.382c0 .21.058.381.128.381s.127.115.127.255.057.254.127.254.127.115.127.255.057.254.127.254.128.115.128.255.057.254.127.254.127.172.127.382c0 .21.057.382.127.382s.127.114.127.254.058.255.128.255.127.114.127.254.057.255.127.255.127.114.127.254.057.254.127.254.128.115.128.255.057.254.127.254.127.172.127.382c0 .21.057.382.127.382s.127.114.127.254.058.255.128.255.127.114.127.254.057.255.127.255.127.114.127.254.058.255.127.255c.07 0 .128.159.128.353 0 .208.105.43.254.538.14.1.254.272.254.381 0 .109.115.281.255.382.14.101.254.257.254.348 0 .2 2.357 2.579 2.555 2.579.078 0 .302.171.498.381s.448.382.56.382c.112 0 .203.057.203.127s.115.127.255.127.254.058.254.128.115.127.254.127c.14 0 .255.057.255.127s.114.127.254.127.255.058.255.128.171.127.381.127.382.057.382.127.172.127.382.127c.209 0 .381.058.381.128s.229.127.509.127.509.057.509.127.286.127.636.127c.35 0 .636.058.636.128 0 .075.466.127 1.145.127.678 0 1.144.052 1.144.127 0 .079.679.127 1.781.127 1.103 0 1.781-.048 1.781-.127 0-.073.382-.127.89-.127.509 0 .891-.055.891-.127 0-.07.172-.128.381-.128.21 0 .382-.057.382-.127s.229-.127.509-.127.509-.057.509-.127.114-.128.254-.128.254-.057.254-.127.172-.127.382-.127c.21 0 .382-.057.382-.127s.114-.128.254-.128.254-.057.254-.127.102-.127.227-.127c.124 0 .309-.115.41-.255.1-.14.272-.254.381-.254.109 0 .281-.115.382-.255.101-.139.262-.254.358-.254.097 0 .336-.172.532-.382.196-.21.42-.381.498-.381.183 0 2.301-2.116 2.301-2.299 0-.076.229-.359.508-.628.28-.269.509-.567.509-.662 0-.095.115-.255.255-.356.139-.101.254-.285.254-.41 0-.124.057-.226.127-.226s.127-.102.127-.227c0-.124.115-.308.255-.409.14-.101.254-.286.254-.41 0-.125.057-.227.127-.227s.128-.114.128-.254.057-.255.127-.255.127-.114.127-.254.057-.255.127-.255.127-.171.127-.381.058-.382.128-.382.127-.172.127-.382c0-.21.057-.381.127-.381s.127-.229.127-.509.057-.509.127-.509.128-.287.128-.637c0-.35.057-.636.127-.636.081 0 .127-1.187.127-3.308 0-2.12-.046-3.308-.127-3.308-.079 0-.127-.721-.127-1.909 0-1.188-.048-1.909-.128-1.909-.079 0-.127-.72-.127-1.908s-.048-1.909-.127-1.909c-.078 0-.127-.636-.127-1.654 0-1.018-.049-1.654-.127-1.654-.079 0-.128-.679-.128-1.781 0-1.103-.048-1.782-.127-1.782-.078 0-.127-.636-.127-1.654 0-1.018-.049-1.654-.127-1.654-.079 0-.127-.679-.127-1.782 0-1.102-.049-1.781-.128-1.781-.078 0-.127-.636-.127-1.654 0-1.018-.049-1.654-.127-1.654-.079 0-.127-.679-.127-1.782 0-1.102-.049-1.781-.127-1.781-.079 0-.128-.679-.128-1.781 0-1.103-.048-1.782-.127-1.782-.078 0-.127-.636-.127-1.654 0-1.018-.049-1.654-.127-1.654s-.127-.636-.127-1.654c0-1.018-.049-1.654-.128-1.654-.07 0-.127-.34-.127-.764s-.056-.763-.127-.763c-.07 0-.127-.23-.127-.51s-.057-.508-.127-.508-.128-.23-.128-.51-.057-.508-.127-.508-.127-.172-.127-.382c0-.21-.057-.382-.127-.382s-.127-.171-.127-.381-.058-.382-.128-.382-.127-.115-.127-.255-.057-.254-.127-.254-.127-.172-.127-.382c0-.21-.057-.382-.127-.382s-.128-.114-.128-.254-.057-.255-.127-.255-.127-.101-.127-.226c0-.124-.115-.309-.254-.41-.14-.1-.255-.285-.255-.41 0-.124-.057-.226-.127-.226s-.127-.114-.127-.254-.058-.255-.127-.255c-.07 0-.128-.091-.128-.203 0-.112-.171-.364-.381-.56-.21-.196-.382-.436-.382-.532 0-.097-.114-.258-.254-.359-.14-.1-.255-.257-.255-.347 0-.214-3.636-3.852-3.85-3.852-.09 0-.246-.114-.347-.255-.101-.14-.263-.254-.359-.254-.096 0-.336-.172-.532-.382-.196-.21-.448-.381-.56-.381-.111 0-.203-.058-.203-.128s-.102-.127-.226-.127c-.125 0-.309-.114-.41-.254-.101-.14-.285-.255-.41-.255-.124 0-.226-.057-.226-.127s-.114-.127-.254-.127-.255-.058-.255-.128-.114-.127-.254-.127-.255-.057-.255-.127-.114-.127-.254-.127-.254-.058-.254-.128-.115-.127-.255-.127-.254-.057-.254-.127-.172-.127-.382-.127c-.21 0-.381-.058-.381-.128s-.115-.127-.255-.127-.254-.057-.254-.127-.172-.127-.382-.127c-.21 0-.381-.058-.381-.127 0-.07-.229-.128-.509-.128s-.509-.057-.509-.127-.172-.127-.382-.127c-.21 0-.381-.057-.381-.127s-.286-.128-.636-.128c-.35 0-.636-.057-.636-.127 0-.073-.382-.127-.891-.127-.508 0-.89-.055-.89-.127 0-.082-1.187-.128-3.307-.128s-3.308.046-3.308.128c0 .07-.339.127-.763.127s-.763.056-.763.127c0 .07-.286.127-.636.127-.35 0-.636.058-.636.128s-.286.127-.636.127c-.35 0-.636.057-.636.127s-.172.127-.382.127c-.21 0-.381.058-.381.128s-.172.127-.382.127c-.21 0-.381.057-.381.127s-.172.127-.382.127c-.21 0-.382.058-.382.127 0 .07-.114.128-.254.128s-.254.057-.254.127-.102.127-.227.127c-.124 0-.309.115-.41.255-.1.14-.285.254-.41.254-.124 0-.225.057-.225.127s-.09.128-.201.128c-.11 0-.421.229-.69.509-.269.28-.552.509-.63.509-.077 0-.824.687-1.66 1.526l-1.518 1.527H65.127v-1.017c0-.594.053-1.018.127-1.018.07 0 .128-.287.128-.637 0-.35.057-.636.127-.636s.127-.172.127-.382c0-.21.057-.381.127-.381s.127-.115.127-.255.058-.254.128-.254.127-.115.127-.255.057-.254.127-.254.127-.115.127-.255.058-.254.127-.254c.07 0 .128-.115.128-.255s.057-.254.127-.254.127-.102.127-.227c0-.124.114-.308.254-.41.14-.1.255-.285.255-.41 0-.124.057-.226.127-.226s.127-.101.127-.226c0-.124.115-.309.255-.41.14-.1.254-.273.254-.382 0-.109.114-.28.254-.381.14-.101.255-.286.255-.41 0-.125.057-.227.127-.227s.127-.114.127-.254.058-.255.127-.255c.07 0 .128-.114.128-.254s.057-.254.127-.254.127-.115.127-.255.057-.254.127-.254.128-.115.128-.255.057-.254.127-.254.127-.115.127-.255.057-.254.127-.254.127-.115.127-.255.057-.254.127-.254.128-.172.128-.382c0-.21.057-.382.127-.382s.127-.171.127-.381.057-.382.127-.382.127-.23.127-.51.058-.508.128-.508.127-.286.127-.636c0-.35.057-.637.127-.637.076 0 .127-.509.127-1.272s.051-1.272.128-1.272c.079 0 .127-.764.127-2.036 0-1.273-.048-2.036-.127-2.036-.07 0-.128-.115-.128-.255s-.057-.254-.127-.254-.127-.088-.127-.195c0-.32-.846-1.078-1.204-1.078-.177 0-.322-.057-.322-.127S69.42 17 69.07 17c-.35 0-.636.057-.636.127zM29.511 40.54c0 .072.381.127.89.127s.89.055.89.127c0 .07.23.128.51.128s.508.057.508.127.172.127.382.127c.21 0 .381.057.381.127s.115.127.255.127.254.058.254.128.16.127.354.127c.207 0 .429.105.537.254.1.14.285.255.41.255.124 0 .226.057.226.127s.091.127.203.127c.112 0 .364.172.56.382.196.21.42.382.498.382.179 0 2.3 2.113 2.3 2.292 0 .207 1.116 1.27 1.333 1.27.106 0 .194.058.194.128 0 .084 8.353.127 24.804.127s24.804-.043 24.804-.127c0-.07.088-.127.194-.127.217 0 1.333-1.064 1.333-1.271 0-.179 2.121-2.292 2.3-2.292.078 0 .302-.172.498-.382.196-.21.448-.382.56-.382.112 0 .203-.057.203-.127s.102-.127.227-.127c.124 0 .308-.115.41-.255a.695.695 0 01.536-.254c.195 0 .354-.057.354-.127s.114-.128.254-.128.255-.057.255-.127.171-.127.381-.127.382-.057.382-.127.229-.127.509-.127.508-.058.508-.128c0-.072.382-.127.89-.127.51 0 .891-.055.891-.127 0-.08.933-.127 2.544-.127 1.612 0 2.544.046 2.544.127 0 .072.382.127.891.127s.89.055.89.127c0 .07.286.128.636.128.35 0 .636.057.636.127s.172.127.382.127c.21 0 .381.057.381.127s.172.127.382.127c.21 0 .382.058.382.128s.171.127.381.127.382.057.382.127.114.127.254.127.255.058.255.128.114.127.254.127.254.057.254.127.115.127.255.127.254.058.254.128.115.127.255.127.254.057.254.127.114.127.254.127.255.058.255.128.102.127.226.127c.125 0 .309.114.41.254.101.14.272.255.381.255.109 0 .281.114.382.254.101.14.257.255.347.255.214 0 3.342 3.128 3.342 3.342 0 .09.114.247.254.348.14.1.255.273.255.381 0 .11.114.281.254.382.14.101.254.285.254.41 0 .124.058.226.128.226s.127.115.127.255.057.254.127.254.127.115.127.255.058.254.127.254c.07 0 .128.115.128.255s.057.254.127.254.127.172.127.382c0 .21.057.382.127.382s.127.172.127.382c0 .21.058.381.128.381s.127.172.127.382c0 .21.057.382.127.382s.127.229.127.509.058.509.128.509c.069 0 .127.229.127.509s.057.509.127.509c.077 0 .127.55.127 1.4 0 .848.05 1.399.127 1.399.079 0 .128.636.128 1.654 0 1.018.048 1.654.127 1.654.078 0 .127.636.127 1.654 0 1.018.049 1.654.127 1.654.079 0 .127.68.127 1.782 0 1.103.049 1.781.128 1.781.078 0 .127.679.127 1.782 0 1.102.048 1.781.127 1.781s.127.679.127 1.781c0 1.103.049 1.782.127 1.782.079 0 .128.678.128 1.781 0 1.103.048 1.782.127 1.782.078 0 .127.636.127 1.654 0 1.018.049 1.654.127 1.654.079 0 .127.72.127 1.909 0 1.187.048 1.908.128 1.908.078 0 .127.679.127 1.781 0 1.103.048 1.782.127 1.782.08 0 .127.806.127 2.163 0 1.357.048 2.163.127 2.163.08 0 .128.848.128 2.29 0 1.442-.048 2.29-.128 2.29-.07 0-.127.287-.127.637 0 .35-.057.636-.127.636s-.127.23-.127.509c0 .28-.058.509-.127.509-.07 0-.128.159-.128.354a.697.697 0 01-.254.537c-.14.101-.254.285-.254.41 0 .124-.058.226-.128.226s-.127.115-.127.255-.057.254-.127.254-.127.102-.127.226c0 .125-.115.309-.255.41-.14.101-.254.258-.254.348 0 .214-2.873 3.088-3.087 3.088-.09 0-.247.114-.348.254-.1.14-.285.255-.409.255-.125 0-.227.057-.227.127s-.114.127-.254.127-.254.057-.254.127-.172.128-.382.128c-.21 0-.382.057-.382.127s-.171.127-.381.127-.382.057-.382.127c0 .073-.381.128-.89.128s-.891.054-.891.127c0 .074-.424.127-1.017.127-.594 0-1.018-.053-1.018-.127 0-.076-.466-.127-1.145-.127-.678 0-1.144-.052-1.144-.128 0-.07-.287-.127-.636-.127-.35 0-.636-.057-.636-.127s-.172-.127-.382-.127c-.21 0-.382-.058-.382-.128s-.114-.127-.254-.127-.254-.057-.254-.127-.115-.127-.255-.127-.254-.057-.254-.127-.087-.128-.193-.128c-.251 0-2.351-2.101-2.351-2.352 0-.106-.058-.193-.128-.193-.069 0-.127-.114-.127-.254s-.057-.255-.127-.255-.127-.114-.127-.254-.057-.255-.127-.255-.128-.114-.128-.254-.057-.254-.127-.254-.127-.172-.127-.382c0-.21-.057-.382-.127-.382s-.127-.114-.127-.254-.058-.255-.128-.255c-.069 0-.127-.114-.127-.254s-.057-.255-.127-.255-.127-.114-.127-.254-.057-.255-.127-.255-.128-.114-.128-.254-.057-.255-.127-.255-.127-.172-.127-.381c0-.21-.057-.382-.127-.382s-.127-.115-.127-.255-.058-.254-.128-.254-.127-.115-.127-.255-.057-.254-.127-.254-.127-.115-.127-.255-.057-.254-.127-.254-.128-.115-.128-.255-.057-.254-.127-.254-.127-.172-.127-.382c0-.21-.057-.382-.127-.382s-.127-.114-.127-.254-.058-.255-.128-.255-.127-.114-.127-.254-.057-.255-.127-.255-.127-.114-.127-.254-.057-.255-.127-.255-.128-.171-.128-.381-.057-.382-.127-.382-.127-.114-.127-.254-.057-.255-.127-.255-.127-.114-.127-.254-.058-.255-.128-.255-.127-.114-.127-.254-.057-.255-.127-.255-.127-.114-.127-.254-.057-.255-.127-.255-.128-.172-.128-.382c0-.21-.057-.381-.127-.381s-.127-.115-.127-.255-.057-.254-.127-.254-.127-.115-.127-.255-.058-.254-.128-.254-.127-.115-.127-.255-.057-.254-.127-.254-.127-.115-.127-.255-.057-.254-.127-.254-.128-.172-.128-.382c0-.21-.057-.382-.127-.382s-.127-.114-.127-.254-.057-.255-.127-.255-.127-.114-.127-.254-.058-.255-.128-.255-.127-.114-.127-.254-.057-.255-.127-.255-.127-.087-.127-.194c0-.107-.256-.45-.57-.763-.458-.459-.655-.57-1.017-.57-.247 0-.448-.057-.448-.127s-.115-.127-.255-.127-.254.057-.254.127-.172.128-.382.128c-.21 0-.381.057-.381.127s-.102.127-.227.127c-.124 0-.309.115-.41.255-.1.14-.26.254-.354.254-.094 0-.45.286-.79.636-.341.35-.71.636-.819.636-.11 0-.199.058-.199.128S90.2 88 90.06 88s-.255.057-.255.127-.114.127-.254.127-.254.058-.254.128-.115.127-.255.127-.254.057-.254.127-.23.127-.51.127c-.279 0-.508.058-.508.128s-.286.127-.636.127c-.35 0-.636.057-.636.127 0 .08-.848.127-2.29.127-1.441 0-2.29-.047-2.29-.127 0-.07-.228-.127-.508-.127s-.509-.057-.509-.127-.229-.128-.509-.128-.508-.057-.508-.127-.115-.127-.255-.127-.254-.057-.254-.127-.16-.127-.354-.127a.695.695 0 01-.537-.255c-.1-.14-.285-.255-.41-.255-.124 0-.226-.057-.226-.127s-.101-.127-.226-.127c-.124 0-.309-.115-.41-.255-.1-.14-.257-.254-.347-.254-.232 0-2.324-2.118-2.324-2.352 0-.106-.057-.193-.127-.193s-.127-.114-.127-.254-.058-.255-.127-.255c-.07 0-.128-.114-.128-.254s-.057-.255-.127-.255-.127-.114-.127-.254-.057-.255-.127-.255-.128-.229-.128-.509-.057-.509-.127-.509-.127-.114-.127-.254-.057-.255-.127-.255-.127-.088-.127-.196c0-.24-.561-.822-.793-.822-.093 0-.251-.114-.352-.254-.18-.249-.33-.254-6.897-.254-4.391 0-6.714.043-6.714.127 0 .07-.088.127-.195.127-.253 0-1.077.824-1.077 1.077 0 .108-.057.195-.127.195s-.127.115-.127.255-.057.254-.127.254-.127.172-.127.382c0 .21-.058.382-.128.382s-.127.172-.127.382c0 .21-.057.381-.127.381s-.127.115-.127.255-.058.254-.127.254c-.07 0-.128.115-.128.255s-.057.254-.127.254-.127.092-.127.204c0 .112-.172.364-.382.56-.21.196-.381.42-.381.498 0 .185-1.861 2.046-2.046 2.046-.078 0-.302.172-.498.382-.196.21-.448.382-.56.382-.112 0-.204.057-.204.127s-.114.127-.254.127-.254.058-.254.128-.115.127-.255.127-.254.057-.254.127-.115.127-.255.127-.254.058-.254.128-.229.127-.509.127-.509.057-.509.127-.229.127-.508.127c-.28 0-.51.058-.51.128 0 .078-.635.127-1.653.127-1.017 0-1.654-.05-1.654-.127 0-.07-.286-.128-.636-.128-.35 0-.636-.057-.636-.127s-.114-.127-.254-.127-.254-.057-.254-.127-.115-.128-.255-.128-.254-.057-.254-.127-.115-.127-.255-.127-.254-.057-.254-.127-.091-.128-.203-.128c-.112 0-.364-.171-.56-.381-.196-.21-.423-.382-.505-.382-.081 0-.426-.286-.767-.636-.34-.35-.684-.636-.762-.636-.078 0-.48-.344-.892-.764-.412-.42-.838-.763-.947-.763-.108 0-.197-.058-.197-.128s-.172-.127-.382-.127c-.21 0-.382-.057-.382-.127s-.114-.127-.254-.127-.255.057-.255.127-.171.127-.381.127-.382.057-.382.127-.087.128-.194.128c-.252 0-1.332 1.08-1.332 1.332 0 .107-.057.195-.127.195s-.128.171-.128.381-.057.382-.127.382-.127.114-.127.254-.057.255-.127.255-.127.114-.127.254-.058.255-.128.255-.127.172-.127.382c0 .21-.057.381-.127.381s-.127.115-.127.255-.057.254-.127.254-.128.115-.128.255-.057.254-.127.254-.127.172-.127.382c0 .21-.057.382-.127.382s-.127.114-.127.254-.058.255-.128.255-.127.114-.127.254-.057.255-.127.255-.127.172-.127.382c0 .21-.058.381-.127.381-.07 0-.128.115-.128.255s-.057.254-.127.254-.127.115-.127.255-.057.254-.127.254-.127.172-.127.382c0 .21-.058.382-.128.382s-.127.114-.127.254-.057.254-.127.254-.127.172-.127.382c0 .21-.058.382-.127.382-.07 0-.128.114-.128.254s-.057.255-.127.255-.127.114-.127.254-.057.255-.127.255-.127.172-.127.382c0 .21-.058.381-.128.381s-.127.115-.127.255-.057.254-.127.254-.127.115-.127.255-.058.254-.128.254-.127.172-.127.382c0 .21-.057.382-.127.382s-.127.114-.127.254-.057.255-.127.255-.128.114-.128.254-.057.255-.127.255-.127.171-.127.381-.057.382-.127.382-.127.115-.127.255-.057.254-.127.254-.128.115-.128.255-.057.254-.127.254-.127.172-.127.382c0 .21-.057.382-.127.382s-.128.114-.128.254-.057.254-.127.254-.127.115-.127.255-.057.254-.127.254-.127.115-.127.255-.058.254-.128.254-.127.087-.127.193c0 .251-2.1 2.352-2.351 2.352-.106 0-.193.058-.193.128s-.114.127-.254.127-.255.057-.255.127-.114.127-.254.127-.254.057-.254.127-.172.128-.382.128c-.21 0-.381.057-.381.127s-.287.127-.636.127c-.35 0-.637.057-.637.127 0 .076-.466.128-1.144.128-.679 0-1.145.051-1.145.127 0 .074-.424.127-1.018.127-.593 0-1.017-.053-1.017-.127 0-.071-.34-.127-.764-.127s-.763-.057-.763-.128c0-.07-.229-.127-.509-.127s-.508-.057-.508-.127-.115-.127-.255-.127-.254-.058-.254-.128-.115-.127-.255-.127-.254-.057-.254-.127-.115-.127-.255-.127-.254-.057-.254-.127-.086-.128-.192-.128c-.233 0-3.115-2.856-3.115-3.088 0-.09-.115-.246-.255-.347-.14-.101-.254-.273-.254-.382 0-.109-.114-.281-.254-.382-.14-.101-.255-.285-.255-.41 0-.124-.057-.226-.127-.226s-.127-.114-.127-.254-.057-.255-.127-.255-.128-.114-.128-.254-.057-.255-.127-.255-.127-.172-.127-.382c0-.21-.057-.381-.127-.381s-.127-.115-.127-.255-.058-.254-.128-.254-.127-.23-.127-.51-.057-.508-.127-.508-.127-.23-.127-.51-.057-.508-.127-.508c-.08 0-.128-.806-.128-2.163 0-1.358.048-2.163.128-2.163.078 0 .127-.637.127-1.654 0-1.018.049-1.655.127-1.655.079 0 .127-.678.127-1.781 0-1.103.049-1.781.127-1.781.079 0 .128-.637.128-1.655 0-1.017.049-1.654.127-1.654s.127-.636.127-1.654c0-1.018.049-1.654.127-1.654.079 0 .127-.679.127-1.781 0-1.103.049-1.782.128-1.782.078 0 .127-.636.127-1.654 0-1.018.049-1.654.127-1.654.079 0 .127-.679.127-1.781 0-1.103.049-1.782.127-1.782.08 0 .128-.678.128-1.781 0-1.103.048-1.782.127-1.782.078 0 .127-.593.127-1.526 0-.934.05-1.527.127-1.527.079 0 .127-.637.127-1.655 0-1.017.05-1.654.128-1.654.077 0 .127-.594.127-1.527 0-.933.05-1.526.127-1.526.073 0 .127-.382.127-.891 0-.51.055-.89.128-.89.07 0 .127-.287.127-.637 0-.35.057-.636.127-.636s.127-.172.127-.382c0-.21.057-.382.127-.382s.128-.172.128-.381c0-.21.057-.382.127-.382s.127-.172.127-.382c0-.21.057-.382.127-.382s.127-.114.127-.254.058-.255.128-.255.127-.114.127-.254.057-.255.127-.255.127-.114.127-.254.057-.255.127-.255.127-.102.127-.226c0-.124.115-.309.255-.41.14-.1.254-.273.254-.382 0-.109.115-.28.255-.381.14-.101.254-.263.254-.36 0-.095.172-.335.382-.53.21-.197.381-.421.381-.5 0-.183 1.86-2.046 2.043-2.046.077 0 .36-.229.629-.509s.566-.509.661-.509c.095 0 .255-.114.356-.254.101-.14.273-.255.382-.255.109 0 .28-.114.381-.254.101-.14.286-.255.41-.255.125 0 .226-.057.226-.127s.115-.127.255-.127.254-.057.254-.127.115-.128.255-.128.254-.057.254-.127.114-.127.254-.127.255-.057.255-.127.114-.128.254-.128.255-.057.255-.127.171-.127.381-.127.382-.057.382-.127.172-.128.382-.128c.21 0 .381-.057.381-.127s.172-.127.382-.127c.21 0 .381-.057.381-.127s.287-.127.636-.127c.35 0 .636-.058.636-.128s.34-.127.764-.127.763-.056.763-.127c0-.08.933-.127 2.544-.127s2.544.046 2.544.127zm61.565 12.215c0 .07-.171.127-.381.127s-.382.058-.382.128-.114.127-.254.127-.255.057-.255.127-.114.127-.254.127-.254.057-.254.127-.088.128-.195.128c-.252 0-1.332 1.08-1.332 1.332 0 .107-.057.195-.127.195s-.127.114-.127.254-.058.255-.127.255c-.07 0-.128.114-.128.254s-.057.255-.127.255-.127.171-.127.381-.057.382-.127.382c-.076 0-.128.467-.128 1.145 0 .679.052 1.145.128 1.145.07 0 .127.172.127.382 0 .21.057.382.127.382s.127.114.127.254.057.255.127.255.128.087.128.193c0 .235 1.582 1.843 1.814 1.843.09 0 .247.114.348.254.108.15.33.255.537.255.194 0 .353.057.353.127 0 .078.594.127 1.527.127.933 0 1.526-.05 1.526-.127 0-.07.172-.127.382-.127.21 0 .382-.058.382-.128s.102-.127.226-.127c.124 0 .309-.114.41-.254.1-.14.258-.255.35-.255.217 0 1.049-.832 1.049-1.05 0-.091.114-.249.254-.35.14-.1.255-.285.255-.41 0-.124.057-.226.127-.226s.127-.172.127-.382c0-.21.057-.381.127-.381.078 0 .127-.594.127-1.527 0-.933-.05-1.527-.127-1.527-.07 0-.127-.114-.127-.255 0-.14-.057-.254-.127-.254s-.127-.114-.127-.255c0-.14-.058-.254-.128-.254s-.127-.087-.127-.193c0-.252-1.59-1.843-1.842-1.843-.106 0-.193-.057-.193-.127s-.115-.127-.254-.127c-.14 0-.255-.058-.255-.127 0-.07-.229-.128-.509-.128s-.508-.057-.508-.127c0-.074-.424-.127-1.018-.127-.594 0-1.018.053-1.018.127zm16.282 0c0 .07-.172.127-.381.127-.21 0-.382.058-.382.128s-.115.127-.254.127c-.14 0-.255.057-.255.127s-.114.127-.254.127-.255.057-.255.127-.087.128-.194.128c-.252 0-1.332 1.08-1.332 1.332 0 .107-.057.195-.127.195s-.128.114-.128.254-.057.255-.127.255-.127.114-.127.254-.057.255-.127.255-.127.171-.127.381-.058.382-.128.382c-.075 0-.127.467-.127 1.145 0 .679.052 1.145.127 1.145.07 0 .128.172.128.382 0 .21.057.382.127.382s.127.114.127.254.057.255.127.255.127.087.127.193c0 .235 1.583 1.843 1.815 1.843.09 0 .247.114.348.254.108.15.329.255.537.255.194 0 .353.057.353.127 0 .078.594.127 1.527.127.933 0 1.526-.05 1.526-.127 0-.07.172-.127.382-.127.21 0 .381-.058.381-.128s.102-.127.227-.127c.124 0 .309-.114.409-.254.101-.14.259-.255.351-.255.217 0 1.049-.832 1.049-1.05 0-.091.114-.249.254-.35.14-.1.254-.285.254-.41 0-.124.058-.226.128-.226s.127-.172.127-.382c0-.21.057-.381.127-.381.078 0 .127-.594.127-1.527 0-.933-.049-1.527-.127-1.527-.07 0-.127-.114-.127-.255 0-.14-.057-.254-.127-.254s-.128-.114-.128-.255c0-.14-.057-.254-.127-.254s-.127-.087-.127-.193c0-.252-1.591-1.843-1.842-1.843-.106 0-.193-.057-.193-.127s-.115-.127-.255-.127-.254-.058-.254-.127c0-.07-.229-.128-.509-.128s-.509-.057-.509-.127c0-.074-.424-.127-1.017-.127-.594 0-1.018.053-1.018.127zm-84.335 2.926c-.1.14-.285.255-.41.255a.218.218 0 00-.226.226c0 .125-.114.31-.254.41a.695.695 0 00-.254.537c0 .195-.058.354-.128.354-.08 0-.127 1.103-.127 3.054v3.053h-3.279c-3.133 0-3.287.012-3.462.255-.101.14-.286.254-.41.254a.218.218 0 00-.226.227c0 .124-.115.309-.255.41a.695.695 0 00-.254.537c0 .194-.057.353-.127.353s-.128.287-.128.637c0 .35.058.636.128.636s.127.144.127.321c0 .439 1.021 1.46 1.46 1.46.176 0 .32.058.32.127 0 .082 1.103.128 3.053.128h3.053v3.053c0 1.951.046 3.054.128 3.054.07 0 .127.145.127.322 0 .438 1.021 1.46 1.46 1.46.176 0 .32.057.32.127s.287.127.637.127c.35 0 .636-.057.636-.127s.144-.127.32-.127c.439 0 1.46-1.022 1.46-1.46 0-.177.058-.322.128-.322.08 0 .127-1.103.127-3.053v-3.054h3.053c1.95 0 3.052-.046 3.052-.128 0-.07.145-.127.322-.127.438 0 1.46-1.021 1.46-1.46 0-.177.056-.321.126-.321s.128-.287.128-.636c0-.35-.058-.637-.128-.637s-.127-.159-.127-.353a.695.695 0 00-.254-.537c-.14-.101-.255-.286-.255-.41a.218.218 0 00-.226-.227c-.124 0-.309-.114-.41-.254-.175-.243-.329-.255-3.462-.255h-3.28v-3.053c0-1.951-.045-3.054-.127-3.054-.07 0-.127-.16-.127-.354a.695.695 0 00-.254-.537c-.14-.1-.255-.285-.255-.41a.218.218 0 00-.226-.226c-.124 0-.309-.114-.41-.255-.158-.22-.329-.254-1.271-.254-.943 0-1.114.034-1.273.255zm30.147 8.017c0 .07-.087.127-.194.127-.328 0-1.332 1.1-1.332 1.46 0 .177-.057.321-.127.321s-.128.287-.128.637c0 .35.058.636.128.636s.127.145.127.322c0 .359.756 1.205 1.077 1.205.107 0 .195.057.195.127s.172.127.382.127c.21 0 .381.058.381.127 0 .082 1.145.128 3.18.128s3.18-.046 3.18-.128c0-.07.172-.127.382-.127.21 0 .381-.057.381-.127s.088-.127.195-.127c.32 0 1.077-.846 1.077-1.205 0-.177.058-.322.128-.322s.127-.287.127-.636c0-.35-.057-.637-.127-.637s-.128-.144-.128-.321c0-.36-1.004-1.46-1.332-1.46-.107 0-.194-.057-.194-.127 0-.082-1.314-.127-3.689-.127-2.374 0-3.689.045-3.689.127zm16.282 0c0 .07-.087.127-.194.127-.328 0-1.332 1.1-1.332 1.46 0 .177-.058.321-.128.321s-.127.287-.127.637c0 .35.057.636.127.636s.128.145.128.322c0 .359.756 1.205 1.077 1.205.107 0 .195.057.195.127s.171.127.381.127.382.058.382.127c0 .082 1.145.128 3.18.128s3.18-.046 3.18-.128c0-.07.172-.127.382-.127.21 0 .381-.057.381-.127s.088-.127.195-.127c.32 0 1.077-.846 1.077-1.205 0-.177.057-.322.127-.322s.128-.287.128-.636c0-.35-.058-.637-.128-.637s-.127-.144-.127-.321c0-.36-1.004-1.46-1.332-1.46-.107 0-.194-.057-.194-.127 0-.082-1.315-.127-3.69-.127-2.374 0-3.688.045-3.688.127zm21.624 5.344c0 .07-.171.127-.381.127s-.382.057-.382.127-.114.128-.254.128-.255.057-.255.127-.114.127-.254.127-.254.057-.254.127-.088.128-.195.128c-.106 0-.45.256-.763.569-.313.313-.569.657-.569.763 0 .107-.057.195-.127.195s-.127.114-.127.254-.058.255-.127.255c-.07 0-.128.114-.128.254s-.057.255-.127.255-.127.171-.127.381-.057.382-.127.382c-.076 0-.128.466-.128 1.145s.052 1.145.128 1.145c.07 0 .127.172.127.382 0 .21.057.382.127.382s.127.114.127.254.057.255.127.255.128.087.128.193c0 .235 1.582 1.843 1.814 1.843.09 0 .247.114.348.254.108.15.33.255.537.255.194 0 .353.057.353.127 0 .078.594.127 1.527.127.933 0 1.526-.05 1.526-.127 0-.07.172-.127.382-.127.21 0 .382-.058.382-.128s.102-.127.226-.127c.124 0 .309-.114.41-.254.1-.14.258-.255.35-.255.217 0 1.049-.832 1.049-1.05 0-.091.114-.249.254-.35.14-.1.255-.285.255-.41 0-.124.057-.226.127-.226s.127-.172.127-.382c0-.21.057-.381.127-.381.078 0 .127-.594.127-1.527 0-.933-.05-1.527-.127-1.527-.07 0-.127-.115-.127-.254 0-.14-.057-.255-.127-.255s-.127-.114-.127-.254-.058-.255-.128-.255-.127-.087-.127-.193c0-.106-.37-.565-.824-1.018-.454-.454-.912-.825-1.018-.825-.106 0-.193-.057-.193-.127s-.115-.127-.254-.127c-.14 0-.255-.058-.255-.128s-.229-.127-.509-.127-.508-.057-.508-.127c0-.074-.424-.127-1.018-.127-.594 0-1.018.053-1.018.127zm16.282 0c0 .07-.172.127-.381.127-.21 0-.382.057-.382.127s-.115.128-.254.128c-.14 0-.255.057-.255.127s-.114.127-.254.127-.255.057-.255.127-.087.128-.194.128c-.252 0-1.332 1.08-1.332 1.332 0 .107-.057.195-.127.195s-.128.114-.128.254-.057.255-.127.255-.127.114-.127.254-.057.255-.127.255-.127.171-.127.381-.058.382-.128.382c-.075 0-.127.466-.127 1.145s.052 1.145.127 1.145c.07 0 .128.172.128.382 0 .21.057.382.127.382s.127.114.127.254.057.255.127.255.127.087.127.193c0 .235 1.583 1.843 1.815 1.843.09 0 .247.114.348.254.108.15.329.255.537.255.194 0 .353.057.353.127 0 .078.594.127 1.527.127.933 0 1.526-.05 1.526-.127 0-.07.172-.127.382-.127.21 0 .381-.058.381-.128s.102-.127.227-.127c.124 0 .309-.114.409-.254.101-.14.259-.255.351-.255.217 0 1.049-.832 1.049-1.05 0-.091.114-.249.254-.35.14-.1.254-.285.254-.41 0-.124.058-.226.128-.226s.127-.172.127-.382c0-.21.057-.381.127-.381.078 0 .127-.594.127-1.527 0-.933-.049-1.527-.127-1.527-.07 0-.127-.115-.127-.254 0-.14-.057-.255-.127-.255s-.128-.114-.128-.254-.057-.255-.127-.255-.127-.087-.127-.193c0-.252-1.591-1.843-1.842-1.843-.106 0-.193-.057-.193-.127s-.115-.127-.255-.127-.254-.058-.254-.128-.229-.127-.509-.127-.509-.057-.509-.127c0-.074-.424-.127-1.017-.127-.594 0-1.018.053-1.018.127z" fill="#202020"/></svg>