<svg width="130" height="130" fill="none" xmlns="http://www.w3.org/2000/svg"><path fill-rule="evenodd" clip-rule="evenodd" d="M19.403.136c0 .074-.096.135-.214.135-.277 0-.895.605-.895.876 0 .116-.062.21-.138.21-.077 0-.139.122-.139.271 0 .15-.062.272-.139.272-.077 0-.138.362-.138.814 0 .452.061.814.139.814.076 0 .138.122.138.272 0 .149.062.271.139.271.076 0 .138.094.138.21 0 .271.617.876.895.876.118 0 .214.06.214.135 0 .087 1.294.136 3.603.136h3.604v14.733c0 15.65.021 15.12-.614 15.12-.12 0-.218.062-.218.136 0 .075-.11.136-.246.136s-.337.122-.447.272c-.11.149-.31.271-.446.271s-.247.061-.247.136c0 .074-.11.135-.246.135s-.337.123-.447.272c-.11.15-.297.271-.415.271-.12 0-.306.122-.416.272-.11.149-.286.271-.391.271-.105 0-.366.183-.58.407-.213.224-.462.407-.554.407-.091 0-.34.183-.554.407-.214.224-.463.407-.555.407-.09 0-.34.184-.554.407-.213.224-.46.408-.546.408-.087 0-.714.55-1.394 1.22-.68.673-1.303 1.222-1.383 1.222-.19 0-2.22 1.988-2.22 2.174 0 .08-.562.688-1.248 1.354-.686.666-1.247 1.28-1.247 1.365 0 .085-.187.326-.416.535-.229.21-.416.454-.416.543 0 .09-.187.334-.415.543-.23.209-.416.464-.416.567 0 .103-.125.275-.278.383-.152.107-.277.28-.277.382 0 .103-.187.358-.415.568-.23.209-.416.477-.416.597s-.063.217-.139.217c-.076 0-.138.108-.138.241s-.125.33-.278.437c-.152.108-.277.304-.277.437s-.062.242-.138.242c-.077 0-.139.108-.139.241s-.125.33-.277.437c-.153.108-.277.305-.277.437 0 .133-.063.242-.139.242-.076 0-.139.108-.139.241s-.124.33-.277.437c-.152.108-.277.305-.277.437 0 .133-.062.242-.139.242-.076 0-.138.122-.138.271 0 .15-.062.271-.139.271-.076 0-.138.123-.138.272 0 .15-.063.271-.139.271-.076 0-.138.122-.138.272 0 .149-.063.271-.14.271-.075 0-.138.183-.138.407 0 .224-.062.407-.138.407-.076 0-.139.123-.139.272 0 .149-.062.271-.138.271-.077 0-.139.122-.139.272 0 .149-.062.27-.139.27-.076 0-.138.123-.138.272 0 .15-.063.272-.139.272-.076 0-.138.122-.138.271 0 .15-.063.272-.139.272-.076 0-.139.183-.139.407 0 .224-.062.407-.138.407-.076 0-.139.122-.139.271 0 .15-.062.272-.138.272-.077 0-.139.183-.139.407 0 .224-.062.407-.139.407-.076 0-.138.183-.138.407 0 .224-.063.407-.139.407-.076 0-.138.244-.138.543 0 .298-.063.542-.139.542-.076 0-.139.184-.139.408 0 .224-.062.407-.138.407-.076 0-.139.183-.139.407 0 .224-.062.407-.138.407-.077 0-.139.244-.139.543 0 .298-.062.543-.138.543-.077 0-.14.305-.14.678 0 .373-.061.678-.138.678-.076 0-.138.245-.138.543 0 .299-.063.543-.139.543-.076 0-.138.305-.138.679 0 .373-.063.678-.139.678-.082 0-.139.498-.139 1.221 0 .724-.056 1.222-.138 1.222-.085 0-.139.633-.139 1.628 0 .995-.054 1.628-.138 1.628C.05 76.534 0 77.62 0 79.52c0 1.9.05 2.985.139 2.985.084 0 .138.588.138 1.493 0 .905.055 1.493.139 1.493.079 0 .138.407.138.95 0 .542.06.95.139.95.077 0 .139.361.139.814 0 .452.061.814.138.814.076 0 .139.244.139.543 0 .298.062.542.138.542.077 0 .139.306.139.679 0 .373.062.678.139.678.076 0 .138.245.138.543 0 .299.062.543.139.543.076 0 .138.183.138.407 0 .224.063.407.139.407.076 0 .138.244.138.543 0 .299.063.543.14.543.075 0 .138.183.138.407 0 .224.062.407.138.407.076 0 .139.122.139.271 0 .15.062.272.138.272.077 0 .139.183.139.407 0 .224.062.407.139.407.076 0 .138.183.138.407 0 .224.063.407.139.407.076 0 .138.122.138.272 0 .149.063.271.139.271.076 0 .139.183.139.407 0 .224.062.407.138.407.076 0 .139.122.139.272 0 .149.062.27.138.27.077 0 .139.123.139.272 0 .15.062.272.139.272.076 0 .138.122.138.271 0 .149.063.272.139.272.076 0 .138.122.138.271 0 .149.063.271.139.271.076 0 .139.122.139.272 0 .149.062.271.138.271.076 0 .139.122.139.272 0 .149.062.271.138.271.077 0 .139.122.139.271 0 .15.062.272.138.272.077 0 .14.122.14.271 0 .149.061.272.138.272.076 0 .138.122.138.271 0 .149.063.271.139.271.076 0 .138.122.138.272 0 .149.063.271.139.271.076 0 .139.109.139.242 0 .132.124.329.277.437.152.107.277.304.277.437 0 .132.062.241.139.241.076 0 .138.109.138.242 0 .132.125.329.277.437.153.107.278.29.278.407 0 .116.124.299.277.407.152.107.277.291.277.407 0 .116.125.299.277.407.153.108.277.28.277.383 0 .102.187.358.416.567.229.209.416.453.416.543 0 .089.187.333.416.542.228.21.415.454.415.543 0 .09.188.334.416.543.229.209.416.45.416.535 0 .086.499.638 1.109 1.229.61.591 1.108 1.139 1.108 1.218 0 .187 2.03 2.175 2.221 2.175.08 0 .703.549 1.383 1.221s1.308 1.221 1.394 1.221c.087 0 .333.183.546.407.214.224.463.407.555.407.09 0 .34.184.554.408.213.223.463.407.554.407.092 0 .341.183.555.407.213.224.474.407.579.407.105 0 .28.122.39.271.11.15.298.272.417.272.118 0 .306.122.415.271.11.149.311.271.447.271.135 0 .246.062.246.136 0 .075.111.136.247.136s.336.122.446.271c.11.15.311.272.447.272.135 0 .246.061.246.135 0 .075.111.136.247.136s.336.122.446.271c.11.15.31.272.447.272.135 0 .246.061.246.136 0 .074.125.135.277.135.153 0 .277.061.277.136 0 .075.125.136.278.136.152 0 .277.061.277.135 0 .075.125.136.277.136.153 0 .277.061.277.136 0 .074.125.135.277.135.153 0 .278.061.278.136 0 .075.124.136.277.136.152 0 .277.061.277.136 0 .074.125.135.277.135.153 0 .277.061.277.136 0 .075.125.136.278.136.152 0 .277.061.277.135 0 .075.124.136.277.136.152 0 .277.061.277.136 0 .074.187.135.416.135.229 0 .416.061.416.136 0 .075.124.136.277.136.152 0 .277.061.277.136 0 .074.187.135.416.135.228 0 .416.061.416.136 0 .075.124.136.277.136.152 0 .277.061.277.135 0 .075.187.136.416.136.229 0 .416.061.416.136 0 .074.187.135.415.135.229 0 .416.061.416.136 0 .075.187.136.416.136.229 0 .416.061.416.136 0 .074.25.135.554.135.305 0 .554.061.554.136 0 .075.188.136.416.136.229 0 .416.061.416.135 0 .075.25.136.554.136.305 0 .555.061.555.136 0 .074.312.135.693.135.38 0 .693.061.693.136 0 .075.311.136.693.136.38 0 .693.061.693.136 0 .075.37.135.831.135.462 0 .832.06.832.136 0 .081.554.136 1.386.136.831 0 1.386.054 1.386.135 0 .088 1.709.136 4.85.136 3.142 0 4.851-.048 4.851-.136 0-.081.554-.135 1.386-.135.831 0 1.386-.055 1.386-.136 0-.076.37-.136.831-.136.462 0 .832-.06.832-.135 0-.075.312-.136.693-.136.381 0 .693-.061.693-.136 0-.075.25-.136.554-.136.305 0 .555-.061.555-.135 0-.075.25-.136.554-.136.305 0 .554-.061.554-.136 0-.074.25-.135.555-.135.305 0 .554-.061.554-.136 0-.075.187-.136.416-.136.229 0 .416-.061.416-.135 0-.075.25-.136.554-.136.305 0 .554-.061.554-.136 0-.075.125-.136.278-.136.152 0 .277-.061.277-.135 0-.075.187-.136.416-.136.228 0 .415-.061.415-.136 0-.074.188-.135.416-.135.229 0 .416-.061.416-.136 0-.075.187-.136.416-.136.228 0 .416-.061.416-.135 0-.075.124-.136.277-.136.152 0 .277-.061.277-.136 0-.075.187-.136.416-.136.228 0 .415-.061.415-.135 0-.075.125-.136.278-.136.152 0 .277-.061.277-.136 0-.074.124-.135.277-.135.152 0 .277-.061.277-.136 0-.075.125-.136.277-.136.153 0 .278-.061.278-.135 0-.075.124-.136.277-.136.152 0 .277-.061.277-.136 0-.075.125-.136.277-.136.153 0 .277-.061.277-.135 0-.075.125-.136.277-.136.153 0 .278-.061.278-.136 0-.074.124-.135.277-.135.152 0 .277-.061.277-.136 0-.075.125-.136.277-.136.153 0 .277-.061.277-.135 0-.075.111-.136.247-.136s.336-.122.446-.272c.11-.149.311-.271.447-.271.135 0 .246-.061.246-.136 0-.074.111-.135.247-.135s.336-.122.446-.272c.11-.149.297-.271.416-.271s.306-.122.416-.272c.11-.149.31-.271.446-.271s.247-.061.247-.136c0-.074.11-.135.246-.135s.337-.122.447-.272c.11-.149.285-.271.39-.271.106 0 .366-.183.58-.407.213-.224.463-.407.554-.407.092 0 .341-.184.555-.407.213-.224.463-.408.554-.408.091 0 .34-.183.554-.407.214-.224.46-.407.546-.407.087 0 .715-.549 1.395-1.221s1.302-1.221 1.383-1.221c.19 0 2.22-1.988 2.22-2.175 0-.079.499-.627 1.109-1.218s1.109-1.143 1.109-1.229c0-.085.187-.326.415-.535.229-.209.416-.453.416-.543 0-.089.187-.333.416-.543.229-.209.416-.453.416-.542 0-.09.187-.334.416-.543.228-.209.415-.465.415-.567 0-.103.125-.275.277-.383.153-.108.278-.291.278-.407 0-.116.124-.3.277-.407.152-.108.277-.304.277-.437s.062-.242.139-.242c.076 0 .138-.108.138-.241s.125-.33.277-.437c.153-.108.278-.291.278-.407 0-.117.124-.3.277-.407.152-.108.277-.305.277-.437 0-.133.062-.242.138-.242.077 0 .14-.122.14-.271 0-.15.061-.272.138-.272.076 0 .138-.122.138-.271 0-.149.063-.271.139-.271.076 0 .139-.123.139-.272 0-.149.062-.271.138-.271.076 0 .139-.122.139-.272 0-.149.062-.271.138-.271.076 0 .139-.122.139-.271 0-.15.062-.272.138-.272.077 0 .139-.122.139-.271 0-.15.062-.272.139-.272.076 0 .138-.122.138-.271 0-.149.063-.271.139-.271.076 0 .138-.123.138-.272 0-.15.063-.271.139-.271.076 0 .139-.122.139-.272 0-.149.062-.271.138-.271.076 0 .139-.122.139-.271 0-.15.062-.272.138-.272.077 0 .139-.183.139-.407 0-.224.062-.407.139-.407.076 0 .138-.122.138-.271 0-.15.063-.272.139-.272.076 0 .138-.183.138-.407 0-.224.063-.407.139-.407.076 0 .139-.183.139-.407 0-.224.062-.407.138-.407.076 0 .139-.183.139-.407 0-.224.062-.407.138-.407.077 0 .139-.123.139-.272 0-.15.062-.271.138-.271.077 0 .139-.245.139-.543 0-.299.062-.543.139-.543.076 0 .138-.183.138-.407 0-.224.063-.407.139-.407.076 0 .138-.244.138-.543 0-.298.063-.543.139-.543.076 0 .139-.305.139-.678 0-.373.062-.679.138-.679.076 0 .139-.244.139-.542 0-.299.062-.543.138-.543.077 0 .139-.362.139-.814 0-.453.062-.815.139-.815.079 0 .138-.407.138-.95 0-.542.06-.95.139-.95.084 0 .138-.587.138-1.492s.055-1.493.139-1.493c.088 0 .139-1.04.139-2.85 0-1.809-.051-2.85-.139-2.85-.085 0-.139-.678-.139-1.763 0-1.086-.053-1.764-.138-1.764-.081 0-.139-.453-.139-1.086s-.058-1.085-.138-1.085c-.08 0-.139-.408-.139-.95v-.95h2.99c2.406 0 3.028.038 3.187.194.17.166.198 3.334.198 22.39 0 14.707.047 22.196.139 22.196.076 0 .138.096.138.214 0 .261.33.601.584.601.103 0 .277.122.387.271.117.159.358.271.585.271.211 0 .385.062.385.136 0 .089 2.725.136 7.9.136 5.174 0 7.899-.047 7.899-.136 0-.074.22-.136.489-.136.394 0 .609-.117 1.109-.607.407-.398.62-.724.62-.95 0-.188.062-.342.138-.342.077 0 .139-.245.139-.543 0-.299-.062-.543-.139-.543-.076 0-.138-.231-.138-.513 0-.357-.084-.572-.277-.708-.153-.108-.278-.278-.278-.379 0-.249-.346-.571-.613-.571-.12 0-.218-.061-.218-.136 0-.088-2.264-.136-6.514-.136h-6.514V87.798c0-14.656-.047-22.12-.138-22.12-.077 0-.139-.122-.139-.27 0-.15-.062-.272-.139-.272-.076 0-.138-.095-.138-.21 0-.272-.617-.876-.895-.876-.118 0-.214-.061-.214-.136 0-.074-.125-.135-.277-.135-.153 0-.277-.061-.277-.136 0-.088-2.013-.136-5.762-.136-6.245 0-6.157.01-6.157-.736 0-.192-.063-.35-.139-.35-.076 0-.138-.182-.138-.406 0-.224-.063-.407-.139-.407-.076 0-.139-.123-.139-.272 0-.15-.062-.271-.138-.271-.076 0-.139-.183-.139-.407 0-.224-.062-.407-.138-.407-.077 0-.139-.123-.139-.272 0-.15-.062-.271-.139-.271-.076 0-.138-.122-.138-.272 0-.149-.063-.271-.139-.271-.076 0-.138-.122-.138-.271 0-.15-.063-.272-.139-.272-.076 0-.139-.122-.139-.271 0-.15-.062-.272-.138-.272-.076 0-.139-.122-.139-.271 0-.15-.062-.272-.138-.272-.077 0-.139-.183-.139-.407 0-.223-.062-.407-.139-.407-.076 0-.138-.122-.138-.271 0-.15-.063-.272-.139-.272-.076 0-.138-.122-.138-.27 0-.15-.063-.272-.139-.272-.076 0-.138-.109-.138-.242s-.125-.33-.278-.437c-.152-.107-.277-.304-.277-.437s-.062-.241-.139-.241c-.076 0-.138-.109-.138-.242 0-.132-.125-.33-.277-.437-.153-.107-.277-.304-.277-.437s-.063-.241-.139-.241c-.076 0-.139-.109-.139-.242s-.124-.33-.277-.437c-.152-.107-.277-.304-.277-.437s-.062-.241-.139-.241c-.076 0-.138-.098-.138-.217 0-.12-.187-.388-.416-.597-.229-.21-.416-.454-.416-.543 0-.09-.187-.334-.415-.543-.23-.21-.416-.464-.416-.567 0-.103-.125-.275-.277-.383-.153-.108-.278-.28-.278-.383 0-.102-.187-.358-.415-.567-.23-.209-.416-.453-.416-.543 0-.089-.187-.333-.416-.542l-.416-.38V32.648c0-9.01-.047-13.651-.138-13.651-.077 0-.139-.094-.139-.208 0-.27-.898-1.15-1.173-1.15-.117 0-.213-.06-.213-.135 0-.09-9.655-.136-28.689-.136H32.431V9.635c0-5.066-.048-7.735-.139-7.735-.076 0-.139-.122-.139-.272 0-.149-.062-.271-.138-.271-.076 0-.139-.094-.139-.21 0-.271-.617-.876-.894-.876-.118 0-.214-.06-.214-.135C30.768.047 28.78 0 25.085 0c-3.696 0-5.682.047-5.682.136zM85.65 31.618c0 4.851-.048 8.82-.108 8.82s-.198-.122-.308-.271c-.11-.15-.285-.271-.39-.271-.105 0-.366-.184-.58-.407-.213-.224-.463-.408-.554-.408-.091 0-.34-.183-.554-.407-.214-.224-.463-.407-.555-.407-.091 0-.34-.183-.554-.407-.214-.224-.474-.407-.58-.407-.105 0-.28-.122-.39-.271-.11-.15-.311-.272-.447-.272-.135 0-.246-.06-.246-.135 0-.075-.111-.136-.247-.136-.135 0-.336-.122-.446-.272-.11-.149-.31-.271-.447-.271-.135 0-.246-.061-.246-.136 0-.074-.111-.135-.247-.135-.135 0-.336-.123-.446-.272-.11-.149-.31-.271-.447-.271-.135 0-.246-.061-.246-.136 0-.075-.111-.136-.247-.136-.135 0-.336-.122-.446-.271-.11-.15-.31-.271-.446-.271s-.247-.061-.247-.136c0-.075-.125-.136-.277-.136-.153 0-.277-.06-.277-.136 0-.074-.125-.135-.278-.135-.152 0-.277-.061-.277-.136 0-.075-.124-.136-.277-.136-.152 0-.277-.06-.277-.135 0-.075-.125-.136-.277-.136-.153 0-.278-.061-.278-.136 0-.074-.124-.135-.277-.135-.152 0-.277-.061-.277-.136 0-.075-.125-.136-.277-.136-.153 0-.277-.06-.277-.135 0-.075-.125-.136-.277-.136-.153 0-.278-.061-.278-.136 0-.075-.187-.136-.415-.136-.229 0-.416-.06-.416-.135 0-.075-.125-.136-.277-.136-.153 0-.277-.061-.277-.136 0-.074-.188-.135-.416-.135-.229 0-.416-.061-.416-.136 0-.075-.187-.136-.416-.136-.228 0-.416-.06-.416-.135 0-.075-.124-.136-.277-.136-.152 0-.277-.061-.277-.136 0-.075-.187-.136-.416-.136-.228 0-.416-.06-.416-.135 0-.075-.249-.136-.554-.136-.305 0-.554-.061-.554-.136 0-.074-.187-.135-.416-.135-.229 0-.416-.061-.416-.136 0-.075-.25-.136-.554-.136-.305 0-.555-.06-.555-.135 0-.075-.25-.136-.554-.136-.305 0-.554-.061-.554-.136 0-.075-.25-.136-.555-.136-.305 0-.554-.06-.554-.135 0-.076-.37-.136-.832-.136-.462 0-.831-.06-.831-.136 0-.074-.312-.135-.693-.135-.381 0-.693-.061-.693-.136 0-.081-.554-.136-1.386-.136-.832 0-1.386-.054-1.386-.135 0-.088-1.71-.136-4.85-.136-3.142 0-4.852.048-4.852.136 0 .081-.554.135-1.385.135-.832 0-1.386.055-1.386.136 0 .075-.37.136-.832.136-.462 0-.831.06-.831.135 0 .075-.312.136-.693.136-.382 0-.693.061-.693.136 0 .074-.25.136-.555.136-.305 0-.554.06-.554.135 0 .075-.312.136-.693.136-.381 0-.693.06-.693.136 0 .074-.187.135-.416.135-.229 0-.416.061-.416.136 0 .075-.25.136-.554.136-.305 0-.554.06-.554.135 0 .075-.187.136-.416.136-.229 0-.416.061-.416.136 0 .074-.187.136-.416.136-.228 0-.415.06-.415.135 0 .075-.188.136-.416.136-.229 0-.416.06-.416.136 0 .074-.125.135-.277.135-.153 0-.277.061-.277.136 0 .075-.188.136-.416.136-.229 0-.416.06-.416.135 0 .075-.125.136-.277.136-.272 0-.277-.09-.277-4.614v-4.614h53.22v8.821zM52.665 34.06c0 .086.878.136 2.356.136 1.479 0 2.356.05 2.356.136 0 .075.37.136.832.136.462 0 .831.06.831.135 0 .076.37.136.832.136.462 0 .832.06.832.136 0 .074.312.135.693.135.38 0 .693.062.693.136 0 .075.249.136.554.136.305 0 .554.06.554.136 0 .074.25.135.555.135.305 0 .554.061.554.136 0 .075.187.136.416.136.228 0 .416.06.416.135 0 .075.187.136.415.136.229 0 .416.061.416.136 0 .074.187.135.416.135.229 0 .416.062.416.136 0 .075.187.136.415.136.23 0 .416.06.416.136 0 .074.125.135.277.135.153 0 .278.061.278.136 0 .075.187.136.415.136.23 0 .416.06.416.135 0 .075.187.136.416.136.229 0 .416.061.416.136 0 .074.124.135.277.135.152 0 .277.062.277.136 0 .075.125.136.277.136.153 0 .278.06.278.136 0 .074.124.135.277.135.152 0 .277.061.277.136 0 .075.125.136.277.136.153 0 .277.06.277.135 0 .075.125.136.277.136.153 0 .278.061.278.136 0 .074.124.135.277.135.152 0 .277.061.277.136 0 .075.125.136.277.136.153 0 .277.06.277.136 0 .074.125.135.278.135.152 0 .277.061.277.136 0 .075.11.136.246.136s.337.122.447.271c.11.15.297.271.415.271.12 0 .306.122.416.272.11.15.311.271.447.271.135 0 .246.061.246.136 0 .075.111.136.247.136.135 0 .336.122.446.271.11.15.297.271.416.271s.306.122.416.272c.11.15.285.271.39.271.105 0 .366.183.58.407.213.224.463.407.554.407.092 0 .341.184.555.407.213.224.46.408.548.408.088 0 .527.366.976.814.449.448.883.814.964.814.193 0 3.61 3.346 3.61 3.534 0 .08.374.505.831.944.458.44.832.87.832.956 0 .086.187.328.416.537.228.209.415.453.415.543 0 .089.188.333.416.542.229.21.416.454.416.543 0 .09.187.334.416.543.228.21.415.478.415.597 0 .12.063.217.14.217.075 0 .138.109.138.242 0 .132.124.329.277.437.152.107.277.304.277.437s.062.241.139.241c.076 0 .138.109.138.242 0 .132.125.329.277.437.153.107.278.304.278.437 0 .132.062.241.138.241.076 0 .139.122.139.271 0 .15.062.272.138.272.077 0 .139.122.139.271 0 .15.062.272.139.272.076 0 .138.122.138.271 0 .15.063.272.139.272.076 0 .138.122.138.27 0 .15.063.272.139.272.076 0 .139.123.139.272 0 .149.062.271.138.271.076 0 .139.122.139.272 0 .149.062.27.138.27.076 0 .139.123.139.272 0 .15.062.272.139.272.076 0 .138.122.138.271 0 .15.062.272.139.272.076 0 .138.122.138.27 0 .15.063.272.139.272.076 0 .138.184.138.407 0 .224.063.407.139.407.076 0 .139.184.139.408 0 .224.062.407.138.407.076 0 .139.183.139.407 0 .224.062.407.138.407.077 0 .139.183.139.407 0 .224.062.407.139.407.076 0 .138.183.138.407 0 .224.063.407.139.407.076 0 .138.183.138.407 0 .224.063.407.139.407.076 0 .139.245.139.543 0 .299.062.543.138.543.076 0 .139.244.139.543 0 .298.062.543.138.543.077 0 .139.244.139.543 0 .298.062.542.138.542.08 0 .14.407.14.95 0 .543.059.95.138.95.079 0 .138.407.138.95 0 .543.06.95.139.95.087 0 .139.814.139 2.171 0 1.357.052 2.171.138 2.171.077 0 .139.362.139.814 0 .453-.062.815-.139.815-.087 0-.138.814-.138 2.17 0 1.358-.052 2.172-.14 2.172-.078 0-.138.407-.138.95 0 .543-.06.95-.138.95-.077 0-.139.362-.139.814 0 .452-.061.814-.139.814-.076 0-.138.244-.138.543 0 .299-.062.543-.139.543-.076 0-.138.244-.138.543 0 .298-.063.542-.139.542-.076 0-.138.245-.138.543 0 .299-.063.543-.139.543-.076 0-.139.244-.139.543 0 .298-.062.543-.138.543-.076 0-.139.183-.139.407 0 .224-.062.407-.138.407-.077 0-.139.183-.139.407 0 .224-.062.407-.139.407-.076 0-.138.183-.138.407 0 .224-.063.407-.139.407-.076 0-.138.122-.138.272 0 .149-.063.271-.139.271-.076 0-.139.183-.139.407 0 .224-.062.407-.138.407-.076 0-.139.183-.139.407 0 .224-.062.407-.138.407-.077 0-.139.123-.139.272 0 .149-.062.271-.138.271-.077 0-.14.122-.14.272 0 .149-.062.271-.138.271-.076 0-.138.122-.138.271 0 .15-.063.272-.139.272-.076 0-.138.122-.138.271 0 .15-.063.272-.14.272-.075 0-.138.122-.138.27 0 .15-.062.272-.138.272-.076 0-.139.123-.139.272 0 .149-.062.271-.138.271-.077 0-.139.122-.139.272 0 .149-.062.271-.139.271-.076 0-.138.122-.138.271 0 .15-.063.272-.139.272-.076 0-.138.108-.138.241s-.125.33-.278.437c-.152.108-.277.304-.277.437s-.062.242-.138.242c-.077 0-.139.108-.139.241s-.125.33-.277.437c-.153.108-.277.304-.277.437s-.063.242-.139.242c-.076 0-.139.097-.139.217 0 .119-.187.388-.415.597-.229.209-.416.453-.416.543 0 .089-.187.333-.416.543-.228.209-.416.453-.416.542 0 .09-.187.334-.415.543-.23.209-.416.451-.416.537 0 .086-.374.516-.832.956-.457.439-.831.864-.831.943 0 .189-3.417 3.535-3.61 3.535-.081 0-.515.366-.964.814-.449.448-.888.814-.976.814-.088 0-.335.183-.548.407-.214.224-.463.407-.555.407-.091 0-.34.184-.554.408-.214.223-.475.407-.58.407-.105 0-.28.122-.39.271-.11.149-.297.271-.416.271s-.306.123-.416.272c-.11.149-.31.271-.446.271s-.247.061-.247.136c0 .075-.11.136-.246.136s-.337.122-.447.271c-.11.149-.31.271-.446.271s-.247.062-.247.136c0 .075-.11.136-.246.136s-.337.122-.447.271c-.11.15-.31.272-.446.272s-.247.061-.247.135c0 .075-.124.136-.277.136-.152 0-.277.061-.277.136 0 .074-.125.135-.277.135-.153 0-.277.062-.277.136 0 .075-.125.136-.278.136-.152 0-.277.061-.277.136 0 .074-.187.135-.415.135-.23 0-.416.061-.416.136 0 .075-.125.136-.277.136-.153 0-.278.061-.278.135 0 .075-.124.136-.277.136-.152 0-.277.061-.277.136 0 .074-.125.135-.277.135-.153 0-.277.062-.277.136 0 .075-.188.136-.416.136-.229 0-.416.061-.416.136 0 .074-.125.135-.277.135-.153 0-.277.061-.277.136 0 .075-.188.136-.416.136-.229 0-.416.061-.416.135 0 .075-.187.136-.416.136-.228 0-.415.061-.415.136 0 .074-.125.135-.278.135-.152 0-.277.062-.277.136 0 .075-.25.136-.554.136-.305 0-.555.061-.555.136 0 .074-.187.135-.415.135-.23 0-.416.061-.416.136 0 .075-.25.136-.555.136-.304 0-.554.061-.554.135 0 .075-.312.136-.693.136-.381 0-.693.061-.693.136 0 .074-.312.135-.693.135-.38 0-.693.062-.693.136 0 .076-.37.136-.831.136-.462 0-.832.06-.832.136 0 .08-.508.135-1.247.135-.74 0-1.247.055-1.247.136 0 .087-1.433.136-4.02.136-2.587 0-4.019-.049-4.019-.136 0-.081-.554-.136-1.386-.136-.831 0-1.386-.054-1.386-.135 0-.076-.37-.136-.831-.136-.462 0-.832-.06-.832-.136 0-.074-.312-.136-.693-.136-.381 0-.693-.061-.693-.135 0-.075-.25-.136-.554-.136-.305 0-.555-.061-.555-.136 0-.074-.249-.135-.554-.135-.305 0-.554-.061-.554-.136 0-.075-.25-.136-.555-.136-.305 0-.554-.061-.554-.135 0-.075-.187-.136-.416-.136-.229 0-.416-.061-.416-.136 0-.074-.187-.136-.415-.136-.229 0-.416-.061-.416-.135 0-.075-.187-.136-.416-.136-.229 0-.416-.061-.416-.136 0-.074-.124-.135-.277-.135-.152 0-.277-.061-.277-.136 0-.075-.187-.136-.416-.136-.229 0-.416-.061-.416-.135 0-.075-.124-.136-.277-.136-.152 0-.277-.061-.277-.136 0-.074-.187-.136-.416-.136-.228 0-.416-.061-.416-.135 0-.075-.124-.136-.277-.136-.152 0-.277-.061-.277-.136 0-.074-.125-.135-.277-.135-.153 0-.277-.061-.277-.136 0-.075-.125-.136-.277-.136-.153 0-.278-.061-.278-.135 0-.075-.124-.136-.277-.136-.152 0-.277-.061-.277-.136 0-.074-.125-.136-.277-.136-.153 0-.277-.061-.277-.135 0-.075-.125-.136-.278-.136-.152 0-.277-.061-.277-.136 0-.074-.11-.135-.246-.135s-.337-.122-.447-.272c-.11-.149-.31-.271-.446-.271s-.247-.061-.247-.136c0-.074-.11-.136-.246-.136s-.337-.122-.447-.271c-.11-.149-.31-.271-.446-.271s-.247-.061-.247-.136c0-.075-.11-.136-.246-.136s-.337-.122-.447-.271c-.11-.149-.297-.272-.415-.272-.12 0-.306-.122-.416-.271-.11-.149-.286-.271-.391-.271-.105 0-.366-.184-.58-.407-.213-.224-.462-.408-.554-.408-.091 0-.34-.183-.554-.407-.214-.224-.46-.407-.549-.407-.087 0-.527-.366-.976-.814-.448-.448-.882-.814-.963-.814-.194 0-3.887-3.618-3.887-3.807 0-.08-.312-.443-.693-.807-.381-.363-.693-.732-.693-.819 0-.087-.187-.329-.416-.538-.229-.209-.416-.453-.416-.543 0-.089-.187-.333-.416-.542-.228-.21-.415-.454-.415-.543 0-.09-.188-.334-.416-.543-.229-.209-.416-.478-.416-.597 0-.12-.062-.217-.139-.217-.076 0-.138-.109-.138-.242s-.125-.329-.277-.437c-.153-.107-.277-.304-.277-.437s-.063-.241-.14-.241c-.075 0-.138-.109-.138-.242s-.124-.329-.277-.437c-.152-.107-.277-.291-.277-.407 0-.116-.125-.299-.277-.407-.153-.108-.277-.304-.277-.437s-.063-.241-.139-.241c-.076 0-.139-.123-.139-.272 0-.15-.062-.271-.138-.271-.076 0-.139-.183-.139-.407 0-.224-.062-.407-.138-.407-.077 0-.139-.123-.139-.272 0-.15-.062-.271-.138-.271-.077 0-.14-.122-.14-.272 0-.149-.062-.271-.138-.271-.076 0-.138-.122-.138-.271 0-.15-.063-.272-.139-.272-.076 0-.139-.122-.139-.271 0-.15-.062-.272-.138-.272-.076 0-.139-.122-.139-.271 0-.15-.062-.271-.138-.271-.077 0-.139-.184-.139-.407 0-.224-.062-.408-.138-.408-.077 0-.14-.183-.14-.407 0-.224-.061-.407-.138-.407-.076 0-.138-.122-.138-.271 0-.15-.063-.272-.139-.272-.076 0-.138-.183-.138-.407 0-.224-.063-.407-.139-.407-.076 0-.139-.183-.139-.407 0-.224-.062-.407-.138-.407-.076 0-.139-.183-.139-.407 0-.224-.062-.407-.138-.407-.077 0-.139-.245-.139-.543 0-.299-.062-.543-.139-.543-.076 0-.138-.244-.138-.543 0-.298-.063-.542-.139-.542-.076 0-.138-.245-.138-.543 0-.299-.063-.543-.139-.543-.076 0-.139-.305-.139-.678 0-.374-.062-.679-.138-.679-.08 0-.139-.407-.139-.95 0-.543-.06-.95-.138-.95-.083 0-.139-.497-.139-1.221 0-.724-.056-1.221-.139-1.221-.088 0-.138-1.312-.138-3.664 0-2.352.05-3.664.138-3.664.081 0 .14-.452.14-1.086 0-.633.057-1.085.138-1.085.08 0 .138-.453.138-1.086s.058-1.085.139-1.085c.076 0 .138-.245.138-.543 0-.299.063-.543.139-.543.076 0 .139-.305.139-.679 0-.373.062-.678.138-.678.076 0 .139-.244.139-.543 0-.298.062-.543.138-.543.077 0 .139-.244.139-.543 0-.298.062-.542.139-.542.076 0 .138-.122.138-.272 0-.149.063-.271.139-.271.076 0 .138-.183.138-.407 0-.224.063-.407.139-.407.076 0 .139-.183.139-.407 0-.224.062-.407.138-.407.076 0 .139-.184.139-.408 0-.224.062-.407.138-.407.077 0 .139-.183.139-.407 0-.224.062-.407.139-.407.076 0 .138-.122.138-.271 0-.15.062-.272.139-.272.076 0 .138-.183.138-.407 0-.224.063-.407.139-.407.076 0 .138-.122.138-.271 0-.15.063-.272.14-.272.075 0 .138-.122.138-.271 0-.15.062-.271.138-.271.076 0 .139-.123.139-.272 0-.15.062-.271.139-.271.076 0 .138-.122.138-.272 0-.149.062-.271.139-.271.076 0 .138-.122.138-.271 0-.15.063-.272.139-.272.076 0 .138-.122.138-.271 0-.15.063-.272.139-.272.076 0 .139-.108.139-.241s.124-.33.277-.437c.152-.108.277-.304.277-.437s.062-.242.139-.242c.076 0 .138-.108.138-.241s.125-.33.277-.437c.153-.108.277-.291.277-.407 0-.117.125-.3.278-.407.152-.108.277-.305.277-.437 0-.133.062-.242.139-.242.076 0 .138-.097.138-.217s.187-.388.416-.597c.229-.21.416-.453.416-.543 0-.09.187-.334.415-.543.23-.209.416-.453.416-.542 0-.09.187-.334.416-.543.229-.21.416-.451.416-.537 0-.086.374-.516.831-.956.458-.44.832-.864.832-.944 0-.188 3.417-3.534 3.61-3.534.08 0 .514-.366.963-.814.45-.448.889-.814.977-.814.088 0 .334-.184.548-.407.213-.224.463-.408.554-.408.092 0 .341-.183.555-.407.213-.224.474-.407.579-.407.105 0 .28-.122.39-.271.11-.15.298-.272.417-.272.118 0 .306-.122.415-.271.11-.15.297-.271.416-.271s.306-.123.416-.272c.11-.15.31-.271.446-.271s.247-.061.247-.136c0-.075.11-.136.247-.136.135 0 .336-.122.446-.271.11-.15.31-.271.446-.271s.247-.061.247-.136c0-.075.125-.136.277-.136.152 0 .277-.06.277-.136 0-.074.125-.135.277-.135.153 0 .278-.061.278-.136 0-.075.124-.136.277-.136.152 0 .277-.06.277-.135 0-.075.125-.136.277-.136.153 0 .277-.061.277-.136 0-.074.125-.135.277-.135.153 0 .278-.061.278-.136 0-.075.124-.136.277-.136.152 0 .277-.06.277-.136 0-.074.125-.135.277-.135.153 0 .277-.061.277-.136 0-.075.125-.136.278-.136.152 0 .277-.06.277-.135 0-.075.187-.136.416-.136.228 0 .415-.061.415-.136 0-.074.125-.135.278-.135.152 0 .277-.061.277-.136 0-.075.187-.136.416-.136.228 0 .415-.06.415-.135 0-.075.187-.136.416-.136.229 0 .416-.061.416-.136 0-.075.125-.136.277-.136.152 0 .277-.06.277-.135 0-.075.187-.136.416-.136.229 0 .416-.061.416-.136 0-.074.25-.135.554-.135.305 0 .555-.061.555-.136 0-.075.249-.136.554-.136.305 0 .554-.06.554-.136 0-.074.25-.135.555-.135.304 0 .554-.061.554-.136 0-.075.25-.136.554-.136.305 0 .555-.06.555-.135 0-.078.416-.136.97-.136s.97-.058.97-.136c0-.075.37-.135.832-.135.462 0 .831-.06.831-.136 0-.085.878-.136 2.356-.136 1.479 0 2.356-.05 2.356-.136 0-.074.312-.135.693-.135.381 0 .693.06.693.136zm-1.94 36.64c0 .074-.312.135-.693.135-.381 0-.693.061-.693.136 0 .074-.187.135-.416.135-.228 0-.416.062-.416.136 0 .075-.124.136-.277.136-.152 0-.277.06-.277.136 0 .074-.125.135-.277.135-.153 0-.277.061-.277.136 0 .075-.095.136-.21.136-.274 0-2.562 2.24-2.562 2.508 0 .113-.063.206-.139.206-.076 0-.138.122-.138.271 0 .15-.063.271-.139.271-.076 0-.139.123-.139.272 0 .15-.062.271-.138.271-.076 0-.139.122-.139.272 0 .149-.062.271-.138.271-.076 0-.139.183-.139.407 0 .224-.062.407-.139.407-.086 0-.138.77-.138 2.036s.052 2.035.139 2.035c.076 0 .138.245.138.543 0 .299.063.543.139.543.076 0 .138.122.138.271 0 .15.063.272.139.272.076 0 .139.122.139.271 0 .15.062.271.138.271.076 0 .139.123.139.272 0 .15.062.271.138.271.077 0 .139.093.139.206 0 .25 2.002 2.237 2.254 2.237.099 0 .27.122.38.271.109.15.31.272.445.272.136 0 .247.06.247.135 0 .075.125.136.277.136.153 0 .278.061.278.136 0 .074.187.135.415.135.229 0 .416.061.416.136 0 .075.312.136.693.136.381 0 .693.06.693.135 0 .081.508.136 1.247.136.74 0 1.248-.055 1.248-.136 0-.074.311-.135.693-.135.38 0 .693-.061.693-.136 0-.075.187-.136.415-.136.229 0 .416-.06.416-.135 0-.075.111-.136.247-.136.135 0 .336-.122.446-.271.11-.15.286-.272.39-.272.106 0 .367-.183.58-.407.214-.224.459-.407.545-.407.217 0 1.395-1.175 1.395-1.391 0-.098.125-.265.278-.373.152-.108.277-.304.277-.437s.062-.242.139-.242c.076 0 .138-.122.138-.271 0-.15.062-.271.139-.271.076 0 .138-.184.138-.407 0-.224.063-.408.139-.408.076 0 .138-.183.138-.407 0-.224.063-.407.139-.407.086 0 .139-.724.139-1.9s-.053-1.9-.139-1.9c-.076 0-.139-.244-.139-.542 0-.299-.062-.543-.138-.543-.076 0-.139-.122-.139-.271 0-.15-.062-.272-.138-.272-.077 0-.139-.122-.139-.271 0-.15-.062-.272-.139-.272-.076 0-.138-.108-.138-.241s-.125-.33-.277-.437c-.153-.108-.277-.275-.277-.372 0-.216-1.457-1.663-1.674-1.663-.086 0-.33-.184-.544-.408-.214-.224-.488-.407-.61-.407s-.221-.06-.221-.135c0-.075-.125-.136-.278-.136-.152 0-.277-.061-.277-.136 0-.075-.187-.136-.416-.136-.228 0-.416-.06-.416-.135 0-.075-.311-.136-.692-.136-.382 0-.693-.061-.693-.136 0-.08-.509-.135-1.248-.135s-1.247.055-1.247.135zm2.217 5.699c0 .074.096.135.212.135.116 0 .49.274.831.608.342.333.62.7.62.814 0 .114.063.207.14.207.08 0 .138.452.138 1.085 0 .634-.058 1.086-.139 1.086-.076 0-.139.094-.139.208 0 .115-.216.42-.48.679-.264.258-.576.47-.693.47-.117 0-.212.061-.212.136 0 .074-.188.135-.416.135-.229 0-.416.061-.416.136 0 .075-.125.136-.277.136-.153 0-.277-.061-.277-.136 0-.075-.25-.136-.555-.136-.305 0-.554-.06-.554-.135 0-.075-.095-.136-.212-.136-.116 0-.49-.273-.831-.607-.5-.49-.62-.7-.62-1.086 0-.263-.063-.478-.139-.478-.076 0-.138-.183-.138-.407 0-.224.062-.407.138-.407.076 0 .139-.17.139-.377 0-.222.114-.458.277-.573.153-.108.277-.278.277-.38 0-.248.347-.57.614-.57.12 0 .218-.061.218-.136 0-.075.124-.136.277-.136.152 0 .277-.06.277-.135 0-.078.416-.136.97-.136.555 0 .97.058.97.136z" fill="#202020"/></svg>