<svg width="130" height="130" fill="none" xmlns="http://www.w3.org/2000/svg"><path fill-rule="evenodd" clip-rule="evenodd" d="M47.297.13c0 .072-.094.13-.208.13-.27 0-.873.58-.873.841 0 .111-.06.202-.135.202-.074 0-.135.117-.135.26 0 .143-.06.26-.135.26-.075 0-.135.348-.135.782 0 .434.06.782.135.782.074 0 .135.117.135.26 0 .144.06.26.135.26.074 0 .135.094.135.21 0 .114.183.372.406.572.249.225.405.496.405.704 0 .186.06.338.135.338.075 0 .135.235.135.522 0 .286.061.52.135.52.083 0 .136.608.136 1.564 0 .955-.053 1.563-.136 1.563-.077 0-.135.39-.135.912 0 .52-.058.911-.135.911-.075 0-.135.348-.135.782 0 .434-.06.782-.135.782-.077 0-.135.39-.135.911s-.058.912-.135.912c-.075 0-.136.293-.136.652 0 .358-.06.65-.135.65-.074 0-.135.294-.135.652 0 .358-.06.651-.135.651-.074 0-.135.294-.135.652 0 .358-.06.651-.135.651-.075 0-.135.293-.135.651 0 .359-.061.652-.136.652-.075 0-.135.347-.135.781 0 .434-.06.782-.135.782-.075 0-.135.347-.135.781 0 .434-.06.782-.135.782-.075 0-.135.347-.135.782 0 .434-.06.781-.135.781-.077 0-.135.39-.135.912 0 .52-.058.912-.136.912-.078 0-.135.434-.135 1.042 0 .608-.056 1.042-.135 1.042-.08 0-.135.52-.135 1.302s-.054 1.303-.135 1.303c-.077 0-.135.39-.135.912 0 .52.058.912.135.912.077 0 .135.39.135.911 0 .522.058.912.135.912.075 0 .135.235.135.521 0 .287.061.521.136.521.074 0 .135.176.135.391 0 .215.06.391.135.391.074 0 .135.117.135.26 0 .144.06.261.135.261.074 0 .135.094.135.208 0 .115.183.373.406.574.223.2.405.43.405.511 0 .296 1.201 1.312 1.55 1.312.188 0 .342.059.342.13 0 .072.304.13.675.13.372 0 .676-.058.676-.13 0-.071.154-.13.342-.13.381 0 1.55-1.028 1.55-1.364 0-.11.06-.199.135-.199.079 0 .135-.434.135-1.042 0-.608-.056-1.042-.135-1.042-.074 0-.135-.093-.135-.206 0-.113-.243-.43-.54-.706-.357-.33-.541-.615-.541-.836 0-.185-.06-.336-.135-.336-.086 0-.135-.955-.135-2.605s.05-2.606.135-2.606c.075 0 .135-.347.135-.781 0-.434.06-.782.135-.782.077 0 .135-.39.135-.912 0-.52.058-.911.135-.911.075 0 .136-.348.136-.782 0-.434.06-.782.135-.782.075 0 .135-.347.135-.781 0-.434.06-.782.135-.782.075 0 .135-.347.135-.781 0-.434.06-.782.135-.782.075 0 .135-.293.135-.651 0-.358.061-.651.136-.651.074 0 .135-.294.135-.652 0-.358.06-.651.135-.651.075 0 .135-.347.135-.782 0-.434.06-.781.135-.781.074 0 .135-.293.135-.651 0-.359.061-.652.135-.652.078 0 .135-.39.135-.912 0-.52.058-.911.136-.911.077 0 .135-.391.135-.912s.058-.912.135-.912c.08 0 .135-.521.135-1.303 0-.781.054-1.302.135-1.302.082 0 .135-.565.135-1.433 0-.869-.053-1.433-.135-1.433-.075 0-.135-.347-.135-.782 0-.434-.06-.781-.135-.781-.075 0-.135-.235-.135-.521 0-.287-.061-.521-.135-.521-.075 0-.136-.176-.136-.391 0-.215-.06-.39-.135-.39-.074 0-.135-.118-.135-.261 0-.144-.06-.26-.135-.26-.074 0-.135-.094-.135-.21 0-.114-.183-.372-.406-.572-.222-.201-.405-.432-.405-.514 0-.206-.623-.789-.842-.789-.099 0-.267-.117-.374-.26-.17-.227-.35-.261-1.381-.261-.701 0-1.187.053-1.187.13zM35.676 11.593c0 .072-.122.13-.27.13-.15 0-.27.06-.27.13 0 .072-.095.131-.21.131-.27 0-.872.58-.872.84 0 .111-.06.202-.135.202-.074 0-.135.117-.135.26 0 .144-.061.261-.135.261-.075 0-.136.293-.136.651 0 .359.061.652.136.652.074 0 .135.15.135.335 0 .222.184.507.54.837.298.275.54.593.54.706 0 .113.062.206.136.206.074 0 .135.176.135.39 0 .216.06.391.135.391.08 0 .135.435.135 1.043 0 .607-.056 1.042-.135 1.042-.074 0-.135.234-.135.52 0 .287-.06.522-.135.522-.074 0-.135.234-.135.52 0 .287-.06.522-.135.522-.075 0-.135.176-.135.39 0 .215-.061.391-.136.391-.074 0-.135.235-.135.521 0 .287-.06.521-.135.521-.074 0-.135.118-.135.26 0 .144-.06.262-.135.262-.074 0-.135.175-.135.39 0 .215-.061.391-.135.391-.075 0-.136.234-.136.521 0 .287-.06.521-.135.521-.074 0-.135.235-.135.521 0 .287-.06.521-.135.521-.074 0-.135.235-.135.521 0 .287-.06.521-.135.521-.075 0-.135.235-.135.521 0 .287-.061.521-.135.521-.076 0-.136.348-.136.782 0 .434-.06.781-.135.781-.074 0-.135.294-.135.652 0 .358-.06.651-.135.651-.084 0-.135.695-.135 1.824s.051 1.823.135 1.823c.074 0 .135.118.135.26 0 .144.061.261.135.261.075 0 .135.176.135.391 0 .215.061.391.136.391.074 0 .135.104.135.232 0 .127.121.316.27.42.149.103.27.263.27.356 0 .237 1.979 2.118 2.228 2.118.113 0 .205.059.205.13 0 .073.36.13.81.13.45 0 .811-.057.811-.13 0-.071.093-.13.207-.13.268 0 1.415-1.105 1.415-1.364 0-.11.06-.199.135-.199.079 0 .135-.434.135-1.042 0-.608-.056-1.042-.135-1.042-.074 0-.135-.094-.135-.208 0-.115-.182-.373-.405-.574-.224-.2-.406-.458-.406-.573 0-.114-.06-.208-.135-.208-.074 0-.135-.176-.135-.391 0-.215-.061-.39-.135-.39-.08 0-.135-.435-.135-1.043 0-.608.056-1.042.135-1.042.074 0 .135-.293.135-.651 0-.358.06-.652.135-.652.074 0 .135-.234.135-.52 0-.287.06-.522.135-.522.075 0 .135-.176.135-.39 0-.215.061-.391.136-.391.074 0 .135-.235.135-.521 0-.287.06-.521.135-.521.074 0 .135-.176.135-.391 0-.215.06-.39.135-.39.074 0 .135-.177.135-.392 0-.215.061-.39.135-.39.075 0 .136-.235.136-.521 0-.287.06-.522.135-.522.074 0 .135-.175.135-.39 0-.215.06-.391.135-.391.074 0 .135-.235.135-.521 0-.287.06-.521.135-.521.075 0 .135-.235.135-.521 0-.287.061-.521.135-.521.075 0 .136-.293.136-.652 0-.358.06-.65.135-.65.074 0 .135-.294.135-.652 0-.358.06-.651.135-.651.083 0 .135-.652.135-1.694 0-1.042-.052-1.693-.135-1.693-.074 0-.135-.176-.135-.391 0-.215-.061-.39-.135-.39-.075 0-.136-.177-.136-.391 0-.216-.06-.391-.135-.391-.074 0-.135-.117-.135-.26 0-.144-.06-.261-.135-.261-.074 0-.135-.094-.135-.209 0-.114-.182-.372-.405-.573-.223-.2-.406-.431-.406-.513 0-.22-.905-1.05-1.144-1.05-.114 0-.207-.059-.207-.13 0-.072-.122-.13-.27-.13-.15 0-.27-.06-.27-.13 0-.073-.361-.131-.812-.131-.45 0-.81.058-.81.13zm24.324 0c0 .072-.154.13-.341.13-.382 0-1.55 1.029-1.55 1.365 0 .11-.062.199-.136.199-.078 0-.135.416-.135.99 0 .931.024 1.01.405 1.354.223.201.406.446.406.545 0 .099.121.264.27.367.149.103.27.292.27.42 0 .127.061.231.135.231.083 0 .136.608.136 1.564 0 .955-.053 1.563-.136 1.563-.074 0-.135.234-.135.52 0 .287-.06.522-.135.522-.074 0-.135.234-.135.52 0 .287-.06.522-.135.522-.075 0-.135.176-.135.39 0 .215-.061.391-.136.391-.074 0-.135.176-.135.391 0 .215-.06.39-.135.39-.074 0-.135.177-.135.392 0 .215-.06.39-.135.39-.074 0-.135.176-.135.391 0 .215-.061.391-.135.391-.075 0-.135.235-.135.521 0 .287-.061.521-.136.521-.074 0-.135.235-.135.521 0 .287-.06.521-.135.521-.074 0-.135.235-.135.521 0 .287-.06.521-.135.521-.074 0-.135.293-.135.652 0 .358-.061.65-.135.65-.075 0-.136.294-.136.652 0 .358-.06.651-.135.651-.075 0-.135.348-.135.782 0 .434-.06.782-.135.782-.077 0-.135.39-.135.911s.058.912.135.912c.074 0 .135.293.135.652 0 .358.061.65.135.65.075 0 .136.177.136.392 0 .215.06.39.135.39.074 0 .135.105.135.232 0 .128.121.316.27.42.149.103.27.292.27.42 0 .127.061.231.135.231.075 0 .136.089.136.198 0 .345 1.71 1.886 2.092 1.886.187 0 .34.059.34.13 0 .072.304.13.676.13.371 0 .675-.058.675-.13 0-.071.154-.13.343-.13.38 0 1.279-.774 1.279-1.103 0-.11.06-.2.135-.2.074 0 .135-.175.135-.39 0-.215.061-.39.135-.39.075 0 .136-.235.136-.522 0-.287-.061-.521-.136-.521-.074 0-.135-.163-.135-.362a.702.702 0 00-.27-.55c-.149-.103-.27-.279-.27-.39 0-.112-.122-.288-.27-.391-.15-.104-.27-.292-.27-.42 0-.127-.062-.232-.136-.232-.074 0-.135-.234-.135-.52 0-.287-.06-.522-.135-.522-.075 0-.135-.234-.135-.52 0-.287.06-.522.135-.522.075 0 .135-.347.135-.781 0-.435.06-.782.135-.782.074 0 .135-.235.135-.521 0-.287.061-.521.135-.521.075 0 .135-.176.135-.39 0-.216.061-.392.136-.392.074 0 .135-.234.135-.52 0-.287.06-.522.135-.522.074 0 .135-.117.135-.26 0-.143.06-.26.135-.26.074 0 .135-.177.135-.392 0-.215.061-.39.135-.39.075 0 .136-.235.136-.521 0-.287.06-.521.135-.521.074 0 .135-.176.135-.391 0-.215.06-.391.135-.391.074 0 .135-.235.135-.521 0-.287.06-.521.135-.521.075 0 .135-.235.135-.521 0-.287.061-.521.136-.521.074 0 .135-.235.135-.521 0-.287.06-.521.135-.521.074 0 .135-.293.135-.651 0-.359.06-.652.135-.652.075 0 .135-.347.135-.781 0-.435.06-.782.135-.782.077 0 .135-.39.135-.912 0-.52-.058-.912-.135-.912-.074 0-.135-.293-.135-.65 0-.36-.06-.652-.135-.652-.074 0-.135-.176-.135-.391 0-.215-.06-.39-.135-.39-.075 0-.135-.118-.135-.261 0-.144-.061-.26-.135-.26-.075 0-.136-.105-.136-.233 0-.127-.121-.316-.27-.42-.149-.102-.27-.263-.27-.356 0-.093-.394-.549-.876-1.013-.614-.592-.978-.845-1.216-.845-.188 0-.34-.058-.34-.13 0-.072-.305-.13-.676-.13-.372 0-.676.059-.676.13zM0 61.223c0 2.17.049 3.386.135 3.386.085 0 .135.782.135 2.084 0 1.303.05 2.085.135 2.085.083 0 .136.607.136 1.563 0 .955.052 1.563.135 1.563.08 0 .135.52.135 1.302s.054 1.303.135 1.303c.079 0 .135.434.135 1.042 0 .608.056 1.042.135 1.042.08 0 .135.478.135 1.172 0 .695.055 1.173.135 1.173.078 0 .136.39.136.912 0 .52.058.912.135.912.075 0 .135.347.135.781 0 .434.06.782.135.782.074 0 .135.293.135.651 0 .358.061.651.135.651.075 0 .135.293.135.652 0 .358.061.65.136.65.074 0 .135.294.135.652 0 .358.06.651.135.651.074 0 .135.235.135.522 0 .286.06.52.135.52.074 0 .135.235.135.522 0 .286.061.52.135.52.075 0 .136.177.136.391 0 .215.06.391.135.391.074 0 .135.235.135.521 0 .287.06.521.135.521.074 0 .135.176.135.391 0 .215.06.39.135.39.075 0 .135.177.135.392 0 .215.061.39.135.39.075 0 .136.176.136.391 0 .215.06.391.135.391.074 0 .135.176.135.39 0 .216.06.391.135.391.074 0 .135.176.135.391 0 .215.061.391.135.391.075 0 .135.117.135.26 0 .144.061.261.136.261.074 0 .135.176.135.39 0 .216.06.392.135.392.074 0 .135.117.135.26 0 .143.06.26.135.26.074 0 .135.177.135.392 0 .214.061.39.135.39.075 0 .135.117.135.26 0 .144.061.261.136.261.074 0 .135.118.135.26 0 .144.06.261.135.261.074 0 .135.176.135.391 0 .215.06.39.135.39.074 0 .135.118.135.261 0 .144.061.261.135.261.075 0 .136.117.136.26 0 .144.06.261.135.261.074 0 .135.117.135.26 0 .144.06.261.135.261.074 0 .135.117.135.261 0 .143.06.26.135.26.075 0 .135.117.135.261 0 .143.061.26.136.26.074 0 .135.117.135.261 0 .143.06.26.135.26.074 0 .135.117.135.261 0 .143.06.26.135.26.074 0 .135.105.135.232 0 .128.122.316.27.42.15.103.27.292.27.419 0 .128.062.232.136.232.074 0 .135.117.135.26 0 .144.06.261.135.261.075 0 .135.104.135.232 0 .127.122.316.27.419.15.103.27.279.27.391 0 .112.122.287.271.391.149.103.27.292.27.419 0 .128.061.232.135.232.075 0 .136.104.136.232 0 .127.121.316.27.419.149.104.27.269.27.368 0 .098.183.343.406.544.223.201.405.435.405.521 0 .086.182.321.405.521.223.201.406.434.406.519 0 .084.243.378.54.654.298.275.54.567.54.648 0 .081.366.493.812.915.446.422.81.829.81.905 0 .181 3.873 3.914 4.06 3.914.08 0 .503.352.94.782.438.43.865.782.95.782.084 0 .386.234.672.521.286.286.591.521.678.521.088 0 .33.175.538.39.209.215.463.391.565.391.103 0 .274.117.381.261.107.143.29.26.406.26.116 0 .298.117.405.261.107.143.29.26.405.26.116 0 .299.117.406.261.107.143.29.26.405.26.116 0 .299.118.406.261.107.143.303.26.435.26s.24.059.24.131c0 .071.122.13.27.13.15 0 .27.058.27.13 0 .072.123.13.271.13.149 0 .27.059.27.131 0 .071.122.13.27.13.15 0 .271.058.271.13 0 .072.108.13.24.13.133 0 .329.118.436.261.114.153.35.26.57.26.207 0 .376.059.376.131 0 .071.121.13.27.13.149 0 .27.059.27.13 0 .072.183.13.406.13.223 0 .405.059.405.131 0 .071.122.13.27.13.149 0 .27.059.27.13 0 .072.122.131.27.131.15 0 .271.058.271.13 0 .086-4.865.13-14.324.13-9.46 0-14.325.044-14.325.13 0 .072-.154.131-.342.131-.38 0-1.28.774-1.28 1.102 0 .11-.06.2-.134.2-.075 0-.135.176-.135.391 0 .215-.061.391-.136.391-.074 0-.135.293-.135.651 0 .358.061.651.135.651.075 0 .136.118.136.261 0 .143.06.26.135.26.074 0 .135.091.135.202 0 .26.602.84.872.84.115 0 .209.059.209.131 0 .086 16.802.13 50.135.13s50.135-.044 50.135-.13c0-.072.122-.131.27-.131.149 0 .271-.058.271-.13 0-.071.095-.13.212-.13.273 0 .598-.314.598-.577 0-.113.061-.205.136-.205.074 0 .135-.117.135-.26 0-.143.061-.261.135-.261.075 0 .135-.347.135-.781 0-.434-.06-.782-.135-.782-.074 0-.135-.117-.135-.26 0-.144-.061-.261-.135-.261-.075 0-.136-.09-.136-.201 0-.261-.601-.841-.872-.841-.115 0-.209-.059-.209-.13 0-.072-.121-.13-.27-.13-.149 0-.27-.059-.27-.131 0-.086-5.045-.13-14.865-.13s-14.865-.044-14.865-.13c0-.072.122-.13.27-.13.15 0 .27-.059.27-.131 0-.071.122-.13.27-.13.15 0 .271-.059.271-.13 0-.072.183-.131.406-.131.223 0 .405-.058.405-.13 0-.071.122-.13.27-.13.149 0 .27-.059.27-.13 0-.072.17-.131.376-.131.22 0 .456-.107.57-.26.108-.143.303-.261.436-.261.132 0 .24-.058.24-.13 0-.072.122-.13.27-.13.15 0 .27-.059.27-.13 0-.072.122-.131.271-.131.149 0 .27-.058.27-.13 0-.072.122-.13.27-.13.15 0 .27-.059.27-.13 0-.072.11-.131.241-.131.132 0 .328-.117.436-.26.107-.143.29-.261.405-.261.116 0 .298-.117.405-.26.108-.144.29-.261.406-.261.115 0 .298-.117.405-.26.107-.144.29-.261.405-.261.116 0 .299-.117.406-.26.107-.144.279-.261.381-.261.102 0 .357-.176.565-.391.208-.215.45-.39.538-.39.087 0 .392-.235.678-.521.286-.287.588-.521.672-.521.084 0 .572-.411 1.085-.912.513-.502.997-.912 1.076-.912.186 0 3.518-3.212 3.518-3.392 0-.076.426-.542.946-1.037.52-.495.946-.965.946-1.046 0-.081.244-.372.54-.647.298-.276.541-.57.541-.654 0-.085.183-.318.406-.519.223-.2.405-.446.405-.544 0-.099.122-.264.27-.368.15-.103.27-.279.27-.39 0-.112.122-.288.271-.391.149-.103.27-.279.27-.391 0-.112.122-.287.27-.391.15-.103.27-.279.27-.39 0-.112.123-.288.271-.391.149-.104.27-.292.27-.42 0-.127.061-.232.135-.232.075 0 .136-.104.136-.231 0-.128.121-.317.27-.42.149-.103.27-.292.27-.419 0-.128.061-.232.135-.232.075 0 .136-.117.136-.261 0-.143.06-.26.135-.26.074 0 .135-.117.135-.261 0-.143.06-.26.135-.26.074 0 .135-.117.135-.261 0-.143.061-.26.135-.26.074 0 .135-.118.135-.261 0-.143.061-.26.135-.26.075 0 .136-.118.136-.261 0-.143.06-.26.135-.26.074 0 .135-.118.135-.261 0-.143.061-.26.135-.26.074 0 .135-.118.135-.261 0-.143.061-.26.135-.26.075 0 .135-.118.135-.261 0-.143.061-.26.135-.26.075 0 .136-.118.136-.261 0-.143.06-.26.135-.26.074 0 .135-.118.135-.261 0-.143.061-.26.135-.26.074 0 .135-.176.135-.391 0-.266.067-.391.209-.391.236 0 .872.567.872.777 0 .184 2.794 2.87 2.985 2.87.083 0 .321.176.529.391.208.215.476.391.594.391.119 0 .217.058.217.13 0 .072.121.13.27.13.148 0 .27.059.27.131 0 .071.122.13.27.13.149 0 .271.058.271.13 0 .072.121.13.27.13.149 0 .27.059.27.131 0 .071.122.13.27.13.149 0 .271.058.271.13 0 .072.182.13.405.13.223 0 .406.059.406.131 0 .071.243.13.54.13.297 0 .541.058.541.13 0 .073.36.13.81.13.451 0 .811.058.811.131 0 .08.676.13 1.757.13s1.757-.05 1.757-.13c0-.073.36-.131.811-.131.45 0 .81-.057.81-.13 0-.072.244-.13.541-.13.297 0 .54-.059.54-.13 0-.072.183-.131.406-.131.223 0 .405-.058.405-.13 0-.072.122-.13.271-.13.148 0 .27-.059.27-.13 0-.072.182-.131.405-.131.223 0 .406-.058.406-.13 0-.072.108-.13.24-.13s.328-.117.435-.261c.107-.143.303-.26.436-.26.132 0 .24-.059.24-.131 0-.071.097-.13.216-.13s.387-.176.595-.391c.208-.215.446-.39.529-.39.197 0 2.173-1.906 2.173-2.095 0-.08.183-.31.406-.51.223-.201.405-.447.405-.545 0-.099.122-.264.271-.367.148-.104.27-.28.27-.391 0-.112.121-.288.27-.391.149-.103.27-.292.27-.42 0-.127.061-.231.136-.231.074 0 .135-.176.135-.391 0-.215.06-.39.135-.39.074 0 .135-.118.135-.261 0-.144.061-.26.135-.26.074 0 .135-.177.135-.392 0-.215.061-.39.135-.39.075 0 .135-.235.135-.522 0-.286.061-.52.136-.52.075 0 .135-.348.135-.782 0-.434.06-.782.135-.782.083 0 .135-.65.135-1.693 0-1.042-.052-1.693-.135-1.693-.075 0-.135-.348-.135-.782 0-.434-.06-.781-.135-.781-.075 0-.136-.235-.136-.522 0-.286-.06-.52-.135-.52-.074 0-.135-.177-.135-.391 0-.215-.061-.391-.135-.391-.074 0-.135-.117-.135-.26 0-.144-.061-.261-.135-.261-.075 0-.135-.176-.135-.391 0-.215-.061-.39-.135-.39-.075 0-.136-.105-.136-.233 0-.127-.121-.316-.27-.42-.149-.102-.27-.291-.27-.419 0-.127-.061-.231-.135-.231-.075 0-.135-.093-.135-.206 0-.113-.244-.43-.541-.706-.297-.276-.541-.565-.541-.644 0-.188-1.707-1.831-1.902-1.831-.083 0-.322-.176-.53-.391-.208-.215-.463-.39-.565-.39-.102 0-.274-.118-.381-.261-.107-.144-.289-.26-.405-.26-.116 0-.299-.118-.406-.261-.107-.144-.303-.26-.435-.26s-.24-.06-.24-.131c0-.072-.122-.13-.271-.13-.148 0-.27-.059-.27-.13 0-.072-.182-.13-.405-.13-.223 0-.406-.06-.406-.131 0-.072-.182-.13-.405-.13-.223 0-.406-.059-.406-.13 0-.072-.243-.13-.54-.13-.297 0-.541-.06-.541-.131 0-.073-.36-.13-.81-.13-.451 0-.811-.058-.811-.13 0-.08-.676-.13-1.757-.13s-1.757.05-1.757.13c0 .072-.36.13-.811.13-.45 0-.81.057-.81.13 0 .072-.244.13-.541.13-.297 0-.54.059-.54.13 0 .072-.183.13-.406.13-.223 0-.405.06-.405.13 0 .072-.122.131-.271.131-.148 0-.27.059-.27.13 0 .072-.121.13-.27.13-.149 0-.27.06-.27.13 0 .073-.183.131-.406.131-.223 0-.405-.058-.405-.13 0-.072.061-.13.135-.13.079 0 .135-.434.135-1.042 0-.608.056-1.042.135-1.042.081 0 .135-.521.135-1.303 0-.782.054-1.303.136-1.303.082 0 .135-.608.135-1.563s.052-1.563.135-1.563c.084 0 .135-.781.135-2.084s.051-2.084.135-2.084c.087 0 .135-1.173.135-3.257v-3.256H0v3.386zm103.32 2.27c.22.211.264.856.058.856-.085 0-.135.911-.135 2.475 0 1.563-.049 2.475-.135 2.475-.082 0-.135.564-.135 1.432 0 .869-.053 1.433-.135 1.433-.08 0-.135.478-.135 1.173 0 .694-.055 1.172-.135 1.172-.079 0-.136.434-.136 1.042 0 .608-.056 1.042-.135 1.042-.075 0-.135.348-.135.782 0 .434-.06.781-.135.781-.075 0-.135.348-.135.782 0 .434-.06.781-.135.781-.075 0-.135.348-.135.782 0 .434-.06.782-.136.782-.075 0-.135.347-.135.781 0 .434-.06.782-.135.782-.074 0-.135.234-.135.52 0 .287-.061.522-.135.522-.074 0-.135.293-.135.651 0 .358-.061.651-.135.651-.075 0-.135.235-.135.521 0 .287-.061.522-.136.522-.074 0-.135.234-.135.52 0 .287-.061.522-.135.522-.074 0-.135.234-.135.52 0 .287-.06.522-.135.522-.075 0-.135.176-.135.39 0 .215-.061.391-.135.391-.075 0-.135.176-.135.391 0 .215-.061.39-.136.39-.074 0-.135.177-.135.391 0 .216-.06.391-.135.391-.074 0-.135.176-.135.391 0 .215-.06.39-.135.39-.075 0-.135.177-.135.392 0 .215-.061.39-.136.39-.074 0-.135.176-.135.391 0 .215-.06.391-.135.391-.074 0-.135.117-.135.26 0 .144-.06.261-.135.261-.074 0-.135.117-.135.26 0 .144-.061.261-.135.261-.075 0-.135.176-.135.39 0 .216-.061.392-.136.392-.074 0-.135.117-.135.26 0 .144-.06.26-.135.26-.074 0-.135.177-.135.392 0 .214-.06.39-.135.39-.074 0-.135.117-.135.26 0 .144-.061.261-.135.261-.075 0-.135.117-.135.26 0 .144-.061.261-.136.261-.074 0-.135.118-.135.26 0 .144-.06.261-.135.261-.074 0-.135.118-.135.26 0 .144-.06.261-.135.261-.075 0-.135.118-.135.26 0 .144-.061.261-.136.261-.074 0-.135.118-.135.261 0 .143-.06.26-.135.26-.074 0-.135.118-.135.261 0 .143-.06.26-.135.26-.074 0-.135.118-.135.261 0 .143-.06.261-.135.261-.075 0-.135.117-.135.26 0 .143-.061.261-.135.261-.075 0-.136.104-.136.231 0 .128-.121.317-.27.42-.149.103-.27.279-.27.391 0 .111-.122.287-.27.391-.15.103-.27.292-.27.419s-.062.232-.136.232c-.074 0-.135.104-.135.232 0 .127-.122.316-.27.419-.149.103-.27.269-.27.367 0 .099-.183.344-.406.545-.223.201-.405.435-.405.521 0 .086-.183.32-.406.521-.223.201-.405.434-.405.518 0 .085-.243.379-.54.654-.298.276-.541.565-.541.642 0 .184-5.223 5.22-5.414 5.22-.08 0-.44.293-.803.651-.362.359-.728.652-.815.652-.086 0-.328.176-.536.39-.208.215-.462.391-.565.391-.102 0-.274.117-.38.261-.108.143-.29.26-.406.26-.116 0-.298.118-.406.261-.107.143-.29.26-.405.26-.116 0-.298.118-.405.261-.108.143-.29.26-.406.26-.116 0-.298.118-.405.261-.107.143-.303.26-.436.26-.132 0-.24.059-.24.131 0 .071-.108.13-.24.13-.133 0-.328.117-.436.26-.107.144-.303.261-.435.261s-.24.059-.24.13c0 .072-.122.131-.27.131-.15 0-.27.058-.27.13 0 .071-.122.13-.271.13-.149 0-.27.059-.27.13 0 .072-.183.131-.406.131-.223 0-.405.058-.405.13 0 .071-.122.13-.27.13-.15 0-.27.059-.27.13 0 .072-.122.131-.27.131-.15 0-.271.058-.271.13 0 .071-.183.13-.406.13-.223 0-.405.059-.405.13 0 .072-.122.131-.27.131-.149 0-.27.058-.27.13 0 .072-.183.13-.406.13-.223 0-.405.059-.405.13 0 .072-.183.131-.406.131-.223 0-.405.058-.405.13 0 .072-.243.13-.54.13-.298 0-.541.059-.541.13 0 .072-.183.131-.406.131-.223 0-.405.058-.405.13 0 .072-.243.13-.54.13-.298 0-.541.059-.541.13 0 .072-.304.131-.676.131-.372 0-.675.058-.675.13 0 .072-.36.13-.811.13-.45 0-.811.058-.811.131 0 .074-.405.13-.946.13-.54 0-.946.056-.946.13 0 .076-.45.13-1.081.13-.63 0-1.081.055-1.081.131 0 .081-.856.13-2.297.13-1.442 0-2.298.048-2.298.13 0 .08-.63.13-1.621.13s-1.622-.05-1.622-.13c0-.082-.856-.13-2.297-.13-1.442 0-2.298-.049-2.298-.13 0-.076-.45-.131-1.08-.131-.631 0-1.082-.054-1.082-.13 0-.074-.405-.13-.946-.13-.54 0-.946-.056-.946-.13 0-.073-.36-.131-.81-.131-.45 0-.811-.058-.811-.13 0-.072-.304-.13-.676-.13-.372 0-.676-.059-.676-.131 0-.071-.243-.13-.54-.13-.297 0-.54-.058-.54-.13 0-.072-.183-.13-.406-.13-.223 0-.406-.059-.406-.131 0-.071-.243-.13-.54-.13-.297 0-.54-.058-.54-.13 0-.072-.183-.13-.406-.13-.223 0-.405-.059-.405-.131 0-.071-.183-.13-.406-.13-.223 0-.405-.058-.405-.13 0-.072-.122-.13-.27-.13-.15 0-.27-.059-.27-.131 0-.071-.183-.13-.406-.13-.223 0-.406-.059-.406-.13 0-.072-.121-.13-.27-.13-.148 0-.27-.059-.27-.131 0-.071-.122-.13-.27-.13-.15 0-.27-.059-.27-.13 0-.072-.183-.13-.406-.13-.223 0-.405-.059-.405-.131 0-.071-.122-.13-.27-.13-.15 0-.271-.059-.271-.13 0-.072-.122-.13-.27-.13-.149 0-.27-.059-.27-.131 0-.071-.109-.13-.241-.13s-.328-.117-.435-.261c-.107-.143-.303-.26-.436-.26-.132 0-.24-.059-.24-.13 0-.072-.108-.131-.24-.131-.133 0-.328-.117-.436-.26-.107-.143-.303-.261-.435-.261s-.24-.058-.24-.13c0-.072-.097-.13-.216-.13-.12 0-.387-.176-.595-.391-.208-.215-.463-.391-.565-.391-.102 0-.274-.117-.381-.26-.107-.144-.279-.261-.381-.261-.102 0-.357-.176-.565-.391-.208-.214-.45-.39-.538-.39-.087 0-.393-.235-.678-.521-.286-.287-.585-.521-.666-.521-.192 0-5.956-5.557-5.956-5.741 0-.078-.243-.367-.54-.642-.298-.276-.54-.57-.54-.654 0-.084-.183-.318-.406-.519-.223-.2-.406-.445-.406-.544 0-.099-.121-.264-.27-.367-.149-.104-.27-.279-.27-.391 0-.112-.122-.288-.27-.391-.15-.103-.27-.292-.27-.419 0-.128-.062-.232-.136-.232-.074 0-.135-.105-.135-.232s-.122-.316-.27-.419c-.149-.104-.27-.28-.27-.391 0-.112-.122-.288-.27-.391-.15-.103-.271-.292-.271-.42 0-.127-.06-.231-.135-.231-.075 0-.135-.118-.135-.261 0-.143-.061-.26-.136-.26-.074 0-.135-.118-.135-.261 0-.143-.06-.26-.135-.26-.074 0-.135-.118-.135-.261 0-.143-.06-.26-.135-.26-.074 0-.135-.118-.135-.261 0-.143-.061-.26-.135-.26-.075 0-.135-.118-.135-.261 0-.143-.061-.26-.136-.26-.074 0-.135-.118-.135-.261 0-.143-.06-.26-.135-.26-.074 0-.135-.118-.135-.261 0-.143-.06-.26-.135-.26-.074 0-.135-.118-.135-.261 0-.144-.061-.26-.135-.26-.075 0-.136-.118-.136-.261 0-.144-.06-.26-.135-.26-.074 0-.135-.177-.135-.391 0-.216-.06-.391-.135-.391-.074 0-.135-.117-.135-.26 0-.144-.06-.261-.135-.261-.075 0-.135-.176-.135-.391 0-.215-.061-.39-.136-.39-.074 0-.135-.118-.135-.261 0-.144-.06-.261-.135-.261-.074 0-.135-.117-.135-.26 0-.144-.06-.261-.135-.261-.074 0-.135-.176-.135-.39 0-.216-.061-.392-.135-.392-.075 0-.136-.175-.136-.39 0-.215-.06-.391-.135-.391-.074 0-.135-.176-.135-.39 0-.216-.06-.392-.135-.392-.074 0-.135-.175-.135-.39 0-.215-.06-.391-.135-.391-.074 0-.135-.176-.135-.391 0-.215-.061-.39-.135-.39-.075 0-.136-.177-.136-.392 0-.214-.06-.39-.135-.39-.074 0-.135-.235-.135-.521 0-.287-.06-.522-.135-.522-.074 0-.135-.234-.135-.52 0-.287-.06-.522-.135-.522-.075 0-.135-.234-.135-.52 0-.287-.061-.522-.135-.522-.075 0-.136-.293-.136-.65 0-.36-.06-.652-.135-.652-.074 0-.135-.235-.135-.521 0-.287-.06-.521-.135-.521-.074 0-.135-.293-.135-.652 0-.358-.061-.65-.135-.65-.077 0-.135-.392-.135-.913 0-.52-.058-.912-.136-.912-.075 0-.135-.347-.135-.781 0-.434-.06-.782-.135-.782-.075 0-.135-.347-.135-.781 0-.434-.06-.782-.135-.782-.079 0-.135-.434-.135-1.042 0-.608-.057-1.042-.135-1.042-.08 0-.136-.434-.136-1.042 0-.608-.056-1.042-.135-1.042-.082 0-.135-.608-.135-1.563 0-.956-.052-1.563-.135-1.563-.085 0-.135-.912-.135-2.475 0-1.564-.05-2.475-.135-2.475-.193 0-.168-.627.034-.848.255-.28 97.185-.288 97.475-.008zm12.085 17.138c0 .075.406.13.946.13.541 0 .946.056.946.13 0 .072.183.131.406.131.223 0 .405.059.405.13 0 .072.183.13.406.13.222 0 .405.06.405.13 0 .072.122.131.27.131.149 0 .27.059.27.13 0 .072.098.13.217.13.118 0 .386.177.594.391.209.215.447.391.53.391.212 0 1.632 1.39 1.632 1.597 0 .093.122.254.271.357.148.103.27.28.27.39 0 .112.122.288.27.392.149.103.271.292.271.42 0 .127.06.23.135.23.074 0 .135.177.135.392 0 .215.061.39.135.39.074 0 .135.235.135.522 0 .286.061.52.135.52.083 0 .135.652.135 1.694 0 1.042-.052 1.693-.135 1.693-.074 0-.135.176-.135.391 0 .215-.061.39-.135.39-.074 0-.135.235-.135.522 0 .287-.061.521-.135.521-.075 0-.135.104-.135.232 0 .127-.122.316-.271.42-.148.103-.27.278-.27.39 0 .112-.122.288-.27.39-.149.104-.271.265-.271.358 0 .22-1.698 1.857-1.927 1.857-.096 0-.263.117-.37.26-.107.144-.303.261-.435.261s-.241.059-.241.13c0 .072-.121.13-.27.13-.148 0-.27.06-.27.131 0 .072-.122.13-.27.13-.149 0-.271.059-.271.13 0 .072-.243.13-.54.13-.297 0-.541.06-.541.131 0 .075-.405.13-.946.13-.54 0-.946.056-.946.13 0 .072-.182.13-.405.13-.223 0-.405-.058-.405-.13 0-.074-.406-.13-.946-.13-.541 0-.946-.055-.946-.13 0-.072-.183-.13-.406-.13-.223 0-.405-.059-.405-.13 0-.072-.183-.13-.406-.13-.222 0-.405-.06-.405-.13 0-.073-.108-.131-.24-.131-.133 0-.328-.117-.436-.26-.107-.144-.277-.261-.378-.261-.101 0-.417-.235-.703-.521-.285-.287-.615-.521-.732-.521a.21.21 0 01-.214-.206c0-.113-.243-.43-.54-.706-.297-.275-.541-.58-.541-.678 0-.097-.121-.26-.27-.364-.149-.104-.27-.292-.27-.42 0-.127-.061-.232-.135-.232-.075 0-.136-.175-.136-.39 0-.215-.06-.391-.135-.391-.074 0-.135-.176-.135-.39 0-.216-.061-.392-.135-.392-.077 0-.135-.39-.135-.911 0-.522-.058-.912-.135-.912-.075 0-.135-.176-.135-.391 0-.215.06-.39.135-.39.077 0 .135-.392.135-.913 0-.52.058-.912.135-.912.074 0 .135-.175.135-.39 0-.215.061-.391.135-.391.075 0 .135-.176.135-.39 0-.216.061-.392.136-.392.074 0 .135-.104.135-.231 0-.128.121-.317.27-.42.149-.103.27-.267.27-.365 0-.097.244-.402.541-.677.297-.275.54-.593.54-.706a.21.21 0 01.214-.206c.117 0 .447-.234.732-.52.286-.287.616-.522.733-.522.117 0 .213-.058.213-.13 0-.072.109-.13.241-.13s.328-.118.435-.26c.114-.154.35-.261.57-.261.207 0 .376-.06.376-.13 0-.072.182-.131.405-.131.223 0 .406-.059.406-.13 0-.075.405-.13.946-.13.54 0 .946-.056.946-.13 0-.072.182-.131.405-.131.223 0 .405.059.405.13z" fill="#202020"/></svg>