<svg width="26" height="26" fill="none" xmlns="http://www.w3.org/2000/svg"><path fill-rule="evenodd" clip-rule="evenodd" d="M4.815 0A4.815 4.815 0 000 4.815v16.37A4.815 4.815 0 004.815 26h16.37A4.815 4.815 0 0026 21.185V4.815A4.815 4.815 0 0021.185 0H4.815zm5.836 15.387l-.27 4.074c.395 0 .578-.183.8-.405l1.916-1.858 3.986 2.946c.732.405 1.262.193 1.445-.683l2.62-12.336c.269-1.079-.405-1.57-1.108-1.252L4.66 11.805c-1.05.424-1.04 1.011-.192 1.252l3.948 1.252 9.129-5.768c.433-.26.828-.116.5.183l-7.395 6.663z" fill="#202020"/></svg>