<svg width="35" height="35" fill="none" xmlns="http://www.w3.org/2000/svg"><path fill-rule="evenodd" clip-rule="evenodd" d="M6.481 0A6.481 6.481 0 000 6.481v22.037A6.482 6.482 0 006.481 35h22.037A6.482 6.482 0 0035 28.518V6.482A6.482 6.482 0 0028.518 0H6.482zm7.857 20.714l-.363 5.483c.531 0 .777-.246 1.076-.544l2.58-2.502 5.366 3.966c.985.545 1.698.26 1.944-.92L28.467 9.59c.363-1.451-.544-2.113-1.49-1.685L6.274 15.891c-1.413.57-1.4 1.362-.26 1.685l5.315 1.686 12.29-7.765c.582-.35 1.114-.156.673.246l-9.955 8.97z" fill="#fff"/></svg>